<svg xmlns="http://www.w3.org/2000/svg" width="22.8" height="29.1" data-name="33_Addons" viewBox="0 0 22.8 29.1">
    <path d="M8.5 29.1A3.116 3.116 0 0 1 5.4 26a3.756 3.756 0 0 1 1.3-2.4.683.683 0 0 0 .3-.5H1.1A1.11 1.11 0 0 1 0 22v-5.8a1.11 1.11 0 0 1 1.1-1.1 2.127 2.127 0 0 1 1.5.7 2.284 2.284 0 0 0 1.6.9 2.112 2.112 0 0 0 2.1-2.1 2.182 2.182 0 0 0-2.1-2.1 2.718 2.718 0 0 0-1.6.9 1.91 1.91 0 0 1-1.4.7A1.135 1.135 0 0 1 0 13V7a1.11 1.11 0 0 1 1.1-1.1h6a.781.781 0 0 0-.3-.4 3.352 3.352 0 0 1-1.3-2.4 3.1 3.1 0 1 1 6.2 0 3.756 3.756 0 0 1-1.3 2.4.683.683 0 0 0-.3.5H16a1.11 1.11 0 0 1 1.1 1.1V13c.1-.1.2-.1.2-.2a3.352 3.352 0 0 1 2.4-1.3 3.1 3.1 0 1 1 0 6.2 3.756 3.756 0 0 1-2.4-1.3l-.2-.2V22a1.11 1.11 0 0 1-1.1 1.1h-6a.781.781 0 0 0 .3.4 3.352 3.352 0 0 1 1.3 2.4 3.138 3.138 0 0 1-3.1 3.2zM1.1 16a.349.349 0 0 0-.2.1v5.8a.1.1 0 0 0 .1.1h5.8a1.028 1.028 0 0 1 1.1 1 1.709 1.709 0 0 1-.7 1.3 2.284 2.284 0 0 0-.9 1.6A2.112 2.112 0 0 0 8.4 28a2.182 2.182 0 0 0 2.1-2.1 2.709 2.709 0 0 0-.9-1.6 2.091 2.091 0 0 1-.7-1.3 1.028 1.028 0 0 1 1.1-1h5.8a.1.1 0 0 0 .1-.1v-5.8c0-.7.4-1.1.9-1.1a2.134 2.134 0 0 1 1.2.7 2.284 2.284 0 0 0 1.6.9 2.112 2.112 0 0 0 2.1-2.1 2.182 2.182 0 0 0-2.1-2.1 2.718 2.718 0 0 0-1.6.9 1.855 1.855 0 0 1-1.2.7 1.018 1.018 0 0 1-.9-1.1V7a.1.1 0 0 0-.1-.1H10a1.028 1.028 0 0 1-1.1-1 1.709 1.709 0 0 1 .7-1.3 2.284 2.284 0 0 0 .9-1.6A2.112 2.112 0 0 0 8.4.9a2.03 2.03 0 0 0-2 2.1 2.709 2.709 0 0 0 .9 1.6A2.091 2.091 0 0 1 8 5.9a1.1 1.1 0 0 1-1.1 1H1.1A.1.1 0 0 0 1 7v5.8a.1.1 0 0 0 .1.1 1.493 1.493 0 0 0 .7-.3 3.352 3.352 0 0 1 2.4-1.3 3.1 3.1 0 1 1 0 6.2 3.756 3.756 0 0 1-2.4-1.3c-.2 0-.5-.2-.7-.2z" data-name="Path 657"/>
</svg>
