<svg xmlns="http://www.w3.org/2000/svg" id="prefix__Conferences" width="277.333" height="210.895" viewBox="0 0 277.333 210.895">
    <defs>
        <style>
            .prefix__cls-1{fill:#ffeb52}.prefix__cls-2{fill:#78d2f9}.prefix__cls-3{fill:#f76540}.prefix__cls-4{fill:#fb6304}.prefix__cls-6{fill:#b5aefc}.prefix__cls-7{fill:#786992}.prefix__cls-8{fill:#eae9c5}.prefix__cls-9{fill:#ff8868}.prefix__cls-10{fill:#3a3a35}.prefix__cls-11{fill:#914724}.prefix__cls-12{fill:#344a9f}.prefix__cls-14{fill:#fafafa}.prefix__cls-15{fill:#68301c}.prefix__cls-16{fill:#f5a489}.prefix__cls-17{fill:#723b26}.prefix__cls-22{fill:#825750}.prefix__cls-23{fill:#7d4428}.prefix__cls-25{fill:#f19542}.prefix__cls-26,.prefix__cls-33{fill:none;stroke:#400909;stroke-linecap:round;stroke-linejoin:round}.prefix__cls-26{stroke-width:1.19px}.prefix__cls-27{fill:#c78361;opacity:.32}.prefix__cls-28{fill:#fff}.prefix__cls-30{fill:#f56d73}.prefix__cls-31{fill:#282f39}.prefix__cls-32{fill:#f06c72}.prefix__cls-33{stroke-width:1.16px}.prefix__cls-34{fill:#fff3eb}.prefix__cls-38{fill:#169b94}
        </style>
    </defs>
    <g id="prefix__Layer_2" data-name="Layer 2">
        <g id="prefix__OBJECTS">
            <path id="prefix__Path_372" d="M462.161 105.243a2.712 2.712 0 0 1-2.7-2.707V81.191a2.712 2.712 0 0 1 2.7-2.7 2.713 2.713 0 0 1 2.7 2.7v21.345a2.712 2.712 0 0 1-2.7 2.707z" class="prefix__cls-1" data-name="Path 372" transform="translate(-196.531 -33.569)"/>
            <circle id="prefix__Ellipse_25" cx="14.387" cy="14.387" r="14.387" class="prefix__cls-1" data-name="Ellipse 25" transform="translate(155.86 8.033)"/>
            <path id="prefix__Rectangle_96" d="M0 0H15.068V15.068H0z" class="prefix__cls-2" data-name="Rectangle 96" transform="translate(7.165 28.039)"/>
            <path id="prefix__Rectangle_97" d="M0 0H8.515V8.515H0z" class="prefix__cls-3" data-name="Rectangle 97" transform="translate(29.477 23.175)"/>
            <path id="prefix__Rectangle_98" d="M0 0H8.515V8.515H0z" class="prefix__cls-3" data-name="Rectangle 98" transform="translate(158.023 195.041)"/>
            <path id="prefix__Rectangle_99" d="M0 0H8.515V8.515H0z" class="prefix__cls-4" data-name="Rectangle 99" transform="translate(254.225 21.035)"/>
            <path id="prefix__Path_373" d="M264.655 64.517c-7.605-22.289-28.041-44.842-53.9-43.228-29.755 1.86-53.627 26.656-82.938 31.474-1.969.32-3.937.572-5.911.818-27.106 3.142-55.733-1.533-81.833 8.309a60.346 60.346 0 0 0-28.79 23.354c-5.322 8.424-7.851 18.925-5.328 28.55 4.727 18.026 22.73 25.385 38.444 31.554 13.734 5.4 27.623 11.817 37.2 23.508 10.449 12.8 11.96 30.33 24.275 41.775 12.515 11.651 31.772 11.491 46.587 4.464 16.195-7.657 28.063-22.118 38.622-36.636 10.341-14.226 20.79-29.963 34.993-40.63 9.889-7.439 21.648-12.59 29.935-21.774 12.214-13.586 14.543-34.255 8.644-51.538zm-31.171-27.468a1.168 1.168 0 0 1 0-2.335 1.174 1.174 0 0 1 0 2.346z" data-name="Path 373" transform="translate(-2.126 -9.067)" style="opacity:.39;fill:#fb6304"/>
            <rect id="prefix__Rectangle_100" width="63.824" height="92.099" class="prefix__cls-6" data-name="Rectangle 100" rx="10.07" transform="translate(102.903 86.392)"/>
            <rect id="prefix__Rectangle_101" width="52.871" height="78.25" class="prefix__cls-4" data-name="Rectangle 101" rx="7.82" transform="translate(188.375 5.441)"/>
            <rect id="prefix__Rectangle_102" width="86.13" height="60.625" class="prefix__cls-2" data-name="Rectangle 102" rx="7.11" transform="translate(49.718 5.264)"/>
            <path id="prefix__Path_374" d="M146.92 91.283V70.836a10.117 10.117 0 0 1 1.465-5.2A13.734 13.734 0 0 1 151 62.584a17.385 17.385 0 0 1 11.376-4.006 18.238 18.238 0 0 1 8.321 1.957 15.346 15.346 0 0 1 2.592 1.642l.486.412a12.343 12.343 0 0 1 1.265 1.242 11.56 11.56 0 0 1 1.316 1.8 10.071 10.071 0 0 1 1.511 5.208v20.455z" class="prefix__cls-7" data-name="Path 374" transform="translate(-62.844 -25.051)"/>
            <path id="prefix__Path_375" d="M165.6 91.284v-32.1a19.016 19.016 0 0 1 4.767-.6 18.61 18.61 0 0 1 6.529 1.145v31.544z" class="prefix__cls-8" data-name="Path 375" transform="translate(-70.834 -25.052)"/>
            <path id="prefix__Path_376" d="M171.665 43.66c0-1.207-.052-3.022-.166-4.99h-4.286v3.03a35.479 35.479 0 0 1-2.123 11.909l.034.343c1.207-2.117 2.638-3.348 4.166-3.348s3 1.253 4.218 3.434a37.453 37.453 0 0 1-1.843-10.381z" class="prefix__cls-9" data-name="Path 376" transform="translate(-70.616 -16.536)"/>
            <path id="prefix__Path_377" d="M158.87 60.3c0 1.854 3.582 3.353 8.012 3.353s8.012-1.5 8.012-3.353-3.582-3.353-8.012-3.353-8.012 1.502-8.012 3.353z" class="prefix__cls-9" data-name="Path 377" transform="translate(-67.956 -24.355)"/>
            <rect id="prefix__Rectangle_103" width="3.371" height="5.877" class="prefix__cls-9" data-name="Rectangle 103" rx="1.685" transform="translate(92.7 14.288)"/>
            <rect id="prefix__Rectangle_104" width="3.371" height="5.877" class="prefix__cls-9" data-name="Rectangle 104" rx="1.685" transform="translate(105.398 14.094)"/>
            <path id="prefix__Path_378" d="M166.911 11.123v12.052a5.8 5.8 0 0 0 2.289 4.635 5.667 5.667 0 0 0 .773.515 5.419 5.419 0 0 0 .744.326 5.66 5.66 0 0 0 2.043.383 5.849 5.849 0 0 0 3.274-1A6.722 6.722 0 0 0 177 27.2a5.076 5.076 0 0 0 .572-.727l.2-.3.1-.183a1.42 1.42 0 0 0 .126-.246 3.078 3.078 0 0 0 .166-.372 2.205 2.205 0 0 0 .155-.423 5.219 5.219 0 0 0 .252-1.2 4.674 4.674 0 0 0 .029-.572V11.123a5.86 5.86 0 1 0-11.714 0z" class="prefix__cls-9" data-name="Path 378" transform="translate(-71.384 -2.168)"/>
            <path id="prefix__Path_379" d="M172.4 33.087a3.743 3.743 0 0 1 6.89 2.077v2.163a3.686 3.686 0 0 1-.132.944l-.624.5a3.433 3.433 0 0 0-.572.635 5.889 5.889 0 0 1-3.073.881 5.66 5.66 0 0 1-2.043-.383 3.028 3.028 0 0 1-.538-.7 3.674 3.674 0 0 1-.509-1.877v-2.163a3.748 3.748 0 0 1 .601-2.077z" class="prefix__cls-10" data-name="Path 379" transform="translate(-73.486 -13.414)"/>
            <path id="prefix__Path_380" d="M178.774 34.53a1.883 1.883 0 1 1-3.668.149c1.225-.023 2.444-.086 3.668-.149z" class="prefix__cls-8" data-name="Path 380" transform="translate(-74.887 -14.765)"/>
            <path id="prefix__Path_381" d="M177.775 7.625a7.564 7.564 0 0 0 4.28-5.265 3.279 3.279 0 0 1-2.907 2.106A3.548 3.548 0 0 0 180.47 1.5a3.794 3.794 0 0 1-2.6 1.808 4.481 4.481 0 0 0 .721-2.8c-.332 1.442-2.232 1.917-3.651 1.505S172.316.632 170.9.208a4.469 4.469 0 0 0-3.909.572A3.245 3.245 0 0 0 165.8 4.4a1.471 1.471 0 0 0-1.848.83 4.263 4.263 0 0 0-.172 2.232q.332 3.3.675 6.587a3.634 3.634 0 0 1 1.62 1.791 11.834 11.834 0 0 0 2.415-8.458c2.035 2.377 6.87 1.41 9.285.243z" class="prefix__cls-10" data-name="Path 381" transform="translate(-70.025 .008)"/>
            <path id="prefix__Path_382" d="M187.006 11.526l-.166 8.206s2.81-6.673 1.848-9.591-1.682 1.385-1.682 1.385z" class="prefix__cls-10" data-name="Path 382" transform="translate(-79.92 -3.899)"/>
            <path id="prefix__Path_383" d="M182.881 32.228v6.9a6.725 6.725 0 0 0 .967-.83 5.076 5.076 0 0 0 .572-.727l.2-.3.1-.183a1.417 1.417 0 0 0 .126-.246 3.076 3.076 0 0 0 .166-.372 2.2 2.2 0 0 0 .155-.423 5.22 5.22 0 0 0 .252-1.2 4.68 4.68 0 0 0 .029-.572v-2.047a1.293 1.293 0 0 0-2.581 0z" class="prefix__cls-10" data-name="Path 383" transform="translate(-78.221 -13.264)"/>
            <path id="prefix__Path_384" d="M166.93 26.637V31.7a5.889 5.889 0 0 0 3.07 5.146 1.213 1.213 0 0 0 .206-.378 1.5 1.5 0 0 0 .109-.572v-9.259A1.665 1.665 0 0 0 168.687 25h-.069a1.665 1.665 0 0 0-1.688 1.637z" class="prefix__cls-10" data-name="Path 384" transform="translate(-71.403 -10.689)"/>
            <path id="prefix__Path_385" d="M171 43.406a5.667 5.667 0 0 0 .773.515 5.419 5.419 0 0 0 .744.326 5.66 5.66 0 0 0 2.043.383 5.849 5.849 0 0 0 3.274-1 6.725 6.725 0 0 0 .967-.829 3.344 3.344 0 0 0 .292-.338c-.046-.057-.092-.1-.143-.155a2.575 2.575 0 0 0-1.831-.767h-3.657A2.609 2.609 0 0 0 171 43.406z" class="prefix__cls-10" data-name="Path 385" transform="translate(-73.144 -17.764)"/>
            <path id="prefix__Path_386" d="M164.073 35.207a.349.349 0 0 0 .349-.349v-1.179a.349.349 0 0 0-.349-.349.343.343 0 0 0-.343.349v1.179a.343.343 0 0 0 .343.349z" class="prefix__cls-8" data-name="Path 386" transform="translate(-70.034 -14.252)"/>
            <path id="prefix__Path_387" d="M198.225 67.275l21.175-3.926c3.319-.612 6.472 1.145 7.01 3.943s-1.717 5.557-5.053 6.169l-21.173 3.926a6.609 6.609 0 0 1-5.293-1.2 4.652 4.652 0 0 1-1.579-2.215 3.835 3.835 0 0 1-.132-.5 4.733 4.733 0 0 1 1.076-3.9 5.775 5.775 0 0 1 .692-.75 6.81 6.81 0 0 1 3.277-1.547z" class="prefix__cls-7" data-name="Path 387" transform="translate(-82.601 -27.041)"/>
            <path id="prefix__Path_388" d="M140.117 95.6H129.57a7.354 7.354 0 0 1 .3-1.751l6.329-20.6c.99-3.228 4.006-5.2 6.735-4.389s4.126 4.1 3.136 7.331z" class="prefix__cls-7" data-name="Path 388" transform="translate(-55.423 -29.373)"/>
            <path id="prefix__Path_389" d="M235.44 49.457c-1.551 3.285-.618 7.09 2.089 8.5s6.157-.109 7.714-3.393a7.742 7.742 0 0 0 .727-2.861l3.9-20.332L247.205 30 236.23 48.146a8.47 8.47 0 0 0-.79 1.31z" class="prefix__cls-9" data-name="Path 389" transform="translate(-100.387 -12.828)"/>
            <path id="prefix__Path_390" d="M244.48 41.445L251.393 30l2.69 1.4-3.09 16.1a12.225 12.225 0 0 1-6.513-6.055z" class="prefix__cls-9" data-name="Path 390" transform="translate(-104.575 -12.828)"/>
            <path id="prefix__Path_391" d="M251.177 21.753l3.382-.807-1.247-10.209-3.732-5.047-2.4.715 2.289 5.86.029 5.236L247.8 15.2l-.939-3.977-1.362.052 1.122 5.929z" class="prefix__cls-9" data-name="Path 391" transform="translate(-105.011 -2.429)"/>
            <path id="prefix__Path_392" d="M294.471 197.759l22.982 25.362c3.594 3.977 4.006 9.316.984 11.886s-8.492 1.419-12.086-2.558L283.386 207.1a10.671 10.671 0 0 1-2.976-7.788.16.16 0 0 1 0-.051 5.974 5.974 0 0 1 1.454-3.531 5.564 5.564 0 0 1 .526-.509 6.752 6.752 0 0 1 5.837-1.173 9.833 9.833 0 0 1 1.476.441 12.28 12.28 0 0 1 4.767 3.273z" class="prefix__cls-11" data-name="Path 392" transform="translate(-119.933 -82.914)"/>
            <path id="prefix__Path_393" d="M233.512 309.632l-8.773-3.342-.469 3.342z" class="prefix__cls-12" data-name="Path 393" transform="translate(-95.93 -131.009)"/>
            <path id="prefix__Path_394" d="M268.239 305.906l-.349-5.133-.217-3.193-7.485 2.06-22.747 6.266z" class="prefix__cls-12" data-name="Path 394" transform="translate(-101.563 -127.283)"/>
            <path id="prefix__Path_395" d="M263.7 256.6q.132-1.087.24-2.232c1.03-9.969 1.866-22.553 3.153-29.185.647-3.3 1.4-6.741 2.031-10.18.16-.87.32-1.717.458-2.6.172-1.07.326-2.129.452-3.187.057-.475.109-.961.166-1.442.029-.349.063-.692.092-1.053a33.85 33.85 0 0 0-.423-9.545 20.531 20.531 0 0 0-.744-2.661c-1.6-4.441-4.813-8.109-10.65-10.449L258.3 184l-.217-.092c-.624-.24-1.27-.458-1.951-.664-.572-.183-1.179-.338-1.774-.469s-1.236-.235-1.854-.309a19.422 19.422 0 0 0-4.223-.092 17.345 17.345 0 0 0-4.246.9c-.315.1-.629.217-.933.343a11.832 11.832 0 0 0-1.185.572 15.4 15.4 0 0 0-1.448.87 13.382 13.382 0 0 0-2.335 2 12.126 12.126 0 0 0-2.972 5.941c-.383 1.288-.944 3.805-1.642 7.153-.166.876-.361 1.808-.572 2.787-.338 1.717-.7 3.537-1.076 5.488-.286 1.482-.572 3.039-.893 4.63-.16.858-.32 1.717-.492 2.6l-.979 5.253c-.572 2.93-1.093 5.929-1.642 8.921-1.814 9.952-3.571 19.829-4.8 26.776z" data-name="Path 395" transform="translate(-95.417 -77.973)" style="fill:#e8664e"/>
            <path id="prefix__Path_396" d="M278.1 169.122q-.086-.8-.206-1.682l-3.537.2c.029.361.057.7.08 1.03q1.84.23 3.663.452z" class="prefix__cls-14" data-name="Path 396" transform="translate(-117.356 -71.617)"/>
            <path id="prefix__Path_397" d="M243.551 256.584a20.447 20.447 0 0 0 9.883-17.814l-.95-56.333a19.421 19.421 0 0 0-4.223-.092 17.343 17.343 0 0 0-4.246.9c-.315.1-.629.217-.933.343a11.84 11.84 0 0 0-1.185.572 15.392 15.392 0 0 0-1.448.87 13.38 13.38 0 0 0-2.335 2 12.126 12.126 0 0 0-2.953 5.951c-.383 1.288-.944 3.806-1.642 7.153-.166.876-.361 1.808-.572 2.787-.338 1.717-.7 3.537-1.076 5.488-.286 1.482-.572 3.039-.893 4.63-.16.858-.32 1.717-.492 2.6l-.979 5.253c-.572 2.93-1.093 5.929-1.642 8.921-1.814 9.952-3.571 19.829-4.8 26.776z" class="prefix__cls-15" data-name="Path 397" transform="translate(-95.417 -77.961)"/>
            <path id="prefix__Path_398" d="M287.032 257.336h2.4c1.019-10.346 1.877-22.936 3.176-29.7.681-3.5 1.465-7.142 2.129-10.781.172-.921.332-1.837.481-2.758.183-1.145.343-2.255.469-3.376.069-.5.114-1.013.177-1.522.034-.372.069-.738.092-1.116a35.9 35.9 0 0 0-.446-10.112 21.965 21.965 0 0 0-.773-2.815c-1.677-4.7-5.053-8.584-11.176-11.062l-.183-.063a9.4 9.4 0 0 0-1.316 4.984l1.019 60.808a9.488 9.488 0 0 0 3.951 7.513z" class="prefix__cls-15" data-name="Path 398" transform="translate(-120.648 -78.713)"/>
            <path id="prefix__Path_399" d="M277.67 171.28c-.074-.933-.217-2.329-.423-3.84l-3.537.2c.069.9.137 1.717.183 2.335a25.528 25.528 0 0 1-1.053 9.276 1.949 1.949 0 0 0 .046.263c.876-1.688 1.98-2.707 3.239-2.775s2.529.83 3.674 2.466a27.639 27.639 0 0 1-2.129-7.925z" class="prefix__cls-16" data-name="Path 399" transform="translate(-116.706 -71.617)"/>
            <path id="prefix__Path_400" d="M276.387 190.535a4.436 4.436 0 0 1-1.1-.074h-.034a4.006 4.006 0 0 1-3.2-3.485 3.611 3.611 0 0 1 .864-2.6 4.006 4.006 0 0 1 2.346-1.345 5.65 5.65 0 0 1 .572-.063 4.223 4.223 0 0 1 2.861.887 3.221 3.221 0 0 1 .481.446 3.657 3.657 0 0 1 .979 2.215 3.846 3.846 0 0 1-3.76 4.023z" class="prefix__cls-16" data-name="Path 400" transform="translate(-116.361 -78.254)"/>
            <path id="prefix__Path_401" d="M343.753 241.219l-8.647-26.719-4.5-.2-1.316 29.757a9.9 9.9 0 0 0-.1 2.026c.286 4.784 4.006 8.4 8.286 8.08s7.542-4.452 7.256-9.236a9.351 9.351 0 0 0-.979-3.708z" class="prefix__cls-17" data-name="Path 401" transform="translate(-140.802 -91.661)"/>
            <path id="prefix__Path_402" d="M279.119 146l-3.434 2.129a.607.607 0 0 1-.807-.155l-.172-.24a.521.521 0 0 1 .154-.75l3.434-2.129a.612.612 0 0 1 .807.149l.172.246a.521.521 0 0 1-.155.75z" data-name="Path 402" transform="translate(-117.462 -61.916)" style="fill:#d39933"/>
            <path id="prefix__Path_403" d="M293.69 158.37h-.4a1.591 1.591 0 0 1-1.717-1.408l-.223-2.861a1.528 1.528 0 0 1 1.488-1.585h.4a1.6 1.6 0 0 1 1.717 1.408l.223 2.861a1.528 1.528 0 0 1-1.488 1.585z" class="prefix__cls-16" data-name="Path 403" transform="translate(-124.622 -65.231)"/>
            <path id="prefix__Path_404" d="M270.019 160.054h-.406a1.6 1.6 0 0 1-1.717-1.4l-.217-2.861a1.516 1.516 0 0 1 1.482-1.585h.406a1.585 1.585 0 0 1 1.717 1.4l.217 2.861a1.517 1.517 0 0 1-1.482 1.585z" class="prefix__cls-16" data-name="Path 404" transform="translate(-114.497 -65.953)"/>
            <path id="prefix__Path_405" d="M281.029 157.724c-3.365.8-7.674-.876-8.4-4.881l-.916-12.017a5.952 5.952 0 0 1 5.814-6.2 6.245 6.245 0 0 1 6.7 5.494s.91 11.983.916 12.017a5.075 5.075 0 0 1-4.114 5.587z" data-name="Path 405" transform="translate(-116.219 -57.575)" style="fill:#edc59c"/>
            <path id="prefix__Path_406" d="M281.029 157.724c-3.365.8-7.674-.876-8.4-4.881l-.916-12.017a5.952 5.952 0 0 1 5.814-6.2 6.245 6.245 0 0 1 6.7 5.494s.91 11.983.916 12.017a5.075 5.075 0 0 1-4.114 5.587z" class="prefix__cls-16" data-name="Path 406" transform="translate(-116.219 -57.575)"/>
            <path id="prefix__Path_407" d="M271.827 142.489h12.59c-.109-1.425-.183-2.426-.183-2.426a6.215 6.215 0 0 0-6.7-5.494 5.976 5.976 0 0 0-5.814 6.2z" class="prefix__cls-7" data-name="Path 407" transform="translate(-116.219 -57.55)"/>
            <path id="prefix__Path_408" d="M285.4 160.48h-12.59l.263 3.434c.721 4.006 5.03 5.677 8.395 4.881a5.042 5.042 0 0 0 4.12-5.591c.012-.034-.08-1.167-.188-2.724z" class="prefix__cls-10" data-name="Path 408" transform="translate(-116.693 -68.64)"/>
            <path id="prefix__Path_409" d="M283 162.309a2.6 2.6 0 0 0 2.564 2.169 2.667 2.667 0 0 0 2.289-2.518z" class="prefix__cls-14" data-name="Path 409" transform="translate(-121.051 -69.273)"/>
            <path id="prefix__Path_410" d="M229.646 202.231l-15.663 25.752c-2.455 4.006-6.987 5.688-10.077 3.68s-3.622-6.93-1.145-10.964l15.657-25.752a9.225 9.225 0 0 1 5.951-4.418h.046a5.722 5.722 0 0 1 3.485.406 5.842 5.842 0 0 1 .572.326 6.255 6.255 0 0 1 2.667 4.727 9.025 9.025 0 0 1 .034 1.368 10.358 10.358 0 0 1-1.528 4.876z" class="prefix__cls-17" data-name="Path 410" transform="translate(-86.062 -81.446)"/>
            <path id="prefix__Path_411" d="M213.1 241.442c-4.006-2.524-9.087-1.648-11.365 1.951s-.887 8.584 3.107 11.09a9.288 9.288 0 0 0 3.559 1.328v.029l25.683 7.68 2.26-3.577-21.677-17.259a9.551 9.551 0 0 0-1.568-1.242z" class="prefix__cls-11" data-name="Path 411" transform="translate(-85.821 -102.654)"/>
            <path id="prefix__Path_412" d="M259.265 271.233l-1.745 4.589 11.794 5.963 8.223-.738 1.087-3.365-7.977-1.568-5.579-3.783 3.754-.32 4.939 1.791 1-1.654-7.159-3z" class="prefix__cls-16" data-name="Path 412" transform="translate(-110.153 -115.123)"/>
            <path id="prefix__Path_413" d="M267.485 174.13l-7.806 9.814 3.645 3.514-5.145 6.3 9.625 17.088z" class="prefix__cls-10" data-name="Path 413" transform="translate(-110.435 -74.478)"/>
            <path id="prefix__Path_414" d="M282.3 178.69l7.806 9.814-3.645 3.514 5.145 6.306-8.806 14.261z" class="prefix__cls-10" data-name="Path 414" transform="translate(-120.752 -76.429)"/>
            <circle id="prefix__Ellipse_26" cx=".767" cy=".767" r=".767" class="prefix__cls-14" data-name="Ellipse 26" transform="translate(151.648 107.898)"/>
            <circle id="prefix__Ellipse_27" cx=".767" cy=".767" r=".767" class="prefix__cls-14" data-name="Ellipse 27" transform="translate(150.366 119.04)"/>
            <circle id="prefix__Ellipse_28" cx=".767" cy=".767" r=".767" class="prefix__cls-14" data-name="Ellipse 28" transform="translate(165.966 110.685)"/>
            <path id="prefix__Path_415" d="M294.584 213.257a.761.761 0 1 1-.221-.542.767.767 0 0 1 .221.542z" class="prefix__cls-14" data-name="Path 415" transform="translate(-125.35 -90.887)"/>
            <path id="prefix__Path_416" d="M330.013 208.725l4.9.092 1.642-13.116-3.474-7.491-3.531.109 1.219 8.04-1.682 6.529-1.568-3.428.017-5.253-1.888-.378-.412 7.748z" class="prefix__cls-16" data-name="Path 416" transform="translate(-139.119 -80.501)"/>
            <path id="prefix__Path_417" d="M296.549 147.346h-21.174a.721.721 0 0 1-.715-.721.715.715 0 0 1 .715-.715h21.173a.721.721 0 0 1 .721.715.727.727 0 0 1-.72.721z" class="prefix__cls-7" data-name="Path 417" transform="translate(-117.484 -62.408)"/>
            <path id="prefix__Path_418" d="M264.92 304.83H35.68a2.315 2.315 0 1 0 0 4.63h229.24a2.315 2.315 0 0 0 0-4.63z" class="prefix__cls-7" data-name="Path 418" transform="translate(-14.272 -130.385)"/>
            <rect id="prefix__Rectangle_105" width="57.054" height="77.472" data-name="Rectangle 105" rx="8.73" transform="translate(26.495 80.996)" style="fill:#f9a993"/>
            <path id="prefix__Path_419" d="M103.8 269.255A16.281 16.281 0 0 0 88.8 259a15.842 15.842 0 0 0-3.474.389V259a17.182 17.182 0 0 0-1.866.933 16.521 16.521 0 0 0-9.643 9.3z" data-name="Path 419" transform="translate(-31.576 -110.781)" style="fill:#1c231d"/>
            <path id="prefix__Path_420" d="M84.553 271.2a22.249 22.249 0 0 0-3.176-5.579c-1.047-1.4-1.631-2.381-3.485-1.986A15.216 15.216 0 0 0 67.9 271.2z" class="prefix__cls-22" data-name="Path 420" transform="translate(-29.044 -112.726)"/>
            <path id="prefix__Path_421" d="M118.835 272.325a13.281 13.281 0 0 0-8.1-6.06c-1.66-.389-2.18.572-3.119 1.963a24.848 24.848 0 0 0-2.289 4.1z" class="prefix__cls-22" data-name="Path 421" transform="translate(-45.054 -113.851)"/>
            <path id="prefix__Path_422" d="M107.219 157.6v-.04a.235.235 0 0 0 0-.063 4.092 4.092 0 0 0-2.9-3.891 4.1 4.1 0 0 0 1.448-4.641 4.086 4.086 0 0 0-4.006-2.741 4.092 4.092 0 0 0-.143-4.853 4.1 4.1 0 0 0-4.681-1.293 4.086 4.086 0 0 0-6.552-4.252 4.086 4.086 0 0 0-7.582-1.894 4.086 4.086 0 0 0-7.777.67 4.086 4.086 0 0 0-7.147 3.159 4.08 4.08 0 0 0-5.723 5.3 4.086 4.086 0 0 0-3.7 6.867 4.08 4.08 0 0 0-1.27 7.7 4.086 4.086 0 0 0 1.3 7.7 4.092 4.092 0 0 0-.658 4.83 4.086 4.086 0 0 0 4.4 2.049 4.086 4.086 0 0 0 5.723 5.282 4.086 4.086 0 0 0 7.159 3.13 4.086 4.086 0 0 0 3.674 3.193h.316a4.063 4.063 0 0 0 3.788-2.569 4.08 4.08 0 0 0 7.548-1.911 4.086 4.086 0 0 0 6.541-4.275 4.086 4.086 0 0 0 4.79-6.163 4.086 4.086 0 0 0 4.006-2.758 4.08 4.08 0 0 0-1.471-4.63 4.092 4.092 0 0 0 2.913-3.909z" class="prefix__cls-10" data-name="Path 422" transform="translate(-23.487 -56.192)"/>
            <path id="prefix__Path_423" d="M41.416 181.748l-1.843 1.568v.132c.835.99-3.039 14.787-3.279 15.817-.921 3.954-.326 9.1 3.434 11.027a7.148 7.148 0 0 0 2.249.692c-.12 0 .057-4.744.063-5.248l.309-21.8v-.269l.04-2.775z" class="prefix__cls-23" data-name="Path 423" transform="translate(-15.361 -77.37)"/>
            <path id="prefix__Path_424" d="M69.655 228.5s-25.889 3.657-28.945-.876l1.253-3.571 2.152-.074c5.826-.177 21.648-.635 24.269-.389z" class="prefix__cls-23" data-name="Path 424" transform="translate(-17.413 -95.603)"/>
            <path id="prefix__Path_425" d="M93.313 254.187a5.917 5.917 0 0 0 .28-2.587h4.858c-.521 3.491.835 4.887 2.255 5.2l-9.8.635a4.006 4.006 0 0 0 2.4-3.25z" data-name="Path 425" transform="translate(-38.886 -107.616)" style="fill:#ffb980"/>
            <path id="prefix__Path_426" d="M98.537 188.317l-4.223-.137v.2a19.8 19.8 0 0 1 .979 7.914 11.193 11.193 0 0 1-1.717 6c-.189.155-.109 2.615 3.113 2.718a6.032 6.032 0 0 0 4.727-1.631c-3.516-4.597-4.962-10.074-2.879-15.064z" class="prefix__cls-23" data-name="Path 426" transform="translate(-40.001 -80.488)"/>
            <path id="prefix__Path_427" d="M82.627 225.453c.9 3.308 3.76 4.189 5.27 6.192a.269.269 0 0 1 .28.092 4.869 4.869 0 0 1 .681.95 5.94 5.94 0 0 1 .681 2.192 40.1 40.1 0 0 0 4.853-.063 4.876 4.876 0 0 1 1.408-2.466 39.045 39.045 0 0 1 3.514-2.861 15.01 15.01 0 0 0 5.019-9.322 3.828 3.828 0 0 0-.641-2.993c-1.1-1.431-3.325-1.923-5.351-2.741a7.439 7.439 0 0 1-3.107-2.072 10.558 10.558 0 0 1-6.684.04c-.8 1.717-4.647 2.386-6.043 3.559-2.117 1.785-.618 6.786.12 9.493z" class="prefix__cls-25" data-name="Path 427" transform="translate(-34.827 -90.831)"/>
            <path id="prefix__Path_428" d="M101.45 180.57a1.717 1.717 0 0 1 2.484.681" class="prefix__cls-26" data-name="Path 428" transform="translate(-43.395 -77.113)"/>
            <path id="prefix__Path_429" d="M91.6 179.87a1.717 1.717 0 0 0-2.484.681" class="prefix__cls-26" data-name="Path 429" transform="translate(-38.121 -76.813)"/>
            <path id="prefix__Path_430" d="M105.379 188.345a1.145 1.145 0 1 1-1.145-1.145 1.144 1.144 0 0 1 1.145 1.145z" class="prefix__cls-27" data-name="Path 430" transform="translate(-44.096 -80.069)"/>
            <path id="prefix__Path_431" d="M86.47 177.29c0 .366.034.732.046 1.1.051 1.379.057 2.758.08 4.137a2.289 2.289 0 0 0 0 .28 3.651 3.651 0 0 0 1.219 2.243 4.4 4.4 0 0 0 .526.429 7.971 7.971 0 0 0 4.759 1.351l1.11-.029a6.627 6.627 0 0 0 4.532-1.717 4.443 4.443 0 0 0 .361-.372c.114-.143.229-.275.326-.423a4.436 4.436 0 0 0 .464-.807 3.942 3.942 0 0 0 .235-.572c.046-.137.086-.28.12-.418a9.345 9.345 0 0 0 .235-2.506.218.218 0 0 0 0-.086v-.252c0-.647-.057-1.3-.069-1.951v-.8c0-1.688-.069-3.64-1.356-4.956a4.131 4.131 0 0 0-.412-.361 7.5 7.5 0 0 0-4.721-1.316h-1.51a1.649 1.649 0 0 0-.406.034c-.137.034-.275.029-.406.052-.275.046-.572.1-.818.16a6.077 6.077 0 0 0-3.731 2.461 4.1 4.1 0 0 0-.618 1.9 15.021 15.021 0 0 0 .034 2.419z" class="prefix__cls-23" data-name="Path 431" transform="translate(-36.958 -72.826)"/>
            <path id="prefix__Path_432" d="M99.792 192.86a2.163 2.163 0 0 1-4.292 0z" class="prefix__cls-28" data-name="Path 432" transform="translate(-40.85 -82.49)"/>
            <path id="prefix__Path_433" d="M81.289 245.831a21.648 21.648 0 0 1-2.289 5.54h24.733c-1.391-2.8-3.714-5.568-4.378-8.693-1.019-4.813 2.861-11.668 2.8-14.776L86.136 217.19c-9.425.835-7 10.341-5.019 17.551a22.386 22.386 0 0 1 .172 11.09z" class="prefix__cls-25" data-name="Path 433" transform="translate(-33.792 -92.897)"/>
            <path id="prefix__Path_434" d="M75.155 208.861a4.773 4.773 0 0 0-4.006-1.8 3.169 3.169 0 0 0-2.861 3.016 7.551 7.551 0 0 0 1.07 2.8 2.735 2.735 0 0 1 0 2.861c-.572.681-1.551.778-2.289 1.225a2.753 2.753 0 0 0 2.4 4.933 5.98 5.98 0 0 0-.469 4.24 3.548 3.548 0 0 0 3.17 2.558c1.585 0 2.861-1.265 3.868-2.472a2.289 2.289 0 0 0 .572-.91 2.529 2.529 0 0 0-.086-1.11c-.572-2.627-1.225-6.043-.492-8.693.651-2.419.955-4.479-.877-6.648z" class="prefix__cls-25" data-name="Path 434" transform="translate(-28.11 -88.563)"/>
            <path id="prefix__Path_435" d="M95.837 272.431h4.034l2.375-1.854a2.06 2.06 0 0 0 .355-2.861l-.4-.515a2.054 2.054 0 0 0-2.861-.349l-3.268 2.548a2.06 2.06 0 0 0-.349 2.861z" class="prefix__cls-23" data-name="Path 435" transform="translate(-40.763 -113.957)"/>
            <path id="prefix__Path_436" d="M94.569 276.059l.532-.412a.414.414 0 1 0-.509-.652l-1.362 1.064z" class="prefix__cls-23" data-name="Path 436" transform="translate(-39.879 -117.585)"/>
            <path id="prefix__Path_437" d="M91.059 274.275l3.605-2.815a.412.412 0 0 0-.509-.647l-4.435 3.462z" class="prefix__cls-23" data-name="Path 437" transform="translate(-38.377 -115.801)"/>
            <path id="prefix__Path_438" d="M95.8 269.188c.715-1.631-1.825-.715-2.564-.423-.99.395-2.072 1.293-3.062.658 1.585-.881 3.308-1.585 4.921-2.363 1.11-.532 3.159-1.454 4.115-.406" class="prefix__cls-23" data-name="Path 438" transform="translate(-38.57 -113.85)"/>
            <path id="prefix__Path_439" d="M104.18 270.679c-.681-4.693-5.036-8.349-10.3-8.349H81.651a10.22 10.22 0 0 0-10.3 8.349z" class="prefix__cls-22" data-name="Path 439" transform="translate(-30.52 -112.205)"/>
            <path id="prefix__Path_440" d="M122.326 251.77v-30.782a2.6 2.6 0 1 0-5.2 0v30.782z" class="prefix__cls-23" data-name="Path 440" transform="translate(-50.102 -93.41)"/>
            <path id="prefix__Path_441" d="M107.47 212.392a3.316 3.316 0 0 0 3.594-.818 32.636 32.636 0 0 0 2.461-3.056 4.089 4.089 0 0 1 3.376-1.682c1.545.189 2.564 1.717 3.187 3.113a3.072 3.072 0 0 1 .149 2.9 6.2 6.2 0 0 1-1.339 1.145 1.385 1.385 0 0 0-.572 1.522c.235.515.893.652 1.345 1a1.814 1.814 0 0 1 .526 2.037 2.289 2.289 0 0 1-1.665 1.373c-.71.155-1.625.109-1.934.767-.378.79.572 1.516 1 2.289a2.386 2.386 0 0 1-.607 2.781 3.783 3.783 0 0 1-2.861.83 2.793 2.793 0 0 1-2.13-1.073 4.326 4.326 0 0 1-.366-2.438 13.683 13.683 0 0 0-3.176-8.927" class="prefix__cls-25" data-name="Path 441" transform="translate(-45.97 -88.46)"/>
            <path id="prefix__Path_442" d="M43.044 177.711l-2.363.618-2.621-6.753.64-4.376 1.728-.355.532 4.4 1.717 3.262.286-2-.738-2.781.864-.418 1.276 4.052z" class="prefix__cls-23" data-name="Path 442" transform="translate(-16.28 -71.364)"/>
            <path id="prefix__Path_443" d="M351.1 48.142c-.961-2.037-3.806-2.289-6.112-2.123a22.465 22.465 0 0 0-9.07 2.106c-2.747 1.465-4.979 4.166-5.024 7.21 0 1.436.406 2.993-.315 4.246s-2.426 1.717-3.886 2.215-3.067 1.408-3.136 2.9c-.086 1.768 2.077 3.485 1.145 4.99-.687 1.087-2.329.9-3.588 1.27a3.577 3.577 0 0 0-2.518 3.708h43.062a6.005 6.005 0 0 0-2.409-3.25c-.99-.7-2-1.768-1.717-2.924a6.428 6.428 0 0 1 .933-1.545 3.433 3.433 0 0 0-.5-4.092 20.342 20.342 0 0 0-2.009-1.448 2.3 2.3 0 0 1-1.053-2.077c.172-.91 1.179-1.482 1.431-2.375a2.922 2.922 0 0 0-1.145-2.609 6.467 6.467 0 0 1-1.989-2.254 10.818 10.818 0 0 1-.246-2.323 2.232 2.232 0 0 0-1.854-1.625z" data-name="Path 443" transform="translate(-136.27 -19.662)" style="fill:#d59a72"/>
            <path id="prefix__Path_444" d="M364.4 145.912v-4.16a12.773 12.773 0 0 0-12.63-12.841 12.778 12.778 0 0 0-12.635 12.841v4.16z" class="prefix__cls-6" data-name="Path 444" transform="translate(-145.065 -55.136)"/>
            <path id="prefix__Path_445" d="M287.559 103.58a6.847 6.847 0 0 0-.761 2.123s12.59 19.709 23 15.823a9.8 9.8 0 0 0 2.289-1.145z" class="prefix__cls-30" data-name="Path 445" transform="translate(-122.674 -44.301)"/>
            <path id="prefix__Path_446" d="M308.028 119.71l12.1 7.554a9.8 9.8 0 0 1-2.289 1.145c-5.4 2.014-9.07-.979-12.252-4.824z" class="prefix__cls-31" data-name="Path 446" transform="translate(-130.714 -51.201)"/>
            <path id="prefix__Path_447" d="M325.56 111.8s3.153-22.8 11.268-24.035l.109 9.5s-9.236 12.635-8.143 16.544z" class="prefix__cls-31" data-name="Path 447" transform="translate(-139.256 -37.539)"/>
            <path id="prefix__Path_448" d="M285.254 97.837l-2.112 1.236-4.332-5.8-.561-4.383 1.574-.807 1.688 4.1 2.535 2.678-.263-2-1.459-2.484.715-.635 2.323 3.565z" class="prefix__cls-30" data-name="Path 448" transform="translate(-119.02 -37.671)"/>
            <path id="prefix__Path_449" d="M353.932 123.351a5.642 5.642 0 0 0 .286-2.581h4.99c-.532 3.479.858 4.87 2.323 5.185l-10.072.635a4.006 4.006 0 0 0 2.472-3.239z" class="prefix__cls-32" data-name="Path 449" transform="translate(-150.335 -51.654)"/>
            <path id="prefix__Path_450" d="M359.318 57.7l-4.343-.137v.2a19.278 19.278 0 0 1 1 7.886 10.872 10.872 0 0 1-1.751 5.98c-.195.155-.109 2.6 3.2 2.712a6.285 6.285 0 0 0 4.858-1.631c-3.634-4.598-5.104-10.04-2.964-15.01z" class="prefix__cls-30" data-name="Path 450" transform="translate(-151.491 -24.616)"/>
            <path id="prefix__Path_451" d="M342.953 94.754c.927 3.3 5.62 6.169 5.723 6.295a4.716 4.716 0 0 1 .7.944 5.756 5.756 0 0 1 .692 2.186 42.4 42.4 0 0 0 4.99-.063 4.8 4.8 0 0 1 1.448-2.455 40.586 40.586 0 0 1 3.611-2.861 14.833 14.833 0 0 0 5.15-9.248 3.743 3.743 0 0 0-.652-2.987c-1.145-1.425-3.434-1.917-5.5-2.73a7.616 7.616 0 0 1-3.2-2.066 11.216 11.216 0 0 1-6.867.04c-.824 1.717-4.778 2.381-6.215 3.548-2.18 1.695-.641 6.702.12 9.397z" class="prefix__cls-31" data-name="Path 451" transform="translate(-146.166 -34.972)"/>
            <path id="prefix__Path_452" d="M362.3 49.982a1.8 1.8 0 0 1 2.552.675" class="prefix__cls-33" data-name="Path 452" transform="translate(-154.972 -21.256)"/>
            <path id="prefix__Path_453" d="M352.177 49.285a1.8 1.8 0 0 0-2.547.681" class="prefix__cls-33" data-name="Path 453" transform="translate(-149.552 -20.96)"/>
            <path id="prefix__Path_454" d="M366.33 57.724a1.185 1.185 0 1 1-1.185-1.145 1.145 1.145 0 0 1 1.185 1.145z" class="prefix__cls-27" data-name="Path 454" transform="translate(-155.682 -24.197)"/>
            <path id="prefix__Path_455" d="M391.231 112.012s-8.813-24.922-15.171-24.693l2.621 10.69s10.426 12.326 10.73 16.922z" class="prefix__cls-31" data-name="Path 455" transform="translate(-160.857 -37.345)"/>
            <path id="prefix__Path_456" d="M391.231 112.012s-8.813-24.922-15.171-24.693l2.621 10.69s10.426 12.326 10.73 16.922z" class="prefix__cls-31" data-name="Path 456" transform="translate(-160.857 -37.345)"/>
            <path id="prefix__Path_457" d="M346.936 46.715c0 .372.034.738.052 1.1.052 1.373.057 2.747.08 4.126a2.368 2.368 0 0 0 0 .28 3.611 3.611 0 0 0 1.253 2.232 5.059 5.059 0 0 0 .538.429 8.424 8.424 0 0 0 4.893 1.339h1.148a6.93 6.93 0 0 0 4.658-1.717 5.448 5.448 0 0 0 .71-.8 4.831 4.831 0 0 0 .475-.8 5.6 5.6 0 0 0 .24-.572c.046-.143.086-.28.126-.418a9.326 9.326 0 0 0 .24-2.5.189.189 0 0 0 0-.08v-.252c0-.647-.063-1.3-.074-1.946v-.8c0-1.682-.074-3.628-1.4-4.939a4.192 4.192 0 0 0-.418-.361 7.92 7.92 0 0 0-4.853-1.31h-1.551l-.418.034a1.165 1.165 0 0 0-.418.052c-.28.04-.572.1-.841.16a6.3 6.3 0 0 0-3.868 2.409 4.006 4.006 0 0 0-.635 1.894 14.877 14.877 0 0 0 .063 2.426z" class="prefix__cls-32" data-name="Path 457" transform="translate(-148.363 -16.993)"/>
            <path id="prefix__Path_458" d="M357.776 62a1.505 1.505 0 0 1-2.976 0z" class="prefix__cls-28" data-name="Path 458" transform="translate(-151.763 -26.516)"/>
            <path id="prefix__Path_459" d="M369.066 129.073c5.579-2.438 11.445-4.681 15.823.486a9.374 9.374 0 0 1 1.408 2.106L359.79 133.7z" class="prefix__cls-31" data-name="Path 459" transform="translate(-153.898 -54.074)"/>
            <path id="prefix__Path_460" d="M373.631 59.134a1.625 1.625 0 1 1-1.619-1.574 1.6 1.6 0 0 1 1.619 1.574z" class="prefix__cls-30" data-name="Path 460" transform="translate(-158.428 -24.616)"/>
            <path id="prefix__Path_461" d="M329.718 102.911a6.959 6.959 0 0 1-.67 3.388 2.5 2.5 0 0 1-2.936 1.265c-1.076-.452-1.471-1.751-1.717-2.861-2.289 2.953-2.753 7.085-5.225 9.9a10.579 10.579 0 0 1-8.761 3.256 10.747 10.747 0 0 1-6.575-2.815 8.011 8.011 0 0 1-2.472-6.581 4.38 4.38 0 0 1 2.667-3.731c2.764-.87 5.316 2.289 8.206 2.192a4.7 4.7 0 0 0 4.165-4.324 19.793 19.793 0 0 0-.12-2.964c-.269-4.921 3.393-12.241 8.767-13.242 6.211-1.188 4.74 12.683 4.671 16.517z" class="prefix__cls-11" data-name="Path 461" transform="translate(-128.891 -36.92)"/>
            <path id="prefix__Path_462" d="M360.044 90.2a15.091 15.091 0 0 0-.132 5.86 5.957 5.957 0 0 0 3.542 4.406 26.15 26.15 0 0 0 3.863.538c1.282.24 2.644 1.076 2.753 2.375a3.008 3.008 0 0 1-2.07 2.762 25.527 25.527 0 0 0-3.388 1.4c-2.964 1.929-2.547 6.627-.372 9.408 4.183 5.345 12.538 5.791 18.57 2.684a11.363 11.363 0 0 0 5.282-4.956c1.557-3.353.469-7.382-1.4-10.575s-4.469-5.917-6.261-9.156c-1.551-2.81-2.512-6.026-4.778-8.292s-7.353-4.487-10.615-3.926c-3.381.586-4.497 4.506-4.994 7.472z" class="prefix__cls-11" data-name="Path 462" transform="translate(-153.848 -35.343)"/>
            <path id="prefix__Path_463" d="M336.915 39.269a6.764 6.764 0 0 1-3.388 5.677c-1.3.744-2.981 1.145-3.662 2.489s0 2.907.572 4.286 1.013 3.113 0 4.235a11.236 11.236 0 0 1-2.169 1.373 3.611 3.611 0 0 0-1.488 3.548c.355 1.883 2.123 3.125 3.565 4.429s2.735 3.3 1.86 5.013c-.223.429-.572.8-.767 1.242-.715 1.671.956 3.342 2.449 4.429v.526l-31.228-.526c1.328 0 2.249-2.2 2.289-3.491a9.67 9.67 0 0 0-1.042-3.7 5.5 5.5 0 0 1-.435-3.76c.692-1.974 3.13-2.735 5.259-3.056a4.235 4.235 0 0 0 1.866-.572c1.322-.938.956-2.947.183-4.349s-1.837-2.861-1.494-4.418 1.951-2.461 3.508-2.861a28.244 28.244 0 0 0 4.675-1.11 2.381 2.381 0 0 0 1.253-1.064c.572-1.248-.807-2.787-.154-4.006.727-1.333 2.861-.71 4.3-1.288s1.94-2.232 2.707-3.537a8.012 8.012 0 0 1 6.318-3.788c2.591-.15 3.484 2.254 5.023 4.279z" class="prefix__cls-34" data-name="Path 463" transform="translate(-129.461 -14.961)"/>
            <path id="prefix__Path_464" d="M358.57 38.4a9.419 9.419 0 0 1 10.873-1.837 8.818 8.818 0 0 1 4.395 9.837c-.258.956-.658 2.072-.029 2.861s1.974.641 3.022.9A3.193 3.193 0 0 1 379.119 54c-.469 1.6-2.289 2.827-2.083 4.486.309 2.913 5.986 3.084 5.946 6.009-.029 1.963-2.9 3.622-1.888 5.316.515.864 1.717.984 2.7 1.253s2.054 1.213 1.574 2.094l.4.389-20.761-.389c.486-2.289-3.359-4.006-2.289-6.123a4.669 4.669 0 0 1 1.322-1.293 5.076 5.076 0 0 0 1.059-6.295c-.813-1.351-2.341-2.627-1.911-4.137.458-1.631 2.97-2.169 3.245-3.84.292-1.843-2.386-3.039-2.426-4.9-.034-1.408 1.431-2.976.446-4.006-.521-.572-1.413-.492-2.18-.607-1.821-.328-3.744-1.764-3.703-3.557z" class="prefix__cls-34" data-name="Path 464" transform="translate(-153.376 -15.22)"/>
            <path id="prefix__Path_465" d="M379.847 301.746h-58.994a2.089 2.089 0 0 1-2.083-2.083 2.089 2.089 0 0 1 2.083-2.083h58.994a2.089 2.089 0 0 1 2.083 2.083 2.089 2.089 0 0 1-2.083 2.083z" class="prefix__cls-6" data-name="Path 465" transform="translate(-136.352 -127.283)"/>
            <path id="prefix__Path_466" d="M387.1 279.284h-37.319c-2.93 0-4.761-2.4-4.086-5.356l5.391-23.7a7.088 7.088 0 0 1 6.529-5.351h37.311c2.93 0 4.761 2.4 4.092 5.356l-5.631 26.9c-.652 2.946-3.359 2.151-6.287 2.151z" data-name="Path 466" transform="translate(-147.809 -104.741)" style="fill:#d5d4ff"/>
            <circle id="prefix__Ellipse_29" cx="2.386" cy="2.386" r="2.386" data-name="Ellipse 29" transform="translate(224.548 154.302)" style="stroke:#786992;stroke-miterlimit:10;stroke-width:1.63px;fill:none"/>
            <path id="prefix__Path_467" d="M62.753 89.43H18.907a5.614 5.614 0 0 0-5.6 5.6v23.812l11.84-9.053h37.6a5.62 5.62 0 0 0 5.6-5.6v-9.157a5.62 5.62 0 0 0-5.6-5.6z" data-name="Path 467" transform="translate(-5.693 -38.249)" style="stroke:#fb6304;stroke-width:4.89px;stroke-linecap:round;stroke-linejoin:round;fill:none"/>
            <path id="prefix__Path_468" d="M39.265 107.372a1.677 1.677 0 1 1-.489-1.189 1.682 1.682 0 0 1 .489 1.189z" class="prefix__cls-4" data-name="Path 468" transform="translate(-15.356 -45.204)"/>
            <path id="prefix__Path_469" d="M58.885 107.372a1.677 1.677 0 1 1-.489-1.189 1.682 1.682 0 0 1 .489 1.189z" class="prefix__cls-4" data-name="Path 469" transform="translate(-23.748 -45.204)"/>
            <path id="prefix__Path_470" d="M78.485 107.372a1.677 1.677 0 1 1-.485-1.189 1.682 1.682 0 0 1 .485 1.189z" class="prefix__cls-4" data-name="Path 470" transform="translate(-32.132 -45.204)"/>
            <path id="prefix__Path_471" d="M98.125 107.372a1.677 1.677 0 1 1-.489-1.189 1.682 1.682 0 0 1 .489 1.189z" class="prefix__cls-4" data-name="Path 471" transform="translate(-40.533 -45.204)"/>
            <path id="prefix__Path_472" d="M162.066 172.977a1.391 1.391 0 0 1-1.4-1.4v-23.808a7 7 0 0 1 6.993-7h43.846a7.01 7.01 0 0 1 7 7v9.156a7 7 0 0 1-7 6.993h-37.147l-11.445 8.773a1.413 1.413 0 0 1-.847.286zm5.6-29.408a4.2 4.2 0 0 0-4.195 4.195v20.979l9.562-7.331a1.4 1.4 0 0 1 .853-.292h37.626a4.2 4.2 0 0 0 4.2-4.195v-9.156a4.2 4.2 0 0 0-4.2-4.195z" class="prefix__cls-28" data-name="Path 472" transform="translate(-68.726 -60.209)"/>
            <path id="prefix__Path_473" d="M189.065 161.157a1.682 1.682 0 1 1-1.677-1.677 1.682 1.682 0 0 1 1.677 1.677z" class="prefix__cls-28" data-name="Path 473" transform="translate(-79.432 -68.212)"/>
            <path id="prefix__Path_474" d="M208.685 161.157a1.682 1.682 0 1 1-1.677-1.677 1.683 1.683 0 0 1 1.677 1.677z" class="prefix__cls-28" data-name="Path 474" transform="translate(-87.824 -68.212)"/>
            <path id="prefix__Path_475" d="M228.3 161.157a1.682 1.682 0 1 1-1.677-1.677 1.682 1.682 0 0 1 1.677 1.677z" class="prefix__cls-28" data-name="Path 475" transform="translate(-96.217 -68.212)"/>
            <path id="prefix__Path_476" d="M247.925 161.157a1.682 1.682 0 1 1-1.677-1.677 1.682 1.682 0 0 1 1.677 1.677z" class="prefix__cls-28" data-name="Path 476" transform="translate(-104.609 -68.212)"/>
            <path id="prefix__Path_477" d="M411.1 197.195l-11.445-8.767h-37.146a7 7 0 0 1-7-7v-9.156a7 7 0 0 1 7-6.993h43.846a7 7 0 0 1 6.993 6.993v23.818a1.4 1.4 0 0 1-.778 1.253 1.379 1.379 0 0 1-1.471-.143zm-48.59-29.122a4.2 4.2 0 0 0-4.2 4.195v9.156a4.2 4.2 0 0 0 4.2 4.195h37.626a1.4 1.4 0 0 1 .853.292l9.562 7.336v-20.98a4.2 4.2 0 0 0-4.195-4.195z" class="prefix__cls-4" data-name="Path 477" transform="translate(-152.067 -70.693)"/>
            <circle id="prefix__Ellipse_30" cx="1.682" cy="1.682" r="1.682" class="prefix__cls-4" data-name="Ellipse 30" transform="translate(243.587 105.288)"/>
            <path id="prefix__Path_478" d="M406.05 185.671a1.677 1.677 0 1 0 .5-1.186 1.682 1.682 0 0 0-.5 1.186z" class="prefix__cls-4" data-name="Path 478" transform="translate(-173.685 -78.7)"/>
            <path id="prefix__Path_479" d="M386.43 185.662a1.677 1.677 0 1 0 .489-1.189 1.682 1.682 0 0 0-.489 1.189z" class="prefix__cls-4" data-name="Path 479" transform="translate(-165.293 -78.692)"/>
            <circle id="prefix__Ellipse_31" cx="1.682" cy="1.682" r="1.682" class="prefix__cls-4" data-name="Ellipse 31" transform="translate(209.904 105.288)"/>
            <path id="prefix__Path_480" d="M42.227 249.581a2.707 2.707 0 0 1-2.7 2.7H18.181a2.707 2.707 0 0 1-2.7-2.7 2.707 2.707 0 0 1 2.7-2.7h21.345a2.707 2.707 0 0 1 2.7 2.7z" class="prefix__cls-4" data-name="Path 480" transform="translate(-6.621 -105.597)"/>
            <path id="prefix__Rectangle_106" d="M0 0H7.605V7.605H0z" class="prefix__cls-1" data-name="Rectangle 106" transform="translate(0 99.365)"/>
            <path id="prefix__Rectangle_107" d="M0 0H7.605V7.605H0z" class="prefix__cls-1" data-name="Rectangle 107" transform="translate(264.531 137.581)"/>
            <path id="prefix__Path_481" d="M224.431 118.65a.79.79 0 0 1-.338-.08.773.773 0 0 1-.423-.687v-13.025a3.828 3.828 0 0 1 3.823-3.828H251.5a3.828 3.828 0 0 1 3.823 3.828v5.007a3.828 3.828 0 0 1-3.823 3.828h-20.322l-6.255 4.8a.79.79 0 0 1-.492.157zm3.062-16.086a2.289 2.289 0 0 0-2.289 2.289V116.3l5.23-4.006a.773.773 0 0 1 .469-.16h20.6a2.289 2.289 0 0 0 2.289-2.289v-5.007a2.289 2.289 0 0 0-2.289-2.289z" class="prefix__cls-28" data-name="Path 481" transform="translate(-95.673 -43.21)"/>
            <path id="prefix__Path_482" d="M239.233 112.186a.921.921 0 1 1-.916-.916.921.921 0 0 1 .916.916z" class="prefix__cls-28" data-name="Path 482" transform="translate(-101.542 -47.59)"/>
            <path id="prefix__Path_483" d="M249.963 112.186a.921.921 0 1 1-.916-.916.921.921 0 0 1 .916.916z" class="prefix__cls-28" data-name="Path 483" transform="translate(-106.132 -47.59)"/>
            <path id="prefix__Path_484" d="M260.693 112.186a.921.921 0 1 1-.916-.916.921.921 0 0 1 .916.916z" class="prefix__cls-28" data-name="Path 484" transform="translate(-110.721 -47.59)"/>
            <path id="prefix__Path_485" d="M271.423 112.186a.921.921 0 1 1-.916-.916.921.921 0 0 1 .916.916z" class="prefix__cls-28" data-name="Path 485" transform="translate(-115.311 -47.59)"/>
            <path id="prefix__Path_486" d="M124.785 44.094l-7.067-5.414H94.771a4.326 4.326 0 0 1-4.321-4.32V28.7a4.326 4.326 0 0 1 4.321-4.321h27.079a4.326 4.326 0 0 1 4.32 4.321v14.708a.87.87 0 0 1-.5.784.887.887 0 0 1-.378.086.847.847 0 0 1-.509-.183zM94.771 26.108a2.6 2.6 0 0 0-2.593 2.592v5.66a2.6 2.6 0 0 0 2.592 2.592h23.24a.853.853 0 0 1 .521.177l5.911 4.526V28.7a2.6 2.6 0 0 0-2.592-2.592z" class="prefix__cls-28" data-name="Path 486" transform="translate(-38.689 -10.424)"/>
            <circle id="prefix__Ellipse_32" cx="1.036" cy="1.036" r="1.036" class="prefix__cls-28" data-name="Ellipse 32" transform="translate(76.562 20.571)"/>
            <path id="prefix__Path_487" d="M121.67 36.976a1.042 1.042 0 1 0 1.036-1.036 1.042 1.042 0 0 0-1.036 1.036z" class="prefix__cls-28" data-name="Path 487" transform="translate(-52.044 -15.369)"/>
            <circle id="prefix__Ellipse_33" cx="1.036" cy="1.036" r="1.036" class="prefix__cls-28" data-name="Ellipse 33" transform="translate(62.696 20.571)"/>
            <circle id="prefix__Ellipse_34" cx="1.036" cy="1.036" r="1.036" class="prefix__cls-28" data-name="Ellipse 34" transform="translate(55.761 20.571)"/>
            <path id="prefix__Path_488" d="M178.9 232.9c-.137-2.959-1.837-6.255-.063-8.618 1.505-2.014 4.807-2.077 6.117-4.223.95-1.557.446-3.542.246-5.356-.378-3.376.99-7.439 4.286-8.281a5.15 5.15 0 0 1 5.551 2.524 6.049 6.049 0 0 1-.4 6.209c-1.745 2.541-5.3 3.943-5.808 6.982-.338 2.009.755 4.435-.641 5.917-1.225 1.31-3.708.956-4.641 2.484-.75 1.236.046 2.787.206 4.218a3.6 3.6 0 0 1-2.22 3.84c-4.055 1.219-2.55-3.92-2.633-5.696z" class="prefix__cls-38" data-name="Path 488" transform="translate(-76.154 -88.242)"/>
            <path id="prefix__Path_489" d="M164.075 206.965c-.452 2.054.887 4.006 1.969 5.814s1.923 4.229.629 5.888c-.87 1.145-2.409 1.448-3.634 2.169a5.957 5.957 0 0 0 .235 10.409c2.186 1.145 5.477 1.391 5.957 3.811.366 1.854-1.385 3.434-1.894 5.225a4.585 4.585 0 0 0 2.941 5.311 5.3 5.3 0 0 0 5.871-2.089 6.335 6.335 0 0 0 .263-6.369c-.9-1.717-2.558-3.165-2.747-5.11-.406-4.155 5.974-6.638 5.511-10.787-.229-2.066-2.129-3.5-3.943-4.521-.813-.452-1.717-.99-1.9-1.9-.235-1.2.927-2.146 1.665-3.125a5.288 5.288 0 0 0 .418-5.614c-2.18-3.982-10.225-4.077-11.341.888z" data-name="Path 489" transform="translate(-68.479 -86.895)" style="fill:#29d3ce"/>
            <path id="prefix__Path_490" d="M164.994 248.9c.137-2.953 1.831-6.249.063-8.618-1.511-2.009-4.807-2.077-6.117-4.218-.95-1.557-.452-3.542-.252-5.356.378-3.376-.984-7.439-4.286-8.286a5.15 5.15 0 0 0-5.545 2.529 6.037 6.037 0 0 0 .4 6.209c1.717 2.541 5.3 3.943 5.808 6.976.338 2.014-.761 4.435.635 5.923 1.225 1.3 3.714.95 4.641 2.484.75 1.236-.046 2.781-.2 4.217a3.584 3.584 0 0 0 2.215 3.834c4.063 1.228 2.552-3.911 2.638-5.694z" class="prefix__cls-38" data-name="Path 490" transform="translate(-63.384 -95.087)"/>
            <path id="prefix__Path_491" d="M164.48 270.62v14.163a5.62 5.62 0 0 0 5.6 5.6h6.62a5.62 5.62 0 0 0 5.6-5.6V270.62z" class="prefix__cls-8" data-name="Path 491" transform="translate(-70.355 -115.751)"/>
            <path id="prefix__Path_492" d="M472.42 175.01l6.987 4.927-6.735 6.215z" class="prefix__cls-2" data-name="Path 492" transform="translate(-202.075 -74.855)"/>
            <path id="prefix__Path_493" d="M293.2 28.34l7.531 5.311-7.262 6.7z" class="prefix__cls-28" data-name="Path 493" transform="translate(-125.414 -12.118)"/>
            <path id="prefix__Path_494" d="M332.606 164.9l-4.206 2.959 4.052 3.743z" class="prefix__cls-28" data-name="Path 494" transform="translate(-140.471 -70.53)"/>
            <path id="prefix__Path_495" d="M8.537 278.15l-6.987 4.921 6.735 6.22z" class="prefix__cls-3" data-name="Path 495" transform="translate(-.663 -118.972)"/>
            <path id="prefix__Path_496" d="M68.757 4.09L61.77 9.017l6.735 6.215z" class="prefix__cls-1" data-name="Path 496" transform="translate(-26.422 -1.745)"/>
            <path id="prefix__Path_497" d="M150.737 123.86l-6.987 4.921 6.735 6.22z" class="prefix__cls-1" data-name="Path 497" transform="translate(-61.488 -52.976)"/>
            <path id="prefix__Path_498" d="M366.331 132.193l.652 2.358-6.718 2.712-4.378-.578-.378-1.723 4.389-.589 3.239-1.768-2-.258-2.77.778-.429-.853 4.034-1.333z" class="prefix__cls-30" data-name="Path 498" transform="translate(-152.067 -56.004)"/>
        </g>
    </g>
</svg>
