<svg xmlns="http://www.w3.org/2000/svg" id="prefix__Google__G__Logo" width="17.095" height="17.44" viewBox="0 0 17.095 17.44">
    <path id="prefix__Path_266" d="M280.475 224.872a10.254 10.254 0 0 0-.151-1.772H272.1v3.358h4.71a4.036 4.036 0 0 1-1.743 2.65v2.179h2.81a8.516 8.516 0 0 0 2.598-6.415z" data-name="Path 266" transform="translate(-263.38 -215.951)" style="fill:#4285f4"/>
    <path id="prefix__Path_267" d="M36.692 331.349a8.347 8.347 0 0 0 5.78-2.105l-2.81-2.179A5.289 5.289 0 0 1 31.8 324.3h-2.9v2.246a8.721 8.721 0 0 0 7.792 4.803z" data-name="Path 267" transform="translate(-27.972 -313.909)" style="fill:#34a853"/>
    <path id="prefix__Path_268" d="M3.774 155.585a5.223 5.223 0 0 1 0-3.339V150H.878a8.727 8.727 0 0 0 0 7.831z" data-name="Path 268" transform="translate(.05 -145.193)" style="fill:#fbbc04"/>
    <path id="prefix__Path_269" d="M36.692 3.433a4.739 4.739 0 0 1 3.345 1.307l2.49-2.49a8.381 8.381 0 0 0-5.835-2.268A8.718 8.718 0 0 0 28.9 4.788l2.9 2.246a5.216 5.216 0 0 1 4.892-3.601z" data-name="Path 269" transform="translate(-27.972 .018)" style="fill:#ea4335"/>
</svg>
