<svg xmlns="http://www.w3.org/2000/svg" width="1281.91" height="565.369" viewBox="0 0 1281.91 565.369">
    <defs>
        <style>
            .prefix__cls-1,.prefix__cls-23,.prefix__cls-31{fill:#185177}.prefix__cls-1,.prefix__cls-14,.prefix__cls-6{opacity:.2}.prefix__cls-22,.prefix__cls-25,.prefix__cls-27,.prefix__cls-30,.prefix__cls-32,.prefix__cls-38,.prefix__cls-8{fill:none}.prefix__cls-30{stroke:#185177}.prefix__cls-22,.prefix__cls-25,.prefix__cls-27,.prefix__cls-30,.prefix__cls-32,.prefix__cls-38,.prefix__cls-8{stroke-linecap:round;stroke-linejoin:round}.prefix__cls-3,.prefix__cls-6,.prefix__cls-7{fill:#ffaa3f}.prefix__cls-4{fill:#f3e8e2}.prefix__cls-15,.prefix__cls-7{opacity:.5}.prefix__cls-8{stroke:#ffaa3f}.prefix__cls-22,.prefix__cls-25,.prefix__cls-27,.prefix__cls-30,.prefix__cls-32,.prefix__cls-38,.prefix__cls-8{stroke-width:.7px}.prefix__cls-26,.prefix__cls-9{fill:#cb1c3e}.prefix__cls-21,.prefix__cls-23,.prefix__cls-37,.prefix__cls-9{opacity:.3}.prefix__cls-10{fill:#fe9329}.prefix__cls-11{fill:#d9e7ff}.prefix__cls-12{fill:#fff}.prefix__cls-14,.prefix__cls-18{fill:#346e94}.prefix__cls-15{fill:#d98609}.prefix__cls-16{fill:#56114a}.prefix__cls-17{fill:#0c1a3c}.prefix__cls-19{fill:#93405c}.prefix__cls-20{fill:#439da3}.prefix__cls-21{fill:#378085}.prefix__cls-22{stroke:#378085}.prefix__cls-25{stroke:#fff}.prefix__cls-27{stroke:#56114a}.prefix__cls-28{fill:#ffad91}.prefix__cls-29{fill:#f1624f}.prefix__cls-32{stroke:#d23d1e}.prefix__cls-34{fill:#ff8b61}.prefix__cls-36,.prefix__cls-37{fill:#99162b}.prefix__cls-38{stroke:#99162b}
        </style>
    </defs>
    <g id="prefix__Hero" transform="translate(0 .167)">
        <g id="prefix__Layer_2" data-name="Layer 2" transform="translate(0 -.167)">
            <g id="prefix__OBJECT">
                <path id="prefix__Rectangle_8" d="M0 0H264.156V181.742H0z" class="prefix__cls-1" data-name="Rectangle 8" transform="translate(0 65.672)"/>
                <path id="prefix__Rectangle_9" d="M0 0H264.156V21.291H0z" class="prefix__cls-1" data-name="Rectangle 9" transform="translate(0 226.104)"/>
                <path id="prefix__Path_1" d="M153.065 56.211L98.544 13.169a5.819 5.819 0 0 0-7.164 0L36.86 56.211" data-name="Path 1" transform="translate(37.105 12.351)" style="stroke-width:.98px;stroke-linecap:round;stroke-linejoin:round;stroke:#185177;fill:none;opacity:.2"/>
                <path id="prefix__Path_2" d="M76.035 17.853a6.8 6.8 0 1 1-6.8-6.8 6.8 6.8 0 0 1 6.8 6.8z" class="prefix__cls-3" data-name="Path 2" transform="translate(62.845 11.459)"/>
                <path id="prefix__Rectangle_10" d="M0 0H251.233V168.137H0z" class="prefix__cls-4" data-name="Rectangle 10" transform="translate(6.461 72.455)"/>
                <g id="prefix__Group_3" data-name="Group 3" transform="translate(30.481 105.926)" style="opacity:.2">
                    <path id="prefix__Rectangle_11" d="M0 0H25.284V25.284H0z" class="prefix__cls-3" data-name="Rectangle 11"/>
                    <path id="prefix__Path_3" d="M57.342 52.62a12.642 12.642 0 1 0 12.642 12.642A12.642 12.642 0 0 0 57.342 52.62z" class="prefix__cls-3" data-name="Path 3" transform="translate(14.516 -52.62)"/>
                    <path id="prefix__Rectangle_12" d="M0 0H25.284V25.284H0z" class="prefix__cls-3" data-name="Rectangle 12" transform="translate(118.613)"/>
                    <path id="prefix__Rectangle_13" d="M0 0H25.284V25.284H0z" class="prefix__cls-3" data-name="Rectangle 13" transform="translate(177.91)"/>
                </g>
                <rect id="prefix__Rectangle_14" width="25.284" height="25.284" class="prefix__cls-6" data-name="Rectangle 14" rx="5.59" transform="translate(30.481 162.594)"/>
                <path id="prefix__Rectangle_15" d="M0 0H25.284V25.284H0z" class="prefix__cls-6" data-name="Rectangle 15" transform="translate(89.778 162.594)"/>
                <path id="prefix__Rectangle_16" d="M0 0H25.284V25.284H0z" class="prefix__cls-6" data-name="Rectangle 16" transform="translate(149.094 162.594)"/>
                <path id="prefix__Path_4" d="M116.492 106.144A12.642 12.642 0 0 1 103.85 93.5a12.642 12.642 0 0 1 12.642-12.64 12.642 12.642 0 0 1 12.642 12.64 12.642 12.642 0 0 1-12.642 12.642z" class="prefix__cls-7" data-name="Path 4" transform="translate(104.541 81.734)"/>
                <path id="prefix__Rectangle_17" d="M0 0H422.42V291.787H0z" class="prefix__cls-7" data-name="Rectangle 17" transform="translate(297.928 27.385)"/>
                <path id="prefix__Rectangle_18" d="M0 0H422.42V291.787H0z" class="prefix__cls-4" data-name="Rectangle 18" transform="translate(302.824 22.509)"/>
                <path id="prefix__Path_5" d="M376.389 102.954a45.17 45.17 0 1 0-71.517 0l1.124 1.4 21.05 26.307H354.2l21.07-26.307 1.124-1.4z" class="prefix__cls-7" data-name="Path 5" transform="translate(297.425 30.723)"/>
                <path id="prefix__Path_6" d="M338.615 87.394h-25.143A3.552 3.552 0 0 1 310 83.782a3.552 3.552 0 0 1 3.552-3.552H338.7a3.572 3.572 0 0 1 3.411 3.552 3.572 3.572 0 0 1-3.492 3.612z" class="prefix__cls-3" data-name="Path 6" transform="translate(312.062 81.099)"/>
                <path id="prefix__Path_7" d="M338.615 90.924h-25.143A3.552 3.552 0 0 1 310 87.372a3.572 3.572 0 0 1 3.552-3.572H338.7a3.572 3.572 0 0 1 3.411 3.572 3.572 3.572 0 0 1-3.492 3.552z" class="prefix__cls-7" data-name="Path 7" transform="translate(312.062 84.693)"/>
                <path id="prefix__Path_8" d="M338.615 94.454h-25.143A3.552 3.552 0 0 1 310 90.9a3.552 3.552 0 0 1 3.552-3.552H338.7a3.572 3.572 0 0 1 3.411 3.552 3.572 3.572 0 0 1-3.492 3.552z" class="prefix__cls-3" data-name="Path 8" transform="translate(312.062 88.267)"/>
                <path id="prefix__Path_9" d="M332.849 94.04h-17.638A3.13 3.13 0 0 1 312 90.89h24.08a3.13 3.13 0 0 1-3.231 3.15z" class="prefix__cls-7" data-name="Path 9" transform="translate(314.075 91.83)"/>
                <path id="prefix__Path_10" d="M321.531 97.376h-1.425a4.916 4.916 0 0 1-4.916-4.916h11.257a4.916 4.916 0 0 1-4.916 4.916z" class="prefix__cls-3" data-name="Path 10" transform="translate(317.287 93.411)"/>
                <path id="prefix__Path_11" d="M334.209 106.193v-36.36s.963-12.361 8.488-15.05 14.849 15.311-9.853 15.311h-8.428c-24.722 0-17.378-18.06-9.853-15.311s8.488 15.05 8.488 15.05v36.361" class="prefix__cls-8" data-name="Path 11" transform="translate(309.424 55.196)"/>
                <path id="prefix__Line_1" d="M0 0L92.025 41.819" class="prefix__cls-8" data-name="Line 1" transform="translate(522.372 64.549)"/>
                <circle id="prefix__Ellipse_1" cx="22.254" cy="22.254" r="22.254" class="prefix__cls-3" data-name="Ellipse 1" transform="rotate(-76.72 299.005 -272.534)"/>
                <path id="prefix__Line_2" d="M0 0L63.189 0" class="prefix__cls-8" data-name="Line 2" transform="translate(556.264 133.016)"/>
                <circle id="prefix__Ellipse_2" cx="16.816" cy="16.816" r="16.816" class="prefix__cls-7" data-name="Ellipse 2" transform="rotate(-80.78 354.84 -242.14)"/>
                <path id="prefix__Line_3" d="M35.899 0L0 35.899" class="prefix__cls-8" data-name="Line 3" transform="translate(655.934 46.609)"/>
                <path id="prefix__Path_12" d="M356.823 27.087a8.027 8.027 0 1 1-8.023-8.027 8.027 8.027 0 0 1 8.023 8.027z" class="prefix__cls-3" data-name="Path 12" transform="translate(343.037 19.522)"/>
                <path id="prefix__Path_13" d="M357.134 82.03h10.194v44.046h-65.7V82.03H311.8" class="prefix__cls-8" data-name="Path 13" transform="translate(303.636 82.911)"/>
                <path id="prefix__Line_4" d="M0 0L0 15.471" class="prefix__cls-8" data-name="Line 4" transform="translate(638.115 208.987)"/>
                <path id="prefix__Path_14" d="M372.74 122.882l-2.488-2.488a3.512 3.512 0 0 0-4.956 0 3.472 3.472 0 0 1-4.956 0 3.512 3.512 0 0 0-4.956 0 3.471 3.471 0 0 1-4.956 0 3.512 3.512 0 0 0-4.956 0 3.472 3.472 0 0 1-4.956 0 3.512 3.512 0 0 0-4.957 0 3.491 3.491 0 0 1-4.976 0 3.512 3.512 0 0 0-4.956 0 3.472 3.472 0 0 1-4.956 0 3.512 3.512 0 0 0-4.956 0 3.472 3.472 0 0 1-4.957 0 3.512 3.512 0 0 0-4.956 0l-2.488 2.488" class="prefix__cls-8" data-name="Path 14" transform="translate(305.328 120.5)"/>
                <path id="prefix__Path_15" d="M372.74 127.632l-2.488-2.488a3.512 3.512 0 0 0-4.956 0 3.512 3.512 0 0 1-4.956 0 3.512 3.512 0 0 0-4.956 0 3.512 3.512 0 0 1-4.956 0 3.512 3.512 0 0 0-4.956 0 3.512 3.512 0 0 1-4.956 0 3.512 3.512 0 0 0-4.957 0 3.532 3.532 0 0 1-4.976 0 3.512 3.512 0 0 0-4.956 0 3.512 3.512 0 0 1-4.956 0 3.512 3.512 0 0 0-4.956 0 3.512 3.512 0 0 1-4.956 0 3.512 3.512 0 0 0-4.956 0l-2.488 2.488" class="prefix__cls-8" data-name="Path 15" transform="translate(305.328 125.281)"/>
                <path id="prefix__Path_16" d="M333.069 132.362l-2.488-2.468a3.512 3.512 0 0 0-4.956 0 3.512 3.512 0 0 1-4.956 0 3.512 3.512 0 0 0-4.956 0 3.512 3.512 0 0 1-4.956 0 3.512 3.512 0 0 0-4.956 0l-2.488 2.468" class="prefix__cls-8" data-name="Path 16" transform="translate(305.328 130.063)"/>
                <path id="prefix__Path_17" d="M352.839 132.362l-2.488-2.468a3.512 3.512 0 0 0-4.956 0 3.512 3.512 0 0 1-4.957 0 3.512 3.512 0 0 0-4.956 0 3.512 3.512 0 0 1-4.956 0 3.512 3.512 0 0 0-4.956 0l-2.488 2.468" class="prefix__cls-8" data-name="Path 17" transform="translate(325.229 130.063)"/>
                <path id="prefix__Path_18" d="M346.589 140.752l-2.468-2.468a3.512 3.512 0 0 0-4.956 0 3.512 3.512 0 0 1-4.956 0 3.512 3.512 0 0 0-4.956 0 3.532 3.532 0 0 1-4.977 0 3.512 3.512 0 0 0-4.956 0l-2.468 2.468" class="prefix__cls-8" data-name="Path 18" transform="translate(318.958 138.509)"/>
                <circle id="prefix__Ellipse_3" cx="4.375" cy="4.375" r="4.375" class="prefix__cls-7" data-name="Ellipse 3" transform="translate(611.788 273.08)"/>
                <path id="prefix__Path_19" d="M346.589 148.9l-2.468-2.488a3.512 3.512 0 0 0-4.956 0 3.471 3.471 0 0 1-4.956 0 3.512 3.512 0 0 0-4.956 0 3.492 3.492 0 0 1-4.977 0 3.512 3.512 0 0 0-4.956 0l-2.47 2.488" class="prefix__cls-8" data-name="Path 19" transform="translate(318.958 146.693)"/>
                <path id="prefix__Path_20" d="M304.88 148.464a4.354 4.354 0 1 1 1.275 3.1 4.374 4.374 0 0 1-1.275-3.1z" class="prefix__cls-7" data-name="Path 20" transform="translate(306.908 145.384)"/>
                <path id="prefix__Rectangle_19" d="M0 0H50.668V50.668H0z" class="prefix__cls-3" data-name="Rectangle 19" transform="translate(335.934 38.281)"/>
                <path id="prefix__Rectangle_20" d="M0 0H50.668V50.668H0z" class="prefix__cls-7" data-name="Rectangle 20" transform="translate(335.934 108.133)"/>
                <path id="prefix__Rectangle_21" d="M0 0H50.668V50.668H0z" class="prefix__cls-3" data-name="Rectangle 21" transform="translate(335.934 177.985)"/>
                <path id="prefix__Rectangle_22" d="M0 0H50.668V50.668H0z" class="prefix__cls-3" data-name="Rectangle 22" transform="translate(335.934 247.836)"/>
                <path id="prefix__Path_21" d="M460.934 54.038a14.047 14.047 0 0 1-14.046 13.786h-1.605L439 74.084a3.592 3.592 0 0 1-5.117 0l-6.283-6.26h-46.711A14.588 14.588 0 0 1 366.2 53.456a14.047 14.047 0 0 1 14.047-13.786h66.019a14.568 14.568 0 0 1 14.669 14.368z" class="prefix__cls-7" data-name="Path 21" transform="translate(368.636 40.269)"/>
                <path id="prefix__Path_22" d="M379.67 48.19a3.01 3.01 0 1 1-3.01-3.01 3.01 3.01 0 0 1 3.01 3.01z" class="prefix__cls-3" data-name="Path 22" transform="translate(376.136 45.816)"/>
                <path id="prefix__Path_23" d="M389.44 48.19a3.01 3.01 0 1 1-3.01-3.01 3.01 3.01 0 0 1 3.01 3.01z" class="prefix__cls-3" data-name="Path 23" transform="translate(385.971 45.816)"/>
                <path id="prefix__Path_24" d="M399.21 48.19a3.01 3.01 0 1 1-3.01-3.01 3.01 3.01 0 0 1 3.01 3.01z" class="prefix__cls-3" data-name="Path 24" transform="translate(395.806 45.816)"/>
                <path id="prefix__Path_25" d="M409.02 48.19a3.01 3.01 0 1 1-3.01-3.01 3.01 3.01 0 0 1 3.01 3.01z" class="prefix__cls-3" data-name="Path 25" transform="translate(405.681 45.816)"/>
                <path id="prefix__Path_26" d="M439.383 33.418a.963.963 0 0 0 1.706 0 6.682 6.682 0 0 1 12.5 3.512c0 12.461-13.344 20.448-13.344 20.448s-13.364-8.027-13.364-20.448a6.682 6.682 0 0 1 12.5-3.512z" class="prefix__cls-3" data-name="Path 26" transform="translate(429.718 30.548)"/>
                <path id="prefix__Path_27" d="M404.583 2.336a.943.943 0 0 0 1.605 0 4.876 4.876 0 0 1 8.95 2.87c0 6.6-5.137 11.5-8.026 13.685a2.95 2.95 0 0 1-3.612 0c-2.809-2.187-8.027-7.083-8.027-13.685a4.876 4.876 0 0 1 9.11-2.87z" class="prefix__cls-9" data-name="Path 27" transform="translate(398.078 .167)"/>
                <path id="prefix__Path_28" d="M432.4 8.193a1.124 1.124 0 0 0 2.007 0c3.17-5.4 12.963-4.455 12.963 3.813 0 9.672-7.706 16.756-11.659 19.745a3.712 3.712 0 0 1-4.555 0c-4.013-2.99-11.659-10.033-11.659-19.745a6.963 6.963 0 0 1 12.9-3.813z" class="prefix__cls-9" data-name="Path 28" transform="translate(422.289 5.186)"/>
                <path id="prefix__Path_29" d="M471.54 56.629a1.084 1.084 0 0 0 1.786 0 4.756 4.756 0 0 1 8.609 2.95c0 8.869-9.512 14.548-9.512 14.548s-9.492-5.679-9.492-14.548a4.756 4.756 0 0 1 8.608-2.95z" class="prefix__cls-7" data-name="Path 29" transform="translate(466.008 55.357)"/>
                <path id="prefix__Path_30" d="M423.7 31.787a8.027 8.027 0 1 1-2.315-5.74 8.027 8.027 0 0 1 2.315 5.74z" class="prefix__cls-10" data-name="Path 30" transform="translate(410.362 24.153)"/>
                <circle id="prefix__Ellipse_4" cx="4.655" cy="4.655" r="4.655" class="prefix__cls-10" data-name="Ellipse 4" transform="translate(748.14 55.94)"/>
                <path id="prefix__Path_31" d="M460.289 50.375A4.455 4.455 0 1 1 455.834 46a4.455 4.455 0 0 1 4.455 4.375z" class="prefix__cls-10" data-name="Path 31" transform="translate(454.383 46.642)"/>
                <circle id="prefix__Ellipse_5" cx="6.662" cy="6.662" r="6.662" class="prefix__cls-10" data-name="Ellipse 5" transform="translate(938.431 73.277)"/>
                <circle id="prefix__Ellipse_6" cx="3.712" cy="3.712" r="3.712" class="prefix__cls-7" data-name="Ellipse 6" transform="translate(968.45 100.126)"/>
                <circle id="prefix__Ellipse_7" cx="5.157" cy="5.157" r="5.157" class="prefix__cls-10" data-name="Ellipse 7" transform="translate(996.162 55.438)"/>
                <rect id="prefix__Rectangle_23" width="17.036" height="17.036" class="prefix__cls-11" data-name="Rectangle 23" rx="1.49" transform="translate(961.648 52.087)"/>
                <path id="prefix__Path_32" d="M496.456 15.2h5.418a2.769 2.769 0 0 1 2.328 4.234l-5.418 8.609a2.769 2.769 0 0 1-4.676 0l-5.418-8.609a2.769 2.769 0 0 1 2.348-4.234z" class="prefix__cls-11" data-name="Path 32" transform="translate(491.519 15.637)"/>
                <path id="prefix__Path_33" d="M495.612 49.984h-6.5l6.5-10.314 6.5 10.314z" class="prefix__cls-11" data-name="Path 33" transform="translate(492.364 40.27)"/>
                <path id="prefix__Path_34" d="M388.066 22.343h-4.555a1.706 1.706 0 0 1-1.445-2.629l4.555-7.224a1.726 1.726 0 0 1 2.91 0l4.535 7.224a1.706 1.706 0 0 1-1.445 2.629z" class="prefix__cls-11" data-name="Path 34" transform="translate(384.335 12.106)"/>
                <path id="prefix__Path_35" d="M504.163 5.994v36.963a4.294 4.294 0 0 1-4.274 4.274h-12.04l-3.873 6.883a3.251 3.251 0 0 1-5.639 0l-3.993-6.883h-30.3a4.274 4.274 0 0 1-4.274-4.274V5.994a4.274 4.274 0 0 1 4.274-4.274h55.845a4.274 4.274 0 0 1 4.274 4.274z" class="prefix__cls-3" data-name="Path 35" transform="translate(442.695 2.067)"/>
                <path id="prefix__Path_36" d="M457.827 13.831a10.715 10.715 0 0 1-2.207-6.682c.241-3.672 4.154-3.351 5.137-.742a18.582 18.582 0 0 0 9.833 8.829 2.649 2.649 0 0 1 1.686 2.488v15.592a2.689 2.689 0 0 1-2.67 2.684h-15.13a2.007 2.007 0 0 1-2.007-2v-1.868a2.007 2.007 0 0 1-2.007-2.007v-4.013h-.16a2.007 2.007 0 0 1-2.007-2.007v-3.511a1.886 1.886 0 0 1-1.545-1.866V15.8a2.007 2.007 0 0 1 1.886-1.906z" class="prefix__cls-12" data-name="Path 36" transform="translate(449.722 4.785)"/>
                <rect id="prefix__Rectangle_24" width="9.19" height="20.207" class="prefix__cls-12" data-name="Rectangle 24" rx="1.81" transform="translate(924.344 20.563)"/>
                <path id="prefix__Path_37" d="M401.93 22.487l1.645 5.057a1.525 1.525 0 0 0 1.5.963h5.325a1.565 1.565 0 0 1 .923 2.809l-4.354 3.211a1.565 1.565 0 0 0-.562 1.726l1.645 5.077a1.545 1.545 0 0 1-2.388 1.726l-4.294-3.13a1.545 1.545 0 0 0-1.826 0l-4.314 3.13a1.545 1.545 0 0 1-2.388-1.726l1.646-5.077a1.525 1.525 0 0 0-.562-1.726l-4.294-3.211a1.545 1.545 0 0 1 .9-2.809h5.318a1.545 1.545 0 0 0 1.485-1.064l1.726-4.956a1.545 1.545 0 0 1 2.869 0z" class="prefix__cls-7" data-name="Path 37" transform="translate(391.56 21.995)"/>
                <path id="prefix__Path_38" d="M681.474 52.82l-66.942-39.33-66.962 39.33" data-name="Path 38" transform="translate(551.213 13.915)" style="stroke-width:.7px;stroke-linecap:round;stroke-linejoin:round;stroke:#185177;fill:none;opacity:.2"/>
                <circle id="prefix__Ellipse_8" cx="4.916" cy="4.916" r="4.916" class="prefix__cls-3" data-name="Ellipse 8" transform="translate(1160.828 22.489)"/>
                <path id="prefix__Rectangle_25" d="M0 0H232.35V185.214H0z" class="prefix__cls-1" data-name="Rectangle 25" transform="translate(1049.559 62.181)"/>
                <path id="prefix__Rectangle_26" d="M0 0H219.728V172.432H0z" class="prefix__cls-4" data-name="Rectangle 26" transform="translate(1055.88 68.562)"/>
                <path id="prefix__Rectangle_27" d="M0 0H121.884V155.475H0z" class="prefix__cls-7" data-name="Rectangle 27" transform="translate(1062.522 77.05)"/>
                <path id="prefix__Path_39" d="M656.283 89.975l-2.288-2.308a3.251 3.251 0 0 0-4.6 0 3.251 3.251 0 0 1-4.6 0 3.251 3.251 0 0 0-4.6 0 3.251 3.251 0 0 1-4.6 0 3.231 3.231 0 0 0-4.575 0 3.251 3.251 0 0 1-4.6 0 3.251 3.251 0 0 0-4.6 0 3.251 3.251 0 0 1-4.6 0 3.251 3.251 0 0 0-4.6 0 3.231 3.231 0 0 1-4.575 0 3.251 3.251 0 0 0-4.6 0l-2.308 2.308" class="prefix__cls-8" data-name="Path 39" transform="translate(605.179 87.629)"/>
                <path id="prefix__Path_40" d="M656.283 94.355l-2.288-2.288a3.251 3.251 0 0 0-4.6 0 3.251 3.251 0 0 1-4.6 0 3.251 3.251 0 0 0-4.6 0 3.251 3.251 0 0 1-4.6 0 3.231 3.231 0 0 0-4.575 0 3.251 3.251 0 0 1-4.6 0 3.251 3.251 0 0 0-4.6 0 3.251 3.251 0 0 1-4.6 0 3.251 3.251 0 0 0-4.6 0 3.231 3.231 0 0 1-4.575 0 3.251 3.251 0 0 0-4.6 0l-2.308 2.288" class="prefix__cls-8" data-name="Path 40" transform="translate(605.179 92.058)"/>
                <path id="prefix__Path_41" d="M628.731 98.745l-2.288-2.268a3.251 3.251 0 0 0-4.6 0 3.251 3.251 0 0 1-4.6 0 3.251 3.251 0 0 0-4.6 0 3.231 3.231 0 0 1-4.575 0 3.251 3.251 0 0 0-4.6 0l-2.308 2.308" class="prefix__cls-8" data-name="Path 41" transform="translate(605.179 96.497)"/>
                <path id="prefix__Path_42" d="M628.731 103.145l-2.288-2.288a3.251 3.251 0 0 0-4.6 0 3.251 3.251 0 0 1-4.6 0 3.251 3.251 0 0 0-4.6 0 3.231 3.231 0 0 1-4.575 0 3.251 3.251 0 0 0-4.595 0l-2.308 2.288" class="prefix__cls-8" data-name="Path 42" transform="translate(605.179 100.906)"/>
                <circle id="prefix__Ellipse_9" cx="4.053" cy="4.053" r="4.053" class="prefix__cls-7" data-name="Ellipse 9" transform="translate(1209.269 215.93)"/>
                <path id="prefix__Path_43" d="M611.55 111.473a4.013 4.013 0 1 1 4.013 4.013 4.013 4.013 0 0 1-4.013-4.013z" class="prefix__cls-7" data-name="Path 43" transform="translate(615.618 108.511)"/>
                <path id="prefix__Path_44" d="M630.126 42.39A32.809 32.809 0 0 0 606.93 98.4l23.2-23.2z" class="prefix__cls-7" data-name="Path 44" transform="translate(601.296 43.008)"/>
                <path id="prefix__Path_45" d="M648.524 47.18l-23.217 23.2-23.2 23.2a32.812 32.812 0 1 0 46.417-46.4z" class="prefix__cls-7" data-name="Path 45" transform="translate(606.115 47.83)"/>
                <path id="prefix__Path_46" d="M613.67 42.39V75.2L636.887 52a32.729 32.729 0 0 0-23.217-9.61z" class="prefix__cls-12" data-name="Path 46" transform="translate(617.752 43.008)"/>
                <path id="prefix__Path_47" d="M631.76 52.74l-12.04 12.04-12.04 12.04a17.036 17.036 0 0 0 24.08-24.08z" class="prefix__cls-3" data-name="Path 47" transform="translate(611.722 53.427)"/>
                <path id="prefix__Path_48" d="M622.21 50.25a17.036 17.036 0 0 0-12.04 29.076l12.04-12.04z" class="prefix__cls-12" data-name="Path 48" transform="translate(609.212 50.92)"/>
                <path id="prefix__Path_49" d="M613.67 50.25v17.036l12.04-12.04a16.975 16.975 0 0 0-12.04-5z" class="prefix__cls-7" data-name="Path 49" transform="translate(617.752 50.92)"/>
                <path id="prefix__Path_50" d="M607.3 272.366a31.866 31.866 0 0 0-29.5-19.806H42.247a31.866 31.866 0 0 0-29.5 19.808l-9.911 24.178a10.334 10.334 0 0 0 9.552 14.247h595.273a10.334 10.334 0 0 0 9.552-14.247z" class="prefix__cls-14" data-name="Path 50" transform="translate(2.08 254.576)"/>
                <path id="prefix__Path_51" d="M591.351 272.366a31.865 31.865 0 0 0-29.478-19.806H383.282a31.886 31.886 0 0 0-29.5 19.806l-9.893 24.18a10.314 10.314 0 0 0 9.552 14.247h238.27a10.314 10.314 0 0 0 9.552-14.247z" class="prefix__cls-14" data-name="Path 51" transform="translate(345.394 254.576)"/>
                <path id="prefix__Path_52" d="M744.371 272.366a31.866 31.866 0 0 0-29.478-19.806H536.3a31.866 31.866 0 0 0-29.478 19.806l-9.913 24.18a10.314 10.314 0 0 0 9.552 14.247h238.23a10.314 10.314 0 0 0 9.552-14.247z" class="prefix__cls-14" data-name="Path 52" transform="translate(499.432 254.576)"/>
                <path id="prefix__Path_53" d="M621.129 237.57H588.36l8.508 58.795c0 2.147 10.856 3.873 24.261 3.873s24.28-1.726 24.28-3.873l8.508-58.795z" class="prefix__cls-3" data-name="Path 53" transform="translate(592.274 239.486)"/>
                <path id="prefix__Path_54" d="M618.963 237.6l-7.463 51.611c-2.669 6.02-7.786 8.488-17.518 8.99a87.732 87.732 0 0 0 21.491 2.007c13.424 0 24.28-1.726 24.28-3.873l8.508-58.795z" class="prefix__cls-15" data-name="Path 54" transform="translate(597.931 239.456)"/>
                <path id="prefix__Path_55" d="M660.758 233.47c0 3.291-16.716 6.02-37.344 6.02s-37.324-2.669-37.324-6.02 16.715-6.02 37.324-6.02 37.344 2.729 37.344 6.02z" class="prefix__cls-16" data-name="Path 55" transform="translate(589.989 229.299)"/>
                <path id="prefix__Path_56" d="M620.836 238.141a146.868 146.868 0 0 0 31.364-2.729 1.545 1.545 0 0 0 .281-2.89c-4.916-2.227-17.237-3.793-31.645-3.793-13.926 0-25.886 1.465-31.1 3.572a1.686 1.686 0 0 0 .2 3.211 149.757 149.757 0 0 0 30.9 2.629z" class="prefix__cls-17" data-name="Path 56" transform="translate(592.566 230.587)"/>
                <path id="prefix__Path_57" d="M616.806 296.864s-13.2-27.752-12.843-44.026 9.873-16.555 9.873-16.555-.983-17.859 3.311-26.187 11.859-6.261 11.859-6.261 1.244-28.093 12.04-30.662 11.919 11.859 11.919 11.859 15.893.923 10.254 29.719 1.605 23.357-5.6 40.133-26.706 39.893-40.813 41.98z" class="prefix__cls-17" data-name="Path 57" transform="translate(607.974 174.353)"/>
                <path id="prefix__Path_58" d="M619.234 166.009s-25.043-9.07-21.05 33.391c0 0-13.425 6.542-6.9 33.03 0 0-10.154 1.465.361 32.307s10.756 42.14 31.224 42.842c25.705.8 41.738-46.835 28.675-54.822 0 0 17.779-33.029 7.264-41.016 0 0 12.341-34.474-11.619-38.126-.023.059-6.926-19.907-27.955-7.606z" class="prefix__cls-18" data-name="Path 58" transform="translate(590.778 163.418)"/>
                <circle id="prefix__Ellipse_10" cx="2.93" cy="2.93" r="2.93" class="prefix__cls-3" data-name="Ellipse 10" transform="translate(1218.098 340.403)"/>
                <path id="prefix__Path_59" d="M627.433 184.287a8.027 8.027 0 1 1-8.027-8.027 8.027 8.027 0 0 1 8.027 8.027z" class="prefix__cls-3" data-name="Path 59" transform="translate(615.447 177.768)"/>
                <path id="prefix__Path_60" d="M621.024 194.962a3.612 3.612 0 1 1-3.592-3.592 3.612 3.612 0 0 1 3.592 3.592z" class="prefix__cls-3" data-name="Path 60" transform="translate(617.883 192.979)"/>
                <circle id="prefix__Ellipse_11" cx="1.806" cy="1.806" r="1.806" class="prefix__cls-3" data-name="Ellipse 11" transform="translate(1237.101 423.137)"/>
                <circle id="prefix__Ellipse_12" cx="1.806" cy="1.806" r="1.806" class="prefix__cls-3" data-name="Ellipse 12" transform="translate(1226.225 421.331)"/>
                <path id="prefix__Path_61" d="M611.2 195.436a1.806 1.806 0 1 1-1.806-1.806 1.806 1.806 0 0 1 1.806 1.806z" class="prefix__cls-3" data-name="Path 61" transform="translate(611.632 195.254)"/>
                <circle id="prefix__Ellipse_13" cx="1.806" cy="1.806" r="1.806" class="prefix__cls-3" data-name="Ellipse 13" transform="translate(1211.918 359.286)"/>
                <circle id="prefix__Ellipse_14" cx="1.806" cy="1.806" r="1.806" class="prefix__cls-3" data-name="Ellipse 14" transform="translate(1223.957 372.53)"/>
                <circle id="prefix__Ellipse_15" cx="1.806" cy="1.806" r="1.806" class="prefix__cls-3" data-name="Ellipse 15" transform="translate(1200.801 339.119)"/>
                <circle id="prefix__Ellipse_16" cx="1.806" cy="1.806" r="1.806" class="prefix__cls-3" data-name="Ellipse 16" transform="translate(1223.135 442.02)"/>
                <circle id="prefix__Ellipse_17" cx="1.806" cy="1.806" r="1.806" class="prefix__cls-3" data-name="Ellipse 17" transform="translate(1228.533 453.217)"/>
                <circle id="prefix__Ellipse_18" cx="5.037" cy="5.037" r="5.037" class="prefix__cls-3" data-name="Ellipse 18" transform="translate(1226.245 402.569)"/>
                <path id="prefix__Path_62" d="M618.715 305.242s-27.25-21.17-35.116-37.685 1.545-21.592 1.545-21.592-10.033-17.438-9.893-27.953 8.729-12.221 8.729-12.221-12.9-28.735-3.311-36.9 17.96 5.879 17.96 5.879 16.394-7.083 25.284 24.642 13.224 22.655 14.648 43.083c1.339 18.942-6.643 51.289-19.846 62.747z" class="prefix__cls-17" data-name="Path 62" transform="translate(579.076 167.78)"/>
                <path id="prefix__Path_64" d="M623.384 236.239c-19.906 0-36.12-2.488-37.264-5.619l2.448 13.424c0 3.07 15.592 5.558 34.815 5.558s34.735-2.488 34.735-5.558l2.468-13.424c-1.003 3.13-17.276 5.619-37.202 5.619z" class="prefix__cls-16" data-name="Path 64" transform="translate(590.019 232.49)"/>
                <path id="prefix__Path_65" d="M531.231 158.449c-13.685-1.1-20.267-18.7-22.675-36.12a121.642 121.642 0 0 1-1.1-18.923c.482-20.428 4.314-32.267 11.759-36.26 9.311-5.037 16.515 18.421 21.652 39.712.943 4.013 1.866 8.287 2.609 12.682 3.224 19.324 3.106 40.133-12.245 38.909z" class="prefix__cls-19" data-name="Path 65" transform="translate(510.804 67.234)"/>
                <path id="prefix__Path_66" d="M543.461 119.56a86.747 86.747 0 0 1-34.9 2.789 121.627 121.627 0 0 1-1.1-18.923c.482-20.428 4.314-32.267 11.759-36.26 9.311-5.037 16.515 18.421 21.652 39.712.928 3.953 1.807 8.288 2.589 12.682z" class="prefix__cls-3" data-name="Path 66" transform="translate(510.814 67.254)"/>
                <path id="prefix__Path_67" d="M515.255 82.986a165.808 165.808 0 0 0 20.768-1.286c-.7-2.308-1.425-4.555-2.187-6.662a161.717 161.717 0 0 1-24.942.962c-.422 2.007-.783 4.354-1.064 6.8 2.508.186 4.997.186 7.425.186z" class="prefix__cls-15" data-name="Path 67" transform="translate(511.208 75.875)"/>
                <path id="prefix__Path_68" d="M540.62 89.5c-.542-2.288-1.124-4.575-1.726-6.843a198.818 198.818 0 0 1-31.264.622c0 1.244-.1 2.528-.14 3.853v3.01c2.689.181 6.943.4 12.341.4A206.127 206.127 0 0 0 540.62 89.5z" class="prefix__cls-15" data-name="Path 68" transform="translate(510.866 83.546)"/>
                <path id="prefix__Path_69" d="M514.886 106.264a4.013 4.013 0 0 0 1.345 5.077c5.578 4.013 18.16 12.682 27.732 18.06 12.642 6.983 15.531 25.585 2.99 27.371s-31.585-7.746-47.538-36.862c0 0-6.02-8.93-7.063-13.665-2.709-12.321 11.478-34.274 15.873-36.421s-1.2 14.99-1.2 14.99 8.247 4.615 10.374 9.07c1.42 2.869-.848 8.768-2.513 12.38z" class="prefix__cls-19" data-name="Path 69" transform="translate(495.283 70.436)"/>
                <path id="prefix__Path_70" d="M505.189 88.267c2.769 1.485-1.284 8.749 2.007 12.662a4.014 4.014 0 0 1 .341-2.227c1.666-3.612 4.013-9.512 2.508-12.481-2.127-4.455-10.374-9.07-10.374-9.07-1.526 5.557 2.749 9.611 5.518 11.116z" class="prefix__cls-16" data-name="Path 70" transform="translate(502.672 77.999)"/>
                <path id="prefix__Path_71" d="M526.275 104.564c-5.2-2.87-11.3-6.762-16.7-10.354a116.367 116.367 0 0 0 3.873 18.983 32.106 32.106 0 0 0 15.15 18.822h.662c12.547-1.866 9.657-20.468-2.985-27.451z" class="prefix__cls-16" data-name="Path 71" transform="translate(512.97 95.172)"/>
                <path id="prefix__Path_72" d="M597.809 358.1v4.956l-6.8-4.8a71.306 71.306 0 0 1-1.625 20.448 1.505 1.505 0 0 1-2.95 0c-2.167-8.609-7.123-23.919-16.354-32.528a475.072 475.072 0 0 1-38.768-38.748c-15.11-17.5-28.334-37.5-27.532-53.7 1.585-32.407 35.618-119.877 35.618-119.877 13.3-30.1 58.554-16.053 61.584 3.371S583.7 176.96 583.7 176.96l-31.9 86.085a179.728 179.728 0 0 1 11.137 22.434c9.251 21.692 17.117 46.514 20.568 52.695 8.545 15.431 14.304 19.926 14.304 19.926z" class="prefix__cls-20" data-name="Path 72" transform="translate(507.094 117.531)"/>
                <path id="prefix__Path_73" d="M542.788 182.6s-19.2 52.915-20.528 66.22 14.408 48.16 14.408 48.16l16.515 5.9c-2.709-7.2-5.679-14.909-8.809-22.254a179.7 179.7 0 0 0-11.137-22.434l31.905-86.092s20.307-20.327 17.277-39.732a19.184 19.184 0 0 0-6.542-10.9 12.943 12.943 0 0 0-13.625 8.388z" class="prefix__cls-21" data-name="Path 73" transform="translate(525.654 122.531)"/>
                <path id="prefix__Path_74" d="M539.215 152.76l-17.177 52.875a48.862 48.862 0 0 0-.3 29.217l5.478 18.06" class="prefix__cls-22" data-name="Path 74" transform="translate(523.107 154.112)"/>
                <path id="prefix__Path_75" d="M536.652 130.85s-8.027 16.575-7.224 34.113c.241 5.5 7.224 5.057 7.224 5.057" class="prefix__cls-22" data-name="Path 75" transform="translate(532.893 132.056)"/>
                <path id="prefix__Path_76" d="M583.98 278.207l-6.8-4.8a71.739 71.739 0 0 1-1.706 20.809 1.5 1.5 0 0 1-2.93.1c-2.288-8.288-7.485-23.257-16.776-31.926-6.662-6.2-24.28-21.15-38.287-39.732 8.247-2.99 23.417-9.833 31.625-21.953 11.157 22.354 17.117 46.514 20.568 52.695 8.548 15.351 14.307 19.846 14.307 19.846z" class="prefix__cls-18" data-name="Path 76" transform="translate(520.922 202.381)"/>
                <path id="prefix__Path_77" d="M565.58 242.83a333.093 333.093 0 0 0-16.48-42.14c-8.207 12.04-23.378 18.963-31.625 21.953 14.047 18.582 31.625 33.531 38.287 39.732a48.422 48.422 0 0 1 9.491 13.063c.3-.763.582-1.525.823-2.308a47.737 47.737 0 0 0-.5-30.3z" class="prefix__cls-23" data-name="Path 77" transform="translate(520.922 202.361)"/>
                <path id="prefix__Path_78" d="M618.532 165.173c-4.956 34.374-33.31 99.931-33.31 99.931-.4 19.284-6.02 40.514-12.823 59.477a388.029 388.029 0 0 1-25.806 56.427 279.9 279.9 0 0 1-3.672 30.1l-5.2 2.89v-6.02s-24.08 15.933-24.441 12.4 16.294-28.354 18.782-44.307c1.264-8.147 3.07-36.12 4.555-61.584 1.425-24.421 2.528-46.514 2.528-46.514 3.391-35.458 20.889-124.874 27.531-131.335L607.535 113s15.953 17.7 10.997 52.173z" class="prefix__cls-20" data-name="Path 78" transform="translate(516.692 114.087)"/>
                <path id="prefix__Path_79" d="M575.544 133.89s-14.869 70.433-28.876 107.817c0 0-1.2 25.705-5.6 43.745" class="prefix__cls-22" data-name="Path 79" transform="translate(544.669 135.116)"/>
                <path id="prefix__Path_80" d="M525.3 282.553c1.023-18.341 1.746-32.648 1.746-32.648 2.729-28.535 14.588-91.965 22.575-119.055" class="prefix__cls-22" data-name="Path 80" transform="translate(528.794 132.056)"/>
                <path id="prefix__Path_81" d="M553.6 128.4s1.646 8.97 13.946 6.522a4.013 4.013 0 0 0 2.89-5.458l-3.836-8.634a55.628 55.628 0 0 1-13 7.565z" data-name="Path 81" transform="translate(557.283 121.969)" style="fill:#378085"/>
                <path id="prefix__Path_82" d="M572.544 224.178a243.376 243.376 0 0 1-25.805 56.422 96 96 0 0 1-3.672 30.1l-5.2 2.97v-6.02s-17.639 17.378-24.441 12.4c-2.89-2.107 16.294-28.354 18.782-44.307 1.264-8.147 1.264-36.782 4.555-61.584 8.391-2.081 26.109-4.208 35.781 10.019z" class="prefix__cls-18" data-name="Path 82" transform="translate(516.546 214.41)"/>
                <path id="prefix__Path_83" d="M513.4 284.8h-.261c0 .5 0 .863.281 1.043 6.8 4.977 24.441-12.4 24.441-12.4v6.02l5.2-2.849a96 96 0 0 0 3.672-30.1C540.952 270.71 527.929 280.3 513.4 284.8z" class="prefix__cls-23" data-name="Path 83" transform="translate(516.553 248.486)"/>
                <path id="prefix__Path_84" d="M526.272 83.116c-9.03.482-18.06-7.2-14.689-17.458s-4.6-13.445-.7-24.08 20.367-6.682 27.571-10.8S549.77 14.95 562.432 14.85c8.729 0 15.511 7.344 15.511 7.344s13.424-4.294 19.746 2.629 2.849 16.9 2.288 22.856 7.766 11.358 4.856 20.067-12.742 9.07-16.495 16.455-7.284 23.778-24.338 22.855c-19.026-1.024-22.056-24.762-37.728-23.94z" class="prefix__cls-17" data-name="Path 84" transform="translate(513.174 15.284)"/>
                <path id="prefix__Path_85" d="M615.436 174.037c-32.468 33.05-85.423 24.421-85.423 24.421 2.127-15.271-6.181-54.18-6.181-54.18s-9.291-11.4-12.18-22.214 1.545-44.447 4.254-46.374a94.783 94.783 0 0 1 12.181-8.609A67.121 67.121 0 0 1 545.4 60a79.824 79.824 0 0 1 21.4-1.908 34.232 34.232 0 0 1 12.722 2.328c5.619 2.89 13.144 14.488 18.06 38.829s17.854 74.788 17.854 74.788z" class="prefix__cls-3" data-name="Path 85" transform="translate(514.108 58.729)"/>
                <path id="prefix__Path_86" d="M551 63.7c-.6 22.414 5.478 44.929.3 53.3s-14.428 14.628-22.755 14.047a64.21 64.21 0 0 1 6.883 12.582c3.311 8.027 6.823 25 2.528 49.665 18.06-1.365 41.8-6.963 59.517-25 0 0-13.144-50.427-18.06-74.788-.6-2.97-1.224-5.739-1.886-8.348C568.723 73.613 559.392 65.426 551 63.7z" class="prefix__cls-15" data-name="Path 86" transform="translate(532.066 64.459)"/>
                <path id="prefix__Path_87" d="M523.837 132.619s-9.291-11.4-12.18-22.214c-2.247-8.368-.1-30.381 2.247-40.815" class="prefix__cls-25" data-name="Path 87" transform="translate(514.104 70.389)"/>
                <path id="prefix__Path_88" d="M558.139 58.128c-1.284 6.02-5.779 20.207-20.348 22.414-15.551 2.348-18.06-9.391-18.421-13.442a66.9 66.9 0 0 1 17.458-7.3 78.4 78.4 0 0 1 21.311-1.666z" class="prefix__cls-12" data-name="Path 88" transform="translate(522.825 58.714)"/>
                <path id="prefix__Path_89" d="M521.88 62.638a46.618 46.618 0 0 1 3.592 7.063c.281 1.525-3.732 3.752-3.732 3.752s1.385 11.5 13.164 8.869a17.558 17.558 0 0 0 14.207-17.036.462.462 0 0 0-.5-.421 26.229 26.229 0 0 1-4.7 0c-1.866-.261-9.291-13.705-9.291-13.705z" class="prefix__cls-19" data-name="Path 89" transform="translate(525.211 51.836)"/>
                <path id="prefix__Path_90" d="M534.552 51.15l-12.742 11.5a46.636 46.636 0 0 1 3.592 7.063 1.525 1.525 0 0 1-.421 1.164 14.347 14.347 0 0 0 9.511-7.184 12.422 12.422 0 0 0 .06-12.542z" class="prefix__cls-16" data-name="Path 90" transform="translate(525.281 51.826)"/>
                <path id="prefix__Path_91" d="M577.889 163.677c-11.057 2.97-14.568-19.625-20.929-42.14-1.385-4.776-2.869-9.552-4.575-14.047-9.812-25.785-19.184-46.374-6.02-48.7 8.689-1.545 31.766 12.04 43.725 48.421.12.341.241.7.341 1.043 11.899 37.102.843 51.791-12.542 55.423z" class="prefix__cls-19" data-name="Path 91" transform="translate(543.468 59.398)"/>
                <path id="prefix__Path_92" d="M583.26 86.7a2.5 2.5 0 0 0-.261-.8 8.889 8.889 0 0 0-12.2-5.217L547 91.518c.943 2.89 1.866 5.8 2.709 8.729.682 2.448 1.344 4.916 2.007 7.344 5.739-1.505 22.173-6.883 31.544-20.891z" class="prefix__cls-16" data-name="Path 92" transform="translate(550.639 80.708)"/>
                <path id="prefix__Path_93" d="M590.526 107.385c-10.515 11.538-26.087 13.886-33.21 14.348-1.385-4.776-2.87-9.552-4.575-14.047C542.928 81.9 532.474 58.8 545.9 58.5s32.707 12.564 44.626 48.885z" class="prefix__cls-3" data-name="Path 93" transform="translate(543.112 59.222)"/>
                <path id="prefix__Path_94" d="M543.457 82.7a136.839 136.839 0 0 0 26.488-14.388 67.75 67.75 0 0 0-4.937-4.956A135.979 135.979 0 0 1 541.21 76.1c.662 2.169 1.405 4.377 2.247 6.6z" class="prefix__cls-15" data-name="Path 94" transform="translate(544.81 64.117)"/>
                <path id="prefix__Path_95" d="M577.039 75.809c-1.184-2.007-2.388-4.013-3.632-5.819a110.566 110.566 0 0 1-29.237 16.053l2.508 6.461a118.391 118.391 0 0 0 30.361-16.695z" class="prefix__cls-15" data-name="Path 95" transform="translate(547.79 70.791)"/>
                <path id="prefix__Path_96" d="M561.637 134.742c-1.445-4.776-7.465-25.906-9.251-30.421-5.9-15.531-14.047-33.25-12.261-42.5" class="prefix__cls-25" data-name="Path 96" transform="translate(543.467 62.567)"/>
                <path id="prefix__Path_97" d="M563.109 101.749s-33.351-8.829-42.32-11.257a5.859 5.859 0 0 0-4.274.482l-14.428 7.485a3.712 3.712 0 0 0-2.007 3.291v1.023l14.047.5 30.481 8.027 12.582-6.562 5.9.221z" class="prefix__cls-17" data-name="Path 97" transform="translate(503.407 91.225)"/>
                <path id="prefix__Path_98" d="M563.1 103.319s-33.351-8.829-42.32-11.217a5.859 5.859 0 0 0-4.274.482l-16.414 8.528c-.281 0 44.527 11.859 44.527 11.859z" class="prefix__cls-26" data-name="Path 98" transform="translate(503.416 92.846)"/>
                <path id="prefix__Path_99" d="M549.371 97.538a14.889 14.889 0 0 0 10.254 4.635c9.431.361 26.769 1.084 36.381 1.826 13.665 1.023 22.936 25.5 10.033 28.856s-53.8-14.95-53.8-14.95-11.418 5.739-13.766 6.02a7.7 7.7 0 0 1-4.294-1.084 14.487 14.487 0 0 1-5.1.963 14.809 14.809 0 0 1-3.07-2.448s-8.488-1.365-10.736-3.07-4.013-4.354-3.171-6.02a3.512 3.512 0 0 1 4.455-1.344 9.531 9.531 0 0 0 6.943-.2c2.388-1.1 5.358-2.548 7.585-3.873a12.04 12.04 0 0 0 5.318-7.545s-7.545-1.264-10.394-3.813-.542-6.782.943-6.16 4.013.763 10.515.863c4.218.1 8.754 4.053 11.904 7.344z" class="prefix__cls-19" data-name="Path 99" transform="translate(515.298 90.199)"/>
                <path id="prefix__Path_100" d="M518.6 90.07a4.013 4.013 0 0 0 1.023 4.655c2.849 2.548 10.394 3.813 10.394 3.813-.135-2.91-7.617-7.886-11.417-8.468z" class="prefix__cls-16" data-name="Path 100" transform="translate(521.704 91.005)"/>
                <path id="prefix__Path_101" d="M520.64 108.553s6.983-.943 10.836-4.013" class="prefix__cls-27" data-name="Path 101" transform="translate(524.103 105.571)"/>
                <path id="prefix__Path_102" d="M512.253 100.24c-1.605 3.311.943 5.358 3.171 7.063a27.53 27.53 0 0 0 8.247 2.609 26.789 26.789 0 0 0 9.07-2.007" class="prefix__cls-27" data-name="Path 102" transform="translate(515.153 101.243)"/>
                <path id="prefix__Path_103" d="M550.2 96.37l7.244.482c5.117.381 9.632 4.013 12.582 8.689" class="prefix__cls-27" data-name="Path 103" transform="translate(553.86 97.347)"/>
                <path id="prefix__Path_104" d="M528.785 33.06c-12.7 0-15.913 9.652-14.909 21.852s6.02 27.953 14.909 27.953 15.09-8.027 16.615-22.535-3.913-27.27-16.615-27.27z" class="prefix__cls-19" data-name="Path 104" transform="translate(517.122 33.616)"/>
                <path id="prefix__Path_105" d="M513.736 55.286s.241-11 4.435-13.224 2.869 0 10.294-1.5 10.535.838 11.859 6.457 5.538 8.027 6.02 12.04c0 0 4.475-23.378-14.368-26.789s-20.006 17.197-18.24 23.016z" class="prefix__cls-17" data-name="Path 105" transform="translate(516.56 32.439)"/>
                <path id="prefix__Path_106" d="M515.357 60.327a24.5 24.5 0 0 1-2.308-15.592c1.686-8.749 8.027-13.545 17.7-13.545s22.374 12.14 16.051 30.321c0 0 2.247-26.548-17.859-26.548-18.058 0-13.584 25.364-13.584 25.364z" class="prefix__cls-3" data-name="Path 106" transform="translate(516.062 31.733)"/>
                <path id="prefix__Path_107" d="M529.565 47.982s3.231-5.639 7.666-3.833-1.2 15.21-9.351 13.4z" class="prefix__cls-19" data-name="Path 107" transform="translate(531.392 44.419)"/>
                <path id="prefix__Path_108" d="M534.2 45.1s-4.756 2.629-4.936 7.224" class="prefix__cls-27" data-name="Path 108" transform="translate(532.781 45.736)"/>
                <path id="prefix__Path_109" d="M533.05 49.741s-1.1-2.629-2.97-3.191" class="prefix__cls-27" data-name="Path 109" transform="translate(533.606 47.195)"/>
                <path id="prefix__Path_110" d="M535 53.233a3.813 3.813 0 1 1-1.117-2.716A3.833 3.833 0 0 1 535 53.233z" class="prefix__cls-12" data-name="Path 110" transform="translate(530.838 50.064)"/>
                <path id="prefix__Path_111" d="M412.66 169.76v185.334c0 4.936 22.575 8.95 50.407 8.95s50.407-4.013 50.407-8.95V169.76z" class="prefix__cls-3" data-name="Path 111" transform="translate(415.405 171.225)"/>
                <path id="prefix__Path_112" d="M444.907 363.763v-194H418.6v191.111a170.111 170.111 0 0 0 26.307 2.89z" class="prefix__cls-15" data-name="Path 112" transform="translate(421.385 171.225)"/>
                <path id="prefix__Path_113" d="M412.66 268.889a228.342 228.342 0 0 0 43.083-12.481 93.59 93.59 0 0 0 57.731-86.647H412.66z" class="prefix__cls-15" data-name="Path 113" transform="translate(415.405 171.225)"/>
                <path id="prefix__Path_114" d="M409.73 161.36v18.5c0 5.5 25.2 10.033 56.186 10.033s56.307-4.475 56.307-10.033v-18.5z" class="prefix__cls-3" data-name="Path 114" transform="translate(412.456 162.769)"/>
                <path id="prefix__Path_115" d="M522.273 166.393c0 5.518-25.2 10.033-56.307 10.033s-56.186-4.475-56.186-10.033 25.2-10.033 56.186-10.033 56.307 4.535 56.307 10.033z" class="prefix__cls-16" data-name="Path 115" transform="translate(412.506 157.736)"/>
                <path id="prefix__Path_116" d="M446.462 51.8s-14.408.6-18.6 20.709c-3.853 18.441-8.348 33.953-15.07 41.277a2.508 2.508 0 0 0 .462 3.712c4.575 3.271 16.294 9.592 38.608 10.033 23.719.522 38.126-4.836 43.524-7.3a2.528 2.528 0 0 0 1.2-3.431 161.556 161.556 0 0 1-13.224-36.842c-4.492-21.093-16.051-33.858-36.9-28.158z" class="prefix__cls-17" data-name="Path 116" transform="translate(414.913 51.114)"/>
                <path id="prefix__Path_117" d="M455.479 86.877c-15.05-6.3-32.749 14.408-40.775 34.334s-16.9 47.357-18.06 57.711c-1.726 16.053 12.04 23 28.234 11.4 13.484-9.634 54.058-93.652 30.601-103.445z" class="prefix__cls-20" data-name="Path 117" transform="translate(399.135 86.632)"/>
                <path id="prefix__Path_118" d="M454.708 139.831s-44.146 12.542-63.852 29.919-8.528 47.176 19.123 45.23 94.513-48.7 94.513-48.7l-1.164-14.167s-30.359-15.151-48.62-12.282z" class="prefix__cls-18" data-name="Path 118" transform="translate(383.43 140.733)"/>
                <path id="prefix__Path_119" d="M399.9 205.387c6.02-.421 14.047-3.03 22.856-6.823l-.441-14.769L459.638 149s-36.842 1.826-58.695 24.8c-6.12 6.441-9.01 17.9-10.033 31.023a32.406 32.406 0 0 0 8.99.564z" class="prefix__cls-23" data-name="Path 119" transform="translate(393.51 150.327)"/>
                <path id="prefix__Path_120" d="M532.146 199.576c-27.832 21.25-75.009 49.484-75.009 49.484l-23.5 39.009-5.537 9.231-4.194 6.943c-9.732 16.053-18.742 31.1-22.434 37.163a81.552 81.552 0 0 0-8.027 18.06 93.3 93.3 0 0 0-3.512 15.331 1.565 1.565 0 0 1-.4.863l-.321.261a1.786 1.786 0 0 1-2.849-.963l-.722-3.03s-20.067 10.876-25.906 12.963c-4.013 1.445 2.007-9.331 7.525-20.227a147.359 147.359 0 0 0 6.4-13.625c2.308-6.18 7.605-32.949 14.448-61.363.722-3.09 1.5-6.181 2.268-9.271s1.4-5.558 2.127-8.328c5.859-22.434 12.5-43.484 19.184-53.718 16.856-25.806 89.155-71.517 95.918-73.2s50.808 0 50.808 0 1.545 33.147-26.267 54.417z" class="prefix__cls-28" data-name="Path 120" transform="translate(360.814 145.703)"/>
                <path id="prefix__Path_121" d="M375.517 212.07v.281c-.763 3.09-1.545 6.18-2.268 9.271 0 0 5.7 15.652 30.1 23.979l5.7-9.431 4.194-6.943 3.652-6.261z" class="prefix__cls-29" data-name="Path 121" transform="translate(375.733 213.816)"/>
                <path id="prefix__Path_122" d="M393.447 251.61a93.292 93.292 0 0 0-3.512 15.331 1.565 1.565 0 0 1-.4.863l-.321.261a1.786 1.786 0 0 1-2.849-.963l-.722-3.03s-20.067 10.876-25.906 12.963c-4.013 1.445 2.007-9.331 7.525-20.227a3.531 3.531 0 0 0 2.348 3.612c4.151 1.58 17.736-5.459 23.837-8.81z" class="prefix__cls-17" data-name="Path 122" transform="translate(360.814 253.619)"/>
                <path id="prefix__Path_123" d="M516.11 199.546C488.278 220.8 441.1 249.03 441.1 249.03l-29.016 48.28a57.25 57.25 0 0 1-37.725-16.876c6.341-25.424 13.705-50.608 21.311-62.046 19.164-28.836 89.156-71.517 95.918-73.2s50.808 0 50.808 0 1.526 33.087-26.286 54.358z" class="prefix__cls-18" data-name="Path 123" transform="translate(376.85 145.733)"/>
                <path id="prefix__Path_124" d="M390.644 186c-5.8 13.123-11.358 32.728-16.294 52.514a57.25 57.25 0 0 0 37.725 16.876l29.016-48.28c-12.08 2.19-38.708-13.585-50.447-21.11z" class="prefix__cls-23" data-name="Path 124" transform="translate(376.84 187.573)"/>
                <path id="prefix__Path_125" d="M497.556 158.31s-21.05 22.876-68.226 53.036l-13.063 9.331-26.087 46.815" class="prefix__cls-30" data-name="Path 125" transform="translate(392.776 159.699)"/>
                <path id="prefix__Path_126" d="M399.58 185.835a543.022 543.022 0 0 1 54.179-37.705" class="prefix__cls-30" data-name="Path 126" transform="translate(402.238 149.451)"/>
                <path id="prefix__Path_127" d="M448.2 147.3s-5.017 13.746 4.013 18.863a7.3 7.3 0 0 0 10.7-4.756c1-4.334 2.649-16.254 2.649-16.254z" class="prefix__cls-31" data-name="Path 127" transform="translate(449.78 146.451)"/>
                <path id="prefix__Path_128" d="M418.751 224.013l-5.538 9.231-4.194 6.943a45.712 45.712 0 0 1-35.8-14.548 42.32 42.32 0 0 1 4.395-17.6c4.837 5.941 18.02 18.342 41.137 15.974z" class="prefix__cls-12" data-name="Path 128" transform="translate(375.703 209.76)"/>
                <path id="prefix__Path_129" d="M431.381 324.724a1.846 1.846 0 0 1-2.99.662l-1.585-1.525s-12.762 25.886-14.147 23.578c-.843-1.425-.582-11.378-1.064-20.588-.321-5.839-.943-11.358-2.368-14.207-2.227-4.415-10.655-23-18.622-44.146-1.445-3.793-2.869-7.665-4.214-11.538-.662-1.866-1.3-3.732-2.007-5.579-2.89-8.548-5.4-17-7.144-24.622-7.344-32.106 2.709-63.009 19.705-72.239l23.2 23.6c8.93 18.541 10.836 42.36 10.354 63.972q0 4.395-.3 8.609c-.181 3.552-.421 7.023-.662 10.354-1.3 16.836-3.351 30.341-3.191 35.718a72.1 72.1 0 0 0 1.063 10.194 99.417 99.417 0 0 0 4.013 15.311 3.43 3.43 0 0 1-.041 2.446z" class="prefix__cls-28" data-name="Path 129" transform="translate(377.3 155.884)"/>
                <path id="prefix__Path_130" d="M377.184 205.378c1.746 7.625 4.254 16.053 7.144 24.622.622 1.846 1.264 3.712 2.007 5.579 1.344 3.873 2.769 7.746 4.214 11.538.482 1.3.983 2.589 1.465 3.873l2.368 2.869c15.953 2.007 27.21-2.488 34.615-7.685.2-2.127.381-4.314.562-6.562.241-3.331.482-6.8.662-10.354q.2-4.214.3-8.609a183.145 183.145 0 0 0-3.793-44.748l-51.711 2.328a95.459 95.459 0 0 0 2.167 27.15z" class="prefix__cls-29" data-name="Path 130" transform="translate(377.318 177.406)"/>
                <path id="prefix__Path_131" d="M412.926 248.239a1.846 1.846 0 0 1-2.99.662l-1.585-1.525s-12.762 25.886-14.147 23.578c-.843-1.425-.582-11.378-1.064-20.588.883 1.545 2.328 2.589 4.675.742 3.492-2.729 8.629-14.408 11.217-20.608a99.406 99.406 0 0 0 4.013 15.311 3.431 3.431 0 0 1-.119 2.428z" class="prefix__cls-17" data-name="Path 131" transform="translate(395.755 232.369)"/>
                <path id="prefix__Path_132" d="M430.548 243.1q0 4.395-.3 8.609l-21.05 9.692-22.836-3.371a56.021 56.021 0 0 0-2.007-5.578c-4.615-10.756-5.4-17-7.144-24.622-7.344-32.106 2.709-63.009 19.705-72.24 12.2-6.622 23.2 3.672 23.2 23.6 9.007 18.484 10.914 42.303 10.432 63.91z" class="prefix__cls-18" data-name="Path 132" transform="translate(377.27 154.949)"/>
                <path id="prefix__Path_133" d="M395.279 253.428l19-8.749q.2-4.214.3-8.609c.482-21.612-1.425-45.431-10.354-63.972a43.328 43.328 0 0 0-1.445-11.518c-.522.522-1.063 1.044-1.565 1.565-15.568 16.274-10.391 64.474-5.936 91.283z" class="prefix__cls-23" data-name="Path 133" transform="translate(393.335 161.984)"/>
                <path id="prefix__Path_134" d="M397.41 166.32c8.388 17.438 10.535 43.424 10.354 63.972" class="prefix__cls-30" data-name="Path 134" transform="translate(400.054 167.762)"/>
                <path id="prefix__Path_135" d="M425.7 198.2a49.783 49.783 0 0 1-.963 18.963 110.949 110.949 0 0 1-39.009 7.5c-2.127-5.619-4.214-11.378-6.14-17.117A109.321 109.321 0 0 0 425.7 198.2z" class="prefix__cls-12" data-name="Path 135" transform="translate(382.115 199.854)"/>
                <path id="prefix__Path_136" d="M466.751 81.618c-42.3-5.418-55.022 33.19-58.594 57.471s11.338 31.183 11.338 31.183-4.195 17.538-2.308 25.928 52.695 26.949 89.878 16.6c20.367-5.679 16.053-78.259 8.609-100.794s-32.548-28.281-48.923-30.388z" class="prefix__cls-20" data-name="Path 136" transform="translate(410.316 81.979)"/>
                <path id="prefix__Path_137" d="M476.914 91.89s-16.655 3.171-18.381 23.438S427.43 140.812 427.61 149a7.846 7.846 0 0 0 3.632 6.3 21.692 21.692 0 0 1 9.271 14.749c1.465 11.1 6.883 27.27 25.3 34.956a88.156 88.156 0 0 0 21.11-2.99c4.615-1.284 8.027-6.02 10.294-12.8a51.571 51.571 0 0 0 .1-31.946z" class="prefix__cls-21" data-name="Path 137" transform="translate(430.454 92.837)"/>
                <path id="prefix__Path_138" d="M419.976 92.34c-6.883 11.277-10.234 24.782-11.819 35.518-3.572 24.361 11.338 31.183 11.338 31.183" class="prefix__cls-22" data-name="Path 138" transform="translate(410.316 93.29)"/>
                <path id="prefix__Path_139" d="M432.757 97.72s-18.281 25.585-6.782 46.715c10.816 19.866-.8 35.076 6.2 49.925" class="prefix__cls-25" data-name="Path 139" transform="translate(424.986 98.706)"/>
                <path id="prefix__Path_140" d="M448.571 77.077c-18.642-.482-24.461 12.461-27.311 28.816a7.807 7.807 0 0 0 2.207 2.007 23.578 23.578 0 0 1 7.786 9.211 19.642 19.642 0 0 0 1.846 3.09s1.665-2.007 3.732-4.214a26.086 26.086 0 0 1 13.826-8.027 22.816 22.816 0 0 0 6.461-2.147c3.292-2.028 14.409-28.134-8.547-28.736z" class="prefix__cls-12" data-name="Path 140" transform="translate(424.062 77.912)"/>
                <path id="prefix__Path_141" d="M428.8 87.845l-1.647 16.055a69.515 69.515 0 0 0 .442 18.6s9.471-10.033 12.762-13.043 8.027-12.3 7.344-22.956-1.345-14.267-1.345-14.267-15.611-1.365-17.556 15.611z" class="prefix__cls-28" data-name="Path 141" transform="translate(429.567 73.023)"/>
                <path id="prefix__Path_142" d="M446.856 79.988c-.5-5.679-.843-7.766-.843-7.766s-15.613-1.344-17.558 15.612l-1.385 13.485c8.23-.14 16.414-8.588 19.786-21.331z" class="prefix__cls-29" data-name="Path 142" transform="translate(429.911 73.013)"/>
                <path id="prefix__Path_143" d="M460.758 91.513c-15.893 3.632-16.174 25.846-11.137 46.735s11.137 50.487 18.9 57.43 23.939 8.388 29.618-7.144-12.599-102.7-37.381-97.021z" class="prefix__cls-20" data-name="Path 143" transform="translate(449.7 92.19)"/>
                <path id="prefix__Path_144" d="M460.758 91.38c-15.893 3.632-16.174 25.846-11.137 46.735 4.415 18.281 9.632 43.223 16.053 53.818" class="prefix__cls-22" data-name="Path 144" transform="translate(449.7 92.324)"/>
                <path id="prefix__Path_145" d="M427.158 100.767c-4.013 2.007 7.445 13.906 7.445 13.906s-8.468.562-6.02 7.384c0 0-3.692 3.351.321 9.05 0 0-5.318 4.936 0 9.311a8.869 8.869 0 0 0 8.267 1.3 9.391 9.391 0 0 0 7.043 1.686s23.217 45.852 47.7 48.019 30.1-24.762-30.561-63.651c.018.004-25.988-30.979-34.195-27.005z" class="prefix__cls-28" data-name="Path 145" transform="translate(429.141 101.418)"/>
                <path id="prefix__Path_146" d="M427.89 109.521a8.789 8.789 0 0 1 5.117-2.007 14.809 14.809 0 0 1 5.839.983" class="prefix__cls-32" data-name="Path 146" transform="translate(430.736 108.556)"/>
                <path id="prefix__Path_147" d="M429.05 119.661a36.119 36.119 0 0 0 7.465-.341" class="prefix__cls-32" data-name="Path 147" transform="translate(431.904 120.449)"/>
                <path id="prefix__Path_148" d="M430.91 119.52a3.532 3.532 0 0 1 1.645 2.97" class="prefix__cls-32" data-name="Path 148" transform="translate(433.776 120.651)"/>
                <path id="prefix__Path_149" d="M427.61 116.082a38.908 38.908 0 0 1 10.033-.662" class="prefix__cls-32" data-name="Path 149" transform="translate(430.454 116.444)"/>
                <path id="prefix__Path_150" d="M438.125 111.251a28.093 28.093 0 0 0-10.675.281" class="prefix__cls-32" data-name="Path 150" transform="translate(430.293 111.943)"/>
                <path id="prefix__Path_151" d="M411.267 99.458l24.08 66.9a3.632 3.632 0 0 1-2.107 4.736l-3.431 1.244a3.632 3.632 0 0 0 2.167-4.655l-24.08-66.9a3.612 3.612 0 0 0-4.636-2.183l3.431-1.244a3.632 3.632 0 0 1 4.575 2.107z" class="prefix__cls-17" data-name="Path 151" transform="translate(405.943 98.131)"/>
                <rect id="prefix__Rectangle_28" width="51.109" height="78.4" class="prefix__cls-26" data-name="Rectangle 28" rx="1.81" transform="rotate(-19.85 990.19 -2078.048)"/>
                <path id="prefix__Path_152" d="M405.2 120.187a4.6 4.6 0 1 1-5.879-2.749 4.6 4.6 0 0 1 5.879 2.749z" class="prefix__cls-4" data-name="Path 152" transform="translate(398.924 118.278)"/>
                <path id="prefix__Path_153" d="M398.933 121.663c-2.729-4.314-11.8 3.09-14.328 5.759s-1.826 9.833 6.02 6.742 10.275-9.411 8.308-12.501z" class="prefix__cls-28" data-name="Path 153" transform="translate(385.848 121.478)"/>
                <path id="prefix__Path_154" d="M396.553 123.611c-3.752-.381-10.274 4.154-10.836 7.224a5.064 5.064 0 0 0 0 .763 11.077 11.077 0 0 0 2.568-.7 14.207 14.207 0 0 0 8.267-7.284z" class="prefix__cls-29" data-name="Path 154" transform="translate(388.269 124.747)"/>
                <path id="prefix__Path_155" d="M397.96 126.29c-2.428-3.772-12.22 2.247-12.923 6.02s3.672 6.642 8.428 4.013c6.181-3.571 6.04-7.645 4.495-10.033z" class="prefix__cls-28" data-name="Path 155" transform="translate(387.524 126.262)"/>
                <path id="prefix__Path_156" d="M396.3 127.14c-3.692.9-8.308 4.455-8.769 7.023a4.135 4.135 0 0 0 0 1.1 7.605 7.605 0 0 0 3.451-1.064c4.031-2.323 5.356-4.892 5.318-7.059z" class="prefix__cls-29" data-name="Path 156" transform="translate(390.069 128.321)"/>
                <path id="prefix__Path_157" d="M399.71 129.93c-2.428-3.772-12.22 2.247-12.923 6.02s3.672 6.642 8.428 4.013c6.121-3.571 6.121-7.645 4.495-10.033z" class="prefix__cls-28" data-name="Path 157" transform="translate(389.285 129.926)"/>
                <path id="prefix__Path_158" d="M398.02 130.9c-3.672.9-8.247 4.455-8.729 7a4.45 4.45 0 0 0 0 .883 7.706 7.706 0 0 0 3.411-1.064c3.898-2.244 5.258-4.612 5.318-6.819z" class="prefix__cls-29" data-name="Path 158" transform="translate(391.859 132.106)"/>
                <path id="prefix__Path_159" d="M401.46 133.6c-2.428-3.773-12.22 2.247-12.923 6.02s3.672 6.642 8.428 4.013c6.181-3.633 6.04-7.705 4.495-10.033z" class="prefix__cls-28" data-name="Path 159" transform="translate(391.047 133.62)"/>
                <path id="prefix__Path_160" d="M440.642 54.49c-16.214 0-18.9 16.214-19.2 29.117s3.592 25.806 13.645 25.806 20.067-12.461 21.451-30.1S452.3 54.49 440.642 54.49z" class="prefix__cls-28" data-name="Path 160" transform="translate(424.225 55.188)"/>
                <path id="prefix__Path_161" d="M439.168 71.331s1.806-4.495 5.558-4.194 2.107 16.053-8.027 15.15z" class="prefix__cls-28" data-name="Path 161" transform="translate(439.605 67.905)"/>
                <path id="prefix__Path_162" d="M442.706 68.92s-4.756 2.629-4.936 7.224" class="prefix__cls-32" data-name="Path 162" transform="translate(440.682 69.714)"/>
                <path id="prefix__Path_163" d="M441.57 73.6s-1.1-2.629-2.97-3.191" class="prefix__cls-32" data-name="Path 163" transform="translate(441.518 71.214)"/>
                <path id="prefix__Path_164" d="M421.814 77.005s2.288-10.7 9.411-8.829a45.271 45.271 0 0 0 16.495 15.291c5.177 2.629 9.913 2.408 10.9-1.063a31.244 31.244 0 0 0 0-14.227c-3.15-16.956-18.16-18.762-28.514-12.461s-8.292 21.289-8.292 21.289z" class="prefix__cls-17" data-name="Path 164" transform="translate(424.451 53.06)"/>
                <path id="prefix__Path_165" d="M248.209 66.053c-17.618 2.528-23.277 16.876-24.441 31.123s-.582 20.067-7.264 27.05.281 14.267.281 14.267-7.565 38.126 14.267 43.625a34.8 34.8 0 0 0 20.93-18.318c7.565-15.13 11.358-55.564 12.221-70.393s-5.82-28.819-15.994-27.354z" class="prefix__cls-18" data-name="Path 165" transform="translate(215.026 66.722)"/>
                <path id="prefix__Path_166" d="M220.939 145.487a30.1 30.1 0 0 0-1.585-12.221 10.515 10.515 0 0 1 2.227-10.936c6.7-7.565 6.02-13.866 7.284-29.3.7-9.311 3.05-18.642 8.649-25.183-9.371 5.7-12.863 16.575-13.746 27.411-1.164 14.267-.582 20.067-7.264 27.05s.281 14.267.281 14.267-6.4 32.688 9.933 41.939c-6.518-8.947-6.518-23.914-5.779-33.027z" data-name="Path 166" transform="translate(215.026 68.637)" style="fill:#6aa0c2"/>
                <path id="prefix__Path_167" d="M231.489 123.172c-6.863 3.772-11.418 3.472-4.6 20.849s-6.843 24.26-7.1 24.381a17.578 17.578 0 0 0 5.037 2.147 34.8 34.8 0 0 0 20.929-18.321c7.565-15.13 11.358-55.564 12.22-70.393v-3.412l-4.956-1c-18.44 16.793-14.748 41.956-21.53 45.749z" class="prefix__cls-23" data-name="Path 167" transform="translate(221.252 78.271)"/>
                <path id="prefix__Path_168" d="M247.557 113.785s10.675 10.435 11.719 32.588a8.328 8.328 0 0 1-8.99 8.709c-10.555-.823-29.157-5.839-48.4-27.913 0 0-13.5 2.007-16.053-10.033s5.819-26.086 5.819-26.086l20.909 9.833s21.993 5.638 34.996 12.902z" class="prefix__cls-34" data-name="Path 168" transform="translate(186.582 91.991)"/>
                <path id="prefix__Path_169" d="M220.1 143.757h.161a7.485 7.485 0 0 0 7.846-7.665c-.722-22.916-11.759-33.712-11.759-33.712a67.383 67.383 0 0 1 3.752 41.377z" class="prefix__cls-29" data-name="Path 169" transform="translate(217.789 103.397)"/>
                <path id="prefix__Path_170" d="M194.924 118.287c5.8 6.642 14.97 0 14.97-6.642s-3.873-14.047-.14-25.224c0 0-.14-4.294-5.117-3.191s-5.278 13.445-5.278 13.445-13.846 10.816-4.435 21.612z" class="prefix__cls-34" data-name="Path 170" transform="translate(192.921 83.938)"/>
                <path id="prefix__Path_171" d="M193.81 104.522c5.5 4.535 13.083-.843 13.846-6.742" class="prefix__cls-32" data-name="Path 171" transform="translate(195.099 98.766)"/>
                <path id="prefix__Path_172" d="M194.289 104.8c4.234 1.324 4.234 10.374-5.819 8.328s-7.3-12.542-1.605-10.515a36.844 36.844 0 0 0 7.425 2.187z" class="prefix__cls-34" data-name="Path 172" transform="translate(182.961 103.368)"/>
                <path id="prefix__Path_173" d="M194.72 100.912c4.334 1.344 4.334 10.615-6.02 8.508s-7.465-12.843-1.645-10.756a39.694 39.694 0 0 0 7.665 2.248z" class="prefix__cls-34" data-name="Path 173" transform="translate(183.012 99.387)"/>
                <path id="prefix__Path_174" d="M196.135 97.125c4.7 1.465 4.7 11.518-6.5 9.251s-8.027-14.047-1.786-11.679a41.817 41.817 0 0 0 8.286 2.428z" class="prefix__cls-34" data-name="Path 174" transform="translate(183.403 95.348)"/>
                <path id="prefix__Path_175" d="M197.445 92.5c4.7 1.465 4.7 11.538-6.5 9.251s-8.027-14.047-1.786-11.679a41.818 41.818 0 0 0 8.287 2.428z" class="prefix__cls-34" data-name="Path 175" transform="translate(184.722 90.687)"/>
                <path id="prefix__Path_176" d="M188.441 103.71a4.395 4.395 0 0 1-.261 7.585" class="prefix__cls-32" data-name="Path 176" transform="translate(189.432 104.736)"/>
                <path id="prefix__Path_177" d="M195.543 100.22a4.535 4.535 0 0 1-1.565 7 11.6 11.6 0 0 1-11.3-2.207" class="prefix__cls-32" data-name="Path 177" transform="translate(183.895 101.222)"/>
                <path id="prefix__Path_178" d="M195.621 95.85a4.876 4.876 0 0 1-.6 8.769 10.876 10.876 0 0 1-6.4.281 10.715 10.715 0 0 1-5.418-2.609" class="prefix__cls-32" data-name="Path 178" transform="translate(184.419 96.823)"/>
                <path id="prefix__Path_179" d="M197.648 92.78a5.1 5.1 0 0 1-4.977 6.16 12.461 12.461 0 0 1-4.371-.24 15.391 15.391 0 0 1-2.167-.6" class="prefix__cls-32" data-name="Path 179" transform="translate(187.368 93.733)"/>
                <path id="prefix__Path_180" d="M322.863 262.424c.7 2.99 1.023 4.936 1.023 4.936-30.923 23.478-71.316 25.565-71.316 25.565a46.972 46.972 0 0 1 2.007-5.358 131.253 131.253 0 0 1 18.722-30.6c8.91-10.776 35.959-26.086 42.14-15.09a83.757 83.757 0 0 1 7.425 20.548z" class="prefix__cls-17" data-name="Path 180" transform="translate(254.25 239.996)"/>
                <path id="prefix__Path_181" d="M323.886 254.018c-30.923 23.478-71.316 25.565-71.316 25.565a46.958 46.958 0 0 1 2.007-5.358c10.956-1.425 40.013-6.482 64.353-22.394a3.271 3.271 0 0 1 4.956 2.187z" class="prefix__cls-31" data-name="Path 181" transform="translate(254.25 253.338)"/>
                <path id="prefix__Path_182" d="M283.723 252.649l-7.063-5.779h-2.247c-.4.441-.8.883-1.144 1.3a131.254 131.254 0 0 0-18.722 30.6c-.742 1.766-1.385 3.572-2.007 5.358a150.5 150.5 0 0 0 35.257-7.2z" data-name="Path 182" transform="translate(254.22 248.848)" style="opacity:.4;fill:#0c1a3c"/>
                <path id="prefix__Path_183" d="M333.445 353.992c-17.638 17.358-48.16 18.8-48.16 18.8-1.023-2.829-2.769-6.863-5.017-11.8-13.485-29.6-44.989-91.383-45.671-116.506-.8-29.277 2.91-113.5 2.91-113.5l64.213-.783-8.007 115.964c12.221 27.892 28.715 70.694 36.9 92.306 1.766 4.6 3.13 8.227 4.013 10.535a4.8 4.8 0 0 1-1.184 4.977z" class="prefix__cls-26" data-name="Path 183" transform="translate(236.043 131.412)"/>
                <path id="prefix__Path_184" d="M311.811 248.288c-17.378 18.622-49.524 20.066-49.524 20.066-1.023-2.829-2.769-6.863-5.017-11.8 9.612-3.532 33.812-7.144 50.367-22.675 2.247 5.859 3.853 10.154 4.615 12.14a2.007 2.007 0 0 1-.441 2.269z" class="prefix__cls-36" data-name="Path 184" transform="translate(258.981 235.771)"/>
                <path id="prefix__Path_185" d="M305.377 240.164c-4.856-12.04-9.752-23.859-14.047-33.792l2.508-36.722c-33.491 8.829-52.032 28.093-56.989 57.069 9.391 29.538 30.581 71.678 41.016 94.574 2.247 4.936 4.013 8.97 5.017 11.8a99.264 99.264 0 0 0 28.093-6.281c-2.327-8.931-7.604-36.261-5.598-86.648z" class="prefix__cls-37" data-name="Path 185" transform="translate(238.426 171.114)"/>
                <path id="prefix__Path_186" d="M287.042 209.787c-2.007-4.8-3.873-9.512-5.759-14.047l-27.873 82.794c2.91 6.16 5.558 11.8 7.746 16.575s4.013 8.97 5.017 11.8a96.838 96.838 0 0 0 16.675-2.709c-5.82-43.4 2.408-85.865 4.194-94.413z" class="prefix__cls-37" data-name="Path 186" transform="translate(255.096 197.378)"/>
                <path id="prefix__Path_187" d="M249.49 163.54s-1.525 40.273-.763 49.624 48.34 104.205 48.34 104.205" class="prefix__cls-38" data-name="Path 187" transform="translate(250.167 164.964)"/>
                <path id="prefix__Path_188" d="M251.382 131.49s-4.134 23.919-5.438 30.862a12.04 12.04 0 0 0 3.692 11.1" class="prefix__cls-38" data-name="Path 188" transform="translate(247.371 132.7)"/>
                <path id="prefix__Path_189" d="M299.281 283.412a202.832 202.832 0 0 1-78.681.783c1.144-1.505 4.013-7.224 5.217-8.629a130.833 130.833 0 0 1 27.933-22.495c12.04-7.144 42.681-12.4 44.728 0 1.322 7.886.803 30.341.803 30.341z" class="prefix__cls-17" data-name="Path 189" transform="translate(222.067 247.583)"/>
                <path id="prefix__Path_190" d="M294.064 262.633c-10.535 1.846-36.12 4.856-69.912-.843-1.284 2.227-2.789 5.117-3.552 6.02a202.833 202.833 0 0 0 78.681-.783 4.455 4.455 0 0 0-5.217-4.394z" class="prefix__cls-31" data-name="Path 190" transform="translate(222.067 263.867)"/>
                <path id="prefix__Path_191" d="M272.975 136s-32.387 128.523-37.825 239.792l49.905.883s23.378-117.048 35.859-169.221 5.338-82.634 5.338-82.634z" class="prefix__cls-26" data-name="Path 191" transform="translate(236.714 125.986)"/>
                <path id="prefix__Path_192" d="M264.492 138.24c-5.659 24.461-16.535 74.688-24.642 130.974" class="prefix__cls-38" data-name="Path 192" transform="translate(241.445 139.495)"/>
                <path id="prefix__Path_193" d="M261.92 278c3.592-17.7 9.291-45.591 15.251-73.945" class="prefix__cls-38" data-name="Path 193" transform="translate(263.662 205.743)"/>
                <path id="prefix__Path_194" d="M293.578 144.71s-1.766 33.05-21.25 104.707c0 0-12.04 53.4-17.4 92.627" class="prefix__cls-38" data-name="Path 194" transform="translate(256.626 146.008)"/>
                <path id="prefix__Path_195" d="M287.154 125.19l-16.254 3.391 1.786 9.01s-2.007 12.642 6.682 15.953c-.04 0 7.786-9.572 7.786-28.354z" class="prefix__cls-36" data-name="Path 195" transform="translate(272.702 126.358)"/>
                <path id="prefix__Path_196" d="M255.235 188.281c-12.04-1.023-19.6 34.354-5.458 36.12s19.444-34.956 5.458-36.12z" class="prefix__cls-36" data-name="Path 196" transform="translate(243.719 189.847)"/>
                <path id="prefix__Path_197" d="M237.986 242.458a201.106 201.106 0 0 0 50.066 2.97 1.545 1.545 0 0 1 1.665 1.746l-1.786 12.6a2.769 2.769 0 0 1-2.348 2.348c-6.923 1.043-30.1 3.772-50.166-2.448a1.826 1.826 0 0 1-1.284-1.886l.8-12.923a2.629 2.629 0 0 1 3.05-2.408z" class="prefix__cls-36" data-name="Path 197" transform="translate(235.685 244.371)"/>
                <path id="prefix__Path_198" d="M234 71.568s27.451-9.752 32.989-10.555 41.457.261 48.842 4.756 31.685 85.343 23.377 122.606a4.375 4.375 0 0 1-2.007 2.769c-6.5 3.873-33.23 17.137-88.674 12.16 0 0-9.231-4.013-9.491-7.384s4.214-14.789 3.171-18.22-16.374-50.427-16.635-67.062S234 71.568 234 71.568z" class="prefix__cls-18" data-name="Path 198" transform="translate(227.068 61.508)"/>
                <path id="prefix__Path_199" d="M225.62 92.035c.7 8.749 4.254 23.137 7.906 36.12 74.768 1.746 85.985-11.017 85.985-11.017l-6.26-35.538s-24.883 12.843-87.631 10.435z" class="prefix__cls-4" data-name="Path 199" transform="translate(227.121 82.479)"/>
                <path id="prefix__Path_200" d="M309.616 182.513c6.843-30.642-8.448-90.761-18.06-113.637a40.354 40.354 0 0 0-19.184-1.866s-17.879 16.174-17.4 41.156a300.49 300.49 0 0 0 4.515 42.14 67.1 67.1 0 0 1-.2 23.518 100.756 100.756 0 0 0-1.605 24.2c29.658-2.007 45.25-9.913 49.986-12.742a4.374 4.374 0 0 0 1.946-2.769z" class="prefix__cls-23" data-name="Path 200" transform="translate(256.661 67.37)"/>
                <path id="prefix__Path_201" d="M238.465 158.088c-4.876-15.933-12.7-43.2-12.883-55.063s4.334-27.331 6.863-34.7" class="prefix__cls-30" data-name="Path 201" transform="translate(227.078 69.12)"/>
                <path id="prefix__Path_202" d="M282.37 63.307c-18.06-2.127-24.8 32.427-23.378 41.016s12.04 9.13 14.588 15.431 1.425 18.3 4.013 22.575 11.719 9.732 30.1 11.739 24.08-9.732 24.581-13.725-6.02-7.144-7.144-12.04.582-11.438-1.706-14.047-9.732-3.712-10.876-4.013-9.389-44.488-30.178-46.936z" class="prefix__cls-18" data-name="Path 202" transform="translate(260.53 63.969)"/>
                <path id="prefix__Path_203" d="M296.836 89.136a180.2 180.2 0 0 1-26.086-4.8" class="prefix__cls-30" data-name="Path 203" transform="translate(272.551 85.237)"/>
                <path id="prefix__Path_204" d="M306.206 97.716S287.163 94.2 274.26 95.85" class="prefix__cls-30" data-name="Path 204" transform="translate(276.084 96.382)"/>
                <path id="prefix__Path_205" d="M274.535 63.53c-6.02 2.007-10.535 8.57-13.465 16.053" class="prefix__cls-30" data-name="Path 205" transform="translate(262.807 64.288)"/>
                <path id="prefix__Path_206" d="M260.63 86.73c3.772 3.391 9.331 5.017 11.117 9.351 2.007 4.716 1.766 12.642 2.649 18.06" class="prefix__cls-30" data-name="Path 206" transform="translate(262.364 87.643)"/>
                <path id="prefix__Path_207" d="M291.591 103.972s27.953-8.749 43.805 6.261c0 0-14.809 29-36.12 45.471 0 0-6.3 10.294-21.752 16.976s-32.909-11.277-26.588-16.194c2.007-1.5-7-8.428 6.783-12.823s19.806-3.15 19.806-3.15 6.983-26.307 14.066-36.541z" class="prefix__cls-34" data-name="Path 207" transform="translate(251.268 102.447)"/>
                <path id="prefix__Path_208" d="M254.648 135.883c1.344-3.512-4.515-5.237.421-12.9-9.853 4.375-2.348 10.435-4.114 11.819-6.321 4.916 11.157 22.876 26.588 16.194-11.999 2.124-24.38-11.22-22.895-15.113z" class="prefix__cls-29" data-name="Path 208" transform="translate(251.289 124.134)"/>
                <path id="prefix__Path_209" d="M314.335 110.232c-15.853-15.01-43.805-6.261-43.805-6.261a58.474 58.474 0 0 1 39.31 14.167c2.89-4.775 4.495-7.906 4.495-7.906z" class="prefix__cls-29" data-name="Path 209" transform="translate(272.33 102.447)"/>
                <path id="prefix__Path_210" d="M264.118 124.313a45.691 45.691 0 0 1 20.488 17.057l4.314-3.05a2.007 2.007 0 0 0 .542-2.809c-2.729-4.134-10.675-14.669-22.936-17.939a2.007 2.007 0 0 0-2.247 1.164l-1.2 3.11a2.007 2.007 0 0 0 1.039 2.467z" class="prefix__cls-17" data-name="Path 210" transform="translate(264.715 118.647)"/>
                <path id="prefix__Path_211" d="M280.536 127.9a5.418 5.418 0 1 1-5.4-5.4 5.418 5.418 0 0 1 5.4 5.4z" class="prefix__cls-3" data-name="Path 211" transform="translate(271.494 123.651)"/>
                <circle id="prefix__Ellipse_19" cx="3.231" cy="3.231" r="3.231" class="prefix__cls-4" data-name="Ellipse 19" transform="translate(543.401 248.318)"/>
                <path id="prefix__Path_212" d="M234.9 73.173l1.565 8.669a13.083 13.083 0 0 0 9.552 6.02 31.083 31.083 0 0 0 14.608-13.324L249.91 51.14z" class="prefix__cls-34" data-name="Path 212" transform="translate(236.463 51.816)"/>
                <path id="prefix__Path_213" d="M250.391 60.48a77.978 77.978 0 0 0-.983-8.93L234.9 72.76l1.565 8.669a4.635 4.635 0 0 0 7.284.7c5.258-5.496 7.124-14.446 6.642-21.649z" class="prefix__cls-29" data-name="Path 213" transform="translate(236.463 52.229)"/>
                <path id="prefix__Path_214" d="M232.936 39.356c-11.518 3.532-12.14 14.608-8.91 25.484s11.5 31.545 22.354 28.434 14.608-16.294 14.047-26.247-2.927-35.155-27.491-27.671z" class="prefix__cls-34" data-name="Path 214" transform="translate(223.818 38.577)"/>
                <path id="prefix__Path_215" d="M242.833 60.66a18.06 18.06 0 0 1-17.719 4.535c-10.976-2.99-15.772-19.665-7.1-28.314 6.5-6.5 16.274-6.02 23.3-2.368a16.214 16.214 0 0 0 15.632-.281l.763-.462c5.3-3.231 14.047-1.425 14.729 9.311 0 0 12.16 3.612 8.93 18.622s-4.475 19.806-4.475 19.806l-8.97-9.471-2.207.261-.3-2.007a11.6 11.6 0 0 0-5.257-8.027 7.425 7.425 0 0 1-3.231-6.481s-5.566 7.725-14.095 4.876z" class="prefix__cls-17" data-name="Path 215" transform="translate(214.964 32.404)"/>
                <path id="prefix__Path_216" d="M240.51 54.244s-.14-6.02 4.013-6.983 3.873 15.01-3.371 16.294z" class="prefix__cls-34" data-name="Path 216" transform="translate(242.11 47.869)"/>
                <path id="prefix__Path_217" d="M241.469 58.593s-1.023-7.4 2.528-10.033" class="prefix__cls-32" data-name="Path 217" transform="translate(242.937 49.219)"/>
                <path id="prefix__Path_218" d="M241.64 50.68a4.615 4.615 0 0 1 2.609 2.368" class="prefix__cls-32" data-name="Path 218" transform="translate(243.247 51.353)"/>
                <path id="prefix__Rectangle_29" d="M0 0H8.588V62.989H0z" data-name="Rectangle 29" transform="translate(75.35 328.403)" style="fill:#231f20"/>
                <path id="prefix__Path_219" d="M99 140.21H20v84.8h79c4.395 0 8.027-18.983 8.027-42.4s-3.627-42.4-8.027-42.4z" class="prefix__cls-16" data-name="Path 219" transform="translate(20.133 141.478)"/>
                <ellipse id="prefix__Ellipse_20" cx="7.946" cy="42.401" class="prefix__cls-19" data-name="Ellipse 20" rx="7.946" ry="42.401" transform="translate(32.187 281.688)"/>
                <path id="prefix__Rectangle_30" d="M0 0H8.588V95.155H0z" class="prefix__cls-16" data-name="Rectangle 30" transform="translate(105.911 393.238)"/>
                <path id="prefix__Path_220" d="M153.787 257.564v3.411H22.11v-3.411a4.956 4.956 0 0 1 4.013-4.876l61.765-11.378 61.825 11.418a4.976 4.976 0 0 1 4.074 4.836z" class="prefix__cls-16" data-name="Path 220" transform="translate(22.257 243.251)"/>
                <path id="prefix__Path_221" d="M85.358 269.618a2.569 2.569 0 0 1-2.548-2.569v-16.654a2.569 2.569 0 0 1 5.117 0v16.655a2.569 2.569 0 0 1-2.569 2.568z" class="prefix__cls-16" data-name="Path 221" transform="translate(83.361 250.039)"/>
                <path id="prefix__Path_222" d="M27.028 269.618a2.569 2.569 0 0 1-2.548-2.569v-16.654a2.569 2.569 0 0 1 5.117 0v16.655a2.569 2.569 0 0 1-2.569 2.568z" class="prefix__cls-16" data-name="Path 222" transform="translate(24.643 250.039)"/>
                <path id="prefix__Path_223" d="M38.165 261.667A8.267 8.267 0 1 1 29.9 253.4a8.267 8.267 0 0 1 8.265 8.267z" class="prefix__cls-16" data-name="Path 223" transform="translate(21.774 255.421)"/>
                <path id="prefix__Path_224" d="M80 261.667a8.267 8.267 0 1 0 8.267-8.267A8.267 8.267 0 0 0 80 261.667z" class="prefix__cls-16" data-name="Path 224" transform="translate(80.532 255.421)"/>
                <path id="prefix__Path_225" d="M101.332 190.51H51.788v2.99c-7.063 1.545-11.358 3.532-11.358 5.719s4.294 4.194 11.358 5.739v3.05h49.544c25.826 0 46.775-4.013 46.775-8.789s-20.949-8.709-46.775-8.709z" data-name="Path 225" transform="translate(40.699 192.113)" style="fill:#1a0d77"/>
                <path id="prefix__Path_226" d="M69.565 190.51c25.826 0 46.775 4.013 46.775 8.769s-20.869 8.789-46.775 8.789-46.8-4.013-46.8-8.789 20.954-8.769 46.8-8.769z" class="prefix__cls-16" data-name="Path 226" transform="translate(22.921 192.113)"/>
                <path id="prefix__Path_227" d="M251.53 197.978H85.74l8.749-23.638H251.53z" class="prefix__cls-16" data-name="Path 227" transform="translate(86.31 175.835)"/>
                <path id="prefix__Path_228" d="M266.431 197.978H109.29l8.749-23.638h148.392a8.649 8.649 0 0 1 8.649 8.649v6.321a8.649 8.649 0 0 1-8.649 8.669z" class="prefix__cls-3" data-name="Path 228" transform="translate(110.017 175.835)"/>
                <path id="prefix__Rectangle_31" d="M0 0H7.425V161.455H0z" class="prefix__cls-3" data-name="Rectangle 31" transform="translate(366.696 373.814)"/>
                <path id="prefix__Path_229" d="M182.74 204.26c3.11-4.655 5.578-8.027 7.425-10.274v-7.866h-7.425z" class="prefix__cls-15" data-name="Path 229" transform="translate(183.956 187.694)"/>
                <path id="prefix__Rectangle_32" d="M0 0H9.391V161.455H0z" class="prefix__cls-16" data-name="Rectangle 32" transform="translate(357.304 373.814)"/>
                <path id="prefix__Rectangle_33" d="M0 0H7.425V161.455H0z" class="prefix__cls-3" data-name="Rectangle 33" transform="translate(307.901 373.814)"/>
                <path id="prefix__Path_230" d="M153.44 217.464a82.146 82.146 0 0 1 7.4 8.468V186.12h-7.4z" class="prefix__cls-15" data-name="Path 230" transform="translate(154.461 187.694)"/>
                <path id="prefix__Rectangle_34" d="M0 0H9.391V161.455H0z" class="prefix__cls-16" data-name="Rectangle 34" transform="translate(298.49 373.814)"/>
                <path id="prefix__Path_231" d="M72.03 347.575h3.411l51.872-161.455h-7.4z" class="prefix__cls-3" data-name="Path 231" transform="translate(72.509 187.694)"/>
                <path id="prefix__Path_232" d="M86.658 292.954l34.333-106.834h-7.4L78.31 305.074l3.01-3.15a22.716 22.716 0 0 0 5.338-8.97z" class="prefix__cls-15" data-name="Path 232" transform="translate(78.831 187.694)"/>
                <path id="prefix__Path_233" d="M69.75 347.575h4.575L122.2 186.12h-9.411z" class="prefix__cls-16" data-name="Path 233" transform="translate(70.214 187.694)"/>
                <path id="prefix__Path_234" d="M66.818 118.838c-13.124 10.154-2.89 42.4 6.02 59.919 0 0 16.976 3.732 38.126-25.043.001-.001-24.364-50.187-44.146-34.876z" class="prefix__cls-3" data-name="Path 234" transform="translate(60.965 117.039)"/>
                <path id="prefix__Path_235" d="M106.666 155.728c-4.154-8.027-25.625-47.216-43.424-33.451a12.921 12.921 0 0 0-1.706 1.605c-3.773 14.047 4.194 37.4 11.358 51.41 0 .001 14.628 3.208 33.772-19.564z" class="prefix__cls-15" data-name="Path 235" transform="translate(60.97 120.502)"/>
                <path id="prefix__Path_236" d="M68.38 158.478s11.82-19.585 33.672-23.418c0 0 14.348 20.307 20.067 27.29s13.926 21.953 1.224 32.688-34.455-5.397-54.963-36.56z" class="prefix__cls-19" data-name="Path 236" transform="translate(68.835 136.294)"/>
                <path id="prefix__Path_237" d="M76.624 146.237s3.732-3.692 24.08-2.849c-3.391-4.7-6.02-8.328-6.02-8.328a46.675 46.675 0 0 0-19.123 8.267z" class="prefix__cls-16" data-name="Path 237" transform="translate(76.063 136.294)"/>
                <path id="prefix__Path_238" d="M86.05 186.629a253.9 253.9 0 0 1 43.163-52.173s4.013-6.02 18.762-11.237 20.849-6.983 22.555-5.017-3.11 5.839-8.247 8.448c0 0 5.418 1.385 4.977 5.438a6.863 6.863 0 0 1-4.9 5.318s5.177 2.629 3.391 6.02a10.515 10.515 0 0 1-4.716 4.615s6.221 3.773-.943 9.271c-5.4 4.134-13.585 4.114-13.585 4.114s-9.507 26.608-26.364 44.507C102.083 225 90.866 213 85.046 209.325S80.692 195 86.05 186.629z" class="prefix__cls-19" data-name="Path 238" transform="translate(81.847 118.537)"/>
                <path id="prefix__Path_239" d="M108.12 144.172c17.558 8.267 25.3 0 25.3 0l-2.308-18.642-6.963 2.95s.987 12.72-16.029 15.692z" class="prefix__cls-16" data-name="Path 239" transform="translate(108.839 126.701)"/>
                <path id="prefix__Path_240" d="M85.31 155.934c2.007-3.231 5.257-7.806 9.391-13.224" class="prefix__cls-27" data-name="Path 240" transform="translate(85.877 143.995)"/>
                <path id="prefix__Path_241" d="M155.312 162.371a82.493 82.493 0 0 1 18.862-56.828 1.545 1.545 0 0 0-1.344-2.528l-36.7 3.853a1.505 1.505 0 0 0-.923.462 81.631 81.631 0 0 0-21.15 59.2 1.565 1.565 0 0 0 1.706 1.465l38.287-4.013a1.525 1.525 0 0 0 1.264-1.605z" class="prefix__cls-3" data-name="Path 241" transform="translate(114.703 104.027)"/>
                <path id="prefix__Path_242" d="M135.405 108.321c-.542.562-1.3 1.425-2.247 2.589a73.26 73.26 0 0 0-7.1 10.394 79.463 79.463 0 0 0-10.354 39.35v1.465l34.113-3.572v-2.227a87.454 87.454 0 0 1 1.726-17.418 86.285 86.285 0 0 1 9.572-25.484 82.713 82.713 0 0 1 5.418-8.368zm11.659 9.03a6.02 6.02 0 0 1-5.037 3.391c-2.007 0-2.849-1.5-2.007-3.391a6.02 6.02 0 0 1 5.057-3.391c1.947 0 2.85 1.525 1.987 3.391z" class="prefix__cls-18" data-name="Path 242" transform="translate(116.47 106.084)"/>
                <path id="prefix__Path_243" d="M149.834 145.619v2.227l-34.113 3.572v-1.465a79.864 79.864 0 0 1 2.007-18.22c4.716-3.752 20.347-16.053 22.374-16.053 1.284 0 9.17 9.732 11.418 12.562a87.449 87.449 0 0 0-1.686 17.377z" class="prefix__cls-31" data-name="Path 243" transform="translate(116.489 116.785)"/>
                <path id="prefix__Path_244" d="M106.168 136.211s4.632-9.311 10.732-13.625 16.976-6.9 18.421-4.334-8.328 9.13-8.328 9.13.7 21.01-8.167 23.558c-16.11 4.636-17.213-6.562-12.658-14.729z" class="prefix__cls-19" data-name="Path 244" transform="translate(104.531 118.347)"/>
                <path id="prefix__Path_245" d="M122.661 132.93c-9.03 6.562-16.615 3.552-18.341 0" class="prefix__cls-27" data-name="Path 245" transform="translate(105.014 134.15)"/>
                <path id="prefix__Path_246" d="M103.788 113.155c-15.19-3.03-40.133 16.234-56.969 57.792s-15.953 75.691-10.736 89.176 85.042 22.836 85.6-20.909 4.7-69.731 4.956-90.821c.261-23.078-10.47-32.71-22.851-35.238z" class="prefix__cls-3" data-name="Path 246" transform="translate(32.966 113.932)"/>
                <path id="prefix__Path_247" d="M111.779 180.078a63.05 63.05 0 0 0-1.465-19.3c-.763-3.311-1.4-6.3-1.866-8.829-3.572-19.364-24.26-49.6-39.391-23.518-33.371 48.16-22.073 110.366-22.073 110.366l62.367-14.97c.501-17.261 1.464-31.508 2.428-43.749z" class="prefix__cls-15" data-name="Path 247" transform="translate(45.443 119.409)"/>
                <path id="prefix__Path_248" d="M175.535 271.074a12.623 12.623 0 0 1 2.548 4.234c-29.2 14.97-74.848 7.244-74.848 7.244a44.9 44.9 0 0 1-1.385-4.6 79.583 79.583 0 0 1-1.806-21.05l41.277-8.187s6.461 4.334 20.789 12.04a44.146 44.146 0 0 1 13.425 10.319z" class="prefix__cls-17" data-name="Path 248" transform="translate(100.62 250.71)"/>
                <path id="prefix__Path_249" d="M174.584 259.86a12.622 12.622 0 0 1 2.548 4.234c-29.2 14.97-74.848 7.244-74.848 7.244a44.905 44.905 0 0 1-1.385-4.6c11.359 1.59 51.211 5.944 73.685-6.878z" class="prefix__cls-31" data-name="Path 249" transform="translate(101.571 261.924)"/>
                <path id="prefix__Path_250" d="M201.807 327.584l-51.671 6.16-14.208-84.644C108.256 238.469 49 209.994 49 209.994l47.176-37.444c39.451 10.856 63.009 23.638 63.009 23.638 9.612 4.655 16.053 13.866 20.769 26.387 12.582 33.151 21.853 105.009 21.853 105.009z" class="prefix__cls-31" data-name="Path 250" transform="translate(49.326 174.034)"/>
                <path id="prefix__Path_251" d="M150.234 241a170.746 170.746 0 0 1-52.534 3.532l2.609 14.909 51.35-9.632c-.482-2.528-.903-5.518-1.425-8.809z" class="prefix__cls-23" data-name="Path 251" transform="translate(98.35 242.939)"/>
                <path id="prefix__Path_252" d="M161.715 215.225a26.207 26.207 0 0 0-14.047-20.97h-.14s-18.3-10.033-49.645-19.725L60.62 215.365l49.544 24.321.582 2.007c4.956 2.007 9.552 4.013 13.485 5.5l4.936 29.438c17.033-11.681 35.518-32.931 32.548-61.406z" class="prefix__cls-23" data-name="Path 252" transform="translate(61.023 176.027)"/>
                <path id="prefix__Path_253" d="M156.478 303.54l-14.207-91.022L60.62 179.93" data-name="Path 253" transform="translate(61.023 181.463)" style="stroke:#346e94;stroke-width:.7px;stroke-linecap:round;stroke-linejoin:round;fill:none"/>
                <path id="prefix__Path_254" d="M93.67 218.993a119.255 119.255 0 0 1 17.819-18.863" data-name="Path 254" transform="translate(94.293 201.797)" style="stroke:#231f20;fill:#fff;stroke-width:.7px;stroke-linecap:round;stroke-linejoin:round"/>
                <path id="prefix__Path_255" d="M102.617 248.659c9.451-.482 29.277-2.007 43.384-5.9a4.8 4.8 0 0 1 6.02 3.793l1.565 9.391a4.776 4.776 0 0 1-3.231 5.338c-8.227 2.629-28.093 8.027-46.695 5.077a4.776 4.776 0 0 1-4.013-3.873l-1.5-8.187a4.756 4.756 0 0 1 4.475-5.639z" class="prefix__cls-18" data-name="Path 255" transform="translate(98.711 244.53)"/>
                <path id="prefix__Path_256" d="M123.045 264.485a51.371 51.371 0 0 1-2.709-19.565c-7.043.763-13.445 1.184-17.739 1.385a4.756 4.756 0 0 0-4.435 5.639l1.5 8.187A4.776 4.776 0 0 0 103.68 264a81.732 81.732 0 0 0 19.364.482z" class="prefix__cls-23" data-name="Path 256" transform="translate(98.731 246.885)"/>
                <path id="prefix__Path_257" d="M86.11 297.916a12.2 12.2 0 0 1-2.227 4.415c-28.274-16.615-46.153-59.317-46.153-59.317a41.677 41.677 0 0 1 3.11-3.592 79.081 79.081 0 0 1 16.8-12.8L86.652 257.1s-.181 7.766.923 24.08a44.768 44.768 0 0 1-1.465 16.735z" class="prefix__cls-17" data-name="Path 257" transform="translate(37.981 228.463)"/>
                <path id="prefix__Path_258" d="M86.11 291.494a12.2 12.2 0 0 1-2.227 4.415c-28.274-16.616-46.153-59.317-46.153-59.317A41.681 41.681 0 0 1 40.84 233c4.736 10.394 22.395 46.374 45.27 58.494z" class="prefix__cls-31" data-name="Path 258" transform="translate(37.981 234.886)"/>
                <path id="prefix__Path_259" d="M39.608 212.441c13.4 13.063 49.966 19.866 65.417 23.4L58.35 281.409l32.85 40.314s57.129-47.216 78.44-75.671 15.752-53.3-70.975-75.129c0 0-32.628-4.936-59.537 24.923a12.04 12.04 0 0 0 .482 16.6z" class="prefix__cls-18" data-name="Path 259" transform="translate(36.284 172.089)"/>
                <path id="prefix__Path_260" d="M46.79 180.25s4.515 12.9 67.123 30.341l12.6 3.552-53.9 51.31" class="prefix__cls-30" data-name="Path 260" transform="translate(47.101 181.785)"/>
                <path id="prefix__Path_261" d="M71.84 208.638s17.317-4.013 29.458-11.5" class="prefix__cls-30" data-name="Path 261" transform="translate(72.318 198.787)"/>
                <path id="prefix__Path_262" d="M61.076 223.739c5.378 7.645 17.679 24.321 28.9 34.254a4.274 4.274 0 0 1 0 6.421l-7.766 6.963a4.294 4.294 0 0 1-5.639.12c-6.481-5.378-22.073-19.625-29.739-37.284a4.374 4.374 0 0 1 1.023-4.916l6.742-6.221a4.314 4.314 0 0 1 6.482.662z" class="prefix__cls-31" data-name="Path 262" transform="translate(46.782 223.719)"/>
                <path id="prefix__Path_263" d="M69.134 103.28L65 126.136s6.883 8.528 21.19 8.027l2.21-20.368z" class="prefix__cls-19" data-name="Path 263" transform="translate(65.432 104.303)"/>
                <path id="prefix__Path_264" d="M66.6 108.4c2.508 5.5 8.308 15.01 18.943 16.876l1.244-11.538-19.264-10.458z" class="prefix__cls-16" data-name="Path 264" transform="translate(67.043 104.303)"/>
                <path id="prefix__Path_265" d="M104 140.326c-10.334 4.956-31.886-5.2-38.929-23-.181-.4-.321-.8-.482-1.2-6.4-17.137-2.689-29.177 15.672-33.631a20.829 20.829 0 0 1 20.187 5.879 30.1 30.1 0 0 1 7.264 12.682c3.388 11.518 5.739 34.775-3.712 39.27z" class="prefix__cls-19" data-name="Path 265" transform="translate(62.091 82.748)"/>
                <path id="prefix__Path_266" d="M82.227 92.82a19.525 19.525 0 0 1-5.5 16.374 6.381 6.381 0 0 0-1 7.4l.823 1.565-2.308 1.425-9.653-3.384C58.188 99.06 61.9 87.02 80.261 82.566a20.829 20.829 0 0 1 20.187 5.759 28.7 28.7 0 0 0-18.221 4.495z" class="prefix__cls-16" data-name="Path 266" transform="translate(62.091 82.797)"/>
                <path id="prefix__Path_267" d="M70.411 98.037s-10.455-3.732-8.328 4.254 10.455 10.274 14.047 7.445-5.719-11.699-5.719-11.699z" class="prefix__cls-19" data-name="Path 267" transform="translate(62.209 98.148)"/>
                <path id="prefix__Path_268" d="M63.38 98.66s6.3.3 8.849 5" class="prefix__cls-27" data-name="Path 268" transform="translate(63.802 99.652)"/>
                <path id="prefix__Path_269" d="M65.108 104.186a7.2 7.2 0 0 1 1.465-4.856" class="prefix__cls-27" data-name="Path 269" transform="translate(65.525 100.326)"/>
                <path id="prefix__Path_270" d="M70.879 116.651c-15.913 4.676-18.06 38.447-16.053 58.032 0 0 14.448 9.632 44.568-9.491-.061 0-4.516-55.604-28.515-48.541z" class="prefix__cls-3" data-name="Path 270" transform="translate(54.557 117.139)"/>
                <path id="prefix__Path_271" d="M66.906 177.055A10.736 10.736 0 0 1 56.692 166.6c-.682-19.625 2.749-45.872 16.655-49.966a13.247 13.247 0 0 1 2.809-.522 13.586 13.586 0 0 0-5.277.522c-15.913 4.675-18.06 38.447-16.053 58.032 0 0 4.013 2.709 12.341 2.408z" data-name="Path 271" transform="translate(54.557 117.155)" style="fill:#ffc882"/>
                <path id="prefix__Path_272" d="M79.513 158l1.2-.2s-1.344-21.291-8.027-34.434" data-name="Path 272" transform="translate(73.174 124.526)" style="stroke:#d98609;stroke-width:.7px;stroke-linecap:round;stroke-linejoin:round;fill:none"/>
                <path id="prefix__Path_273" d="M56.22 150.611s18.06-13.946 39.872-9.552c0 0 6.02 24.08 8.769 32.688s5 25.525-10.756 30.9-30.119-17.535-37.885-54.036z" class="prefix__cls-19" data-name="Path 273" transform="translate(56.594 141.472)"/>
                <path id="prefix__Path_274" d="M104.861 173.7c-1.144-3.512-7.184-26.688-8.769-32.688a51.752 51.752 0 0 0-39.872 9.552" class="prefix__cls-27" data-name="Path 274" transform="translate(56.594 141.517)"/>
                <path id="prefix__Path_275" d="M81.059 162.385a253.718 253.718 0 0 1 66.8-11.157s6.983-2.007 21.531 3.793 20.327 8.368 20.327 10.956-6.18 2.388-11.759 1c0 0 3.191 4.575.2 7.364a6.883 6.883 0 0 1-7.184.8s2.207 5.378-1.385 6.782a10.434 10.434 0 0 1-6.582.4s2.227 6.9-6.782 6.381c-6.782-.4-12.963-5.779-12.963-5.779s-22.916 14.047-47.457 15.752-29.1-12.562-31.1-19.143 6.782-14.379 16.354-17.149z" class="prefix__cls-19" data-name="Path 275" transform="translate(64.845 152.232)"/>
                <path id="prefix__Path_276" d="M150.5 175.455c-1-5.077-7.866-8.889-12.341-10.876a8.027 8.027 0 0 0-7.063.3c-8.809 4.8-34.213 17.578-57.972 19.585a42.945 42.945 0 0 0 13.926 1.124c24.541-1.605 47.457-15.752 47.457-15.752s6.18 5.378 12.963 5.779a12.762 12.762 0 0 0 3.03-.161z" class="prefix__cls-16" data-name="Path 276" transform="translate(73.606 165.329)"/>
                <path id="prefix__Path_277" d="M72.71 162.661a213.106 213.106 0 0 1 71.6-12.04" class="prefix__cls-27" data-name="Path 277" transform="translate(73.194 151.956)"/>
                <path id="prefix__Path_278" d="M94.94 347.575h3.391l51.892-161.455H142.8z" class="prefix__cls-3" data-name="Path 278" transform="translate(95.572 187.694)"/>
                <path id="prefix__Path_279" d="M119.847 186.12l-2.107 7.1a11.317 11.317 0 0 1 7.425-.582l2.007-6.522z" class="prefix__cls-15" data-name="Path 279" transform="translate(118.523 187.694)"/>
                <path id="prefix__Path_280" d="M92.66 347.575h4.575l47.859-161.455H135.7z" class="prefix__cls-16" data-name="Path 280" transform="translate(93.276 187.694)"/>
                <path id="prefix__Path_281" d="M93.21 170.931h80.49v6.823H91.1v-4.675a2.007 2.007 0 0 1 2.107-2.147z" class="prefix__cls-31" data-name="Path 281" transform="translate(91.703 172.401)"/>
                <path id="prefix__Path_282" d="M116.6 170.93h82.594v2.007a4.9 4.9 0 0 1-4.9 4.9H116.6v-6.9z" class="prefix__cls-18" data-name="Path 282" transform="translate(117.376 172.403)"/>
                <path id="prefix__Rectangle_35" d="M0 0H9.813V1.806H0z" class="prefix__cls-16" data-name="Rectangle 35" transform="translate(300.617 345.62)"/>
                <rect id="prefix__Rectangle_36" width="6.863" height="1.806" class="prefix__cls-31" data-name="Rectangle 36" rx=".45" transform="translate(290.563 345.62)"/>
                <rect id="prefix__Rectangle_37" width="6.863" height="1.806" class="prefix__cls-31" data-name="Rectangle 37" rx=".45" transform="translate(282.256 345.62)"/>
                <rect id="prefix__Rectangle_38" width="6.863" height="1.806" class="prefix__cls-31" data-name="Rectangle 38" rx=".45" transform="translate(273.968 345.62)"/>
                <path id="prefix__Path_283" d="M122.94 201.864h69.872L219.62 140.2h-69.871z" class="prefix__cls-3" data-name="Path 283" transform="translate(123.758 141.468)"/>
                <path id="prefix__Path_284" d="M149.48 141.68h63.17l-24.24 55.745h-63.15z" class="prefix__cls-4" data-name="Path 284" transform="translate(126.093 142.958)"/>
                <path id="prefix__Path_285" d="M132.344 179.769h-4.294l10.415-23.939h4.294z" class="prefix__cls-26" data-name="Path 285" transform="translate(128.902 157.202)"/>
                <path id="prefix__Path_286" d="M136.534 173.77h-4.274l5.2-11.98h4.294z" class="prefix__cls-26" data-name="Path 286" transform="translate(133.14 163.202)"/>
                <path id="prefix__Path_287" d="M140.754 179.769h-4.294l10.414-23.939h4.274z" class="prefix__cls-26" data-name="Path 287" transform="translate(137.368 157.202)"/>
                <path id="prefix__Path_288" d="M144.954 181.44h-4.294l11.74-27.27h4.274z" class="prefix__cls-26" data-name="Path 288" transform="translate(141.596 155.531)"/>
                <path id="prefix__Path_289" d="M149.144 178.521h-4.274l9.351-21.451h4.294z" class="prefix__cls-26" data-name="Path 289" transform="translate(145.834 158.451)"/>
                <path id="prefix__Path_290" d="M153.364 176.327h-4.294l7.344-17.077h4.294z" class="prefix__cls-26" data-name="Path 290" transform="translate(150.062 160.645)"/>
                <path id="prefix__Path_291" d="M157.564 179.769h-4.294l10.415-23.939h4.294z" class="prefix__cls-26" data-name="Path 291" transform="translate(154.29 157.202)"/>
                <path id="prefix__Path_292" d="M135.03 163.975l13.124-9.15 4.274 7.585L167.357 152l3.853 6.8 20.628-14.368" class="prefix__cls-30" data-name="Path 292" transform="translate(135.928 145.726)"/>
                <path id="prefix__Path_293" d="M160.73 144.43h5.237l-2.288 5.237" class="prefix__cls-30" data-name="Path 293" transform="translate(161.799 145.726)"/>
                <path id="prefix__Path_294" d="M184.569 140.2l-26.809 61.664h2.007a1.806 1.806 0 0 0 1.686-1.1l24.883-57.17a1.846 1.846 0 0 0-.381-2.007z" class="prefix__cls-31" data-name="Path 294" transform="translate(158.809 141.468)"/>
            </g>
        </g>
    </g>
</svg>
