<svg xmlns="http://www.w3.org/2000/svg" width="508" height="302.626" viewBox="0 0 508 302.626">
    <defs>
        <style>
            .prefix__cls-1,.prefix__cls-19,.prefix__cls-23{fill:#185177}.prefix__cls-1,.prefix__cls-13,.prefix__cls-6{opacity:.2}.prefix__cls-22,.prefix__cls-25,.prefix__cls-27,.prefix__cls-34,.prefix__cls-38,.prefix__cls-8{fill:none}.prefix__cls-22{stroke:#185177}.prefix__cls-22,.prefix__cls-25,.prefix__cls-27,.prefix__cls-34,.prefix__cls-38,.prefix__cls-8{stroke-linecap:round;stroke-linejoin:round}.prefix__cls-3,.prefix__cls-6,.prefix__cls-7{fill:#ffaa3f}.prefix__cls-4{fill:#f3e8e2}.prefix__cls-14,.prefix__cls-7{opacity:.5}.prefix__cls-8{stroke:#ffaa3f}.prefix__cls-22,.prefix__cls-25,.prefix__cls-27,.prefix__cls-34,.prefix__cls-38,.prefix__cls-8{stroke-width:.7px}.prefix__cls-28,.prefix__cls-9{fill:#cb1c3e}.prefix__cls-19,.prefix__cls-33,.prefix__cls-9{opacity:.3}.prefix__cls-10{fill:#fe9329}.prefix__cls-12{fill:#fff}.prefix__cls-13,.prefix__cls-18{fill:#346e94}.prefix__cls-14{fill:#d98609}.prefix__cls-15{fill:#56114a}.prefix__cls-16{fill:#0c1a3c}.prefix__cls-17{fill:#439da3}.prefix__cls-20{fill:#ffad91}.prefix__cls-21{fill:#f1624f}.prefix__cls-25{stroke:#378085}.prefix__cls-27{stroke:#d23d1e}.prefix__cls-30{fill:#ff8b61}.prefix__cls-32,.prefix__cls-33{fill:#99162b}.prefix__cls-34{stroke:#99162b}.prefix__cls-36{fill:#93405c}.prefix__cls-38{stroke:#56114a}
        </style>
    </defs>
    <g id="prefix__Layer_2" data-name="Layer 2" transform="translate(0 -.003)">
        <g id="prefix__Layer_1" data-name="Layer 1" transform="translate(0 .003)">
            <path id="prefix__Rectangle_252" d="M0 0H141.42V97.299H0z" class="prefix__cls-1" data-name="Rectangle 252" transform="translate(0 35.159)"/>
            <path id="prefix__Rectangle_253" d="M0 0H141.42V11.398H0z" class="prefix__cls-1" data-name="Rectangle 253" transform="translate(0 121.049)"/>
            <path id="prefix__Path_886" d="M99.072 35.809L69.884 12.766a3.115 3.115 0 0 0-3.835 0L36.86 35.809" data-name="Path 886" transform="translate(2.738 .896)" style="stroke-width:.98px;stroke-linecap:round;stroke-linejoin:round;stroke:#185177;fill:none;opacity:.2"/>
            <path id="prefix__Path_887" d="M69.714 14.862a3.642 3.642 0 1 1-3.642-3.642 3.642 3.642 0 0 1 3.642 3.642z" class="prefix__cls-3" data-name="Path 887" transform="translate(4.638 .831)"/>
            <path id="prefix__Rectangle_254" d="M0 0H134.502V90.015H0z" class="prefix__cls-4" data-name="Rectangle 254" transform="translate(3.459 38.79)"/>
            <g id="prefix__Group_208" data-name="Group 208" transform="translate(16.319 56.709)" style="opacity:.2">
                <path id="prefix__Rectangle_255" d="M0 0H13.536V13.536H0z" class="prefix__cls-3" data-name="Rectangle 255"/>
                <path id="prefix__Path_888" d="M51.468 52.79a6.768 6.768 0 1 0 6.768 6.768 6.768 6.768 0 0 0-6.768-6.768z" class="prefix__cls-3" data-name="Path 888" transform="translate(-12.998 -52.79)"/>
                <path id="prefix__Rectangle_256" d="M0 0H13.536V13.536H0z" class="prefix__cls-3" data-name="Rectangle 256" transform="translate(63.502)"/>
                <path id="prefix__Rectangle_257" d="M0 0H13.536V13.536H0z" class="prefix__cls-3" data-name="Rectangle 257" transform="translate(95.247)"/>
            </g>
            <rect id="prefix__Rectangle_258" width="13.536" height="13.536" class="prefix__cls-6" data-name="Rectangle 258" rx="5.59" transform="translate(16.319 87.047)"/>
            <path id="prefix__Rectangle_259" d="M0 0H13.536V13.536H0z" class="prefix__cls-6" data-name="Rectangle 259" transform="translate(48.064 87.047)"/>
            <path id="prefix__Rectangle_260" d="M0 0H13.536V13.536H0z" class="prefix__cls-6" data-name="Rectangle 260" transform="translate(79.82 87.047)"/>
            <path id="prefix__Path_889" d="M110.618 94.566a6.768 6.768 0 0 1-6.768-6.766 6.768 6.768 0 0 1 6.768-6.768 6.768 6.768 0 0 1 6.768 6.768 6.768 6.768 0 0 1-6.768 6.766z" class="prefix__cls-7" data-name="Path 889" transform="translate(7.715 6.017)"/>
            <path id="prefix__Rectangle_261" d="M0 0H226.15V156.213H0z" class="prefix__cls-7" data-name="Rectangle 261" transform="translate(159.5 14.661)"/>
            <path id="prefix__Rectangle_262" d="M0 0H226.15V156.213H0z" class="prefix__cls-4" data-name="Rectangle 262" transform="translate(162.122 12.051)"/>
            <path id="prefix__Path_890" d="M338.786 69.314a24.182 24.182 0 1 0-38.288 0l.6.752 11.271 14.084H326.9l11.28-14.084z" class="prefix__cls-7" data-name="Path 890" transform="translate(21.951 2.252)"/>
            <path id="prefix__Path_891" d="M325.32 84.265h-13.461A1.9 1.9 0 0 1 310 82.331a1.9 1.9 0 0 1 1.9-1.9h13.461a1.9 1.9 0 0 1 1.826 1.9 1.912 1.912 0 0 1-1.869 1.934z" class="prefix__cls-3" data-name="Path 891" transform="translate(23.031 5.973)"/>
            <path id="prefix__Path_892" d="M325.319 87.782h-13.46A1.9 1.9 0 0 1 310 85.88a1.912 1.912 0 0 1 1.9-1.88h13.461a1.912 1.912 0 0 1 1.826 1.912 1.923 1.923 0 0 1-1.868 1.87z" class="prefix__cls-7" data-name="Path 892" transform="translate(23.031 6.238)"/>
            <path id="prefix__Path_893" d="M325.319 91.323h-13.46a1.9 1.9 0 0 1-1.859-1.9 1.9 1.9 0 0 1 1.9-1.9h13.461a1.9 1.9 0 0 1 1.826 1.9 1.923 1.923 0 0 1-1.869 1.9z" class="prefix__cls-3" data-name="Path 893" transform="translate(23.031 6.499)"/>
            <path id="prefix__Path_894" d="M323.162 92.743h-9.443A1.676 1.676 0 0 1 312 91.11h12.892a1.676 1.676 0 0 1-1.665 1.687z" class="prefix__cls-7" data-name="Path 894" transform="translate(23.18 6.766)"/>
            <path id="prefix__Path_895" d="M318.585 95.262h-.763a2.632 2.632 0 0 1-2.632-2.632h6.027a2.632 2.632 0 0 1-2.632 2.632z" class="prefix__cls-3" data-name="Path 895" transform="translate(23.417 6.879)"/>
            <path id="prefix__Path_896" d="M321.743 82.344V62.878s.516-6.618 4.544-8.057 7.95 8.2-5.275 8.2H316.5c-13.235 0-9.3-9.669-5.275-8.2s4.544 8.057 4.544 8.057v19.466" class="prefix__cls-8" data-name="Path 896" transform="translate(22.836 4.059)"/>
            <path id="prefix__Line_62" d="M0 0L49.267 22.388" class="prefix__cls-8" data-name="Line 62" transform="translate(279.66 34.557)"/>
            <circle id="prefix__Ellipse_87" cx="11.914" cy="11.914" r="11.914" class="prefix__cls-3" data-name="Ellipse 87" transform="translate(267.725 22.632)"/>
            <path id="prefix__Line_63" d="M0 0L33.83 0" class="prefix__cls-8" data-name="Line 63" transform="translate(297.805 71.212)"/>
            <circle id="prefix__Ellipse_88" cx="9.003" cy="9.003" r="9.003" class="prefix__cls-7" data-name="Ellipse 88" transform="translate(288.813 62.199)"/>
            <path id="prefix__Line_64" d="M19.219 0L0 19.219" class="prefix__cls-8" data-name="Line 64" transform="translate(351.165 24.953)"/>
            <path id="prefix__Path_897" d="M349.364 23.527a4.3 4.3 0 1 1-4.3-4.3 4.3 4.3 0 0 1 4.3 4.3z" class="prefix__cls-3" data-name="Path 897" transform="translate(25.317 1.426)"/>
            <path id="prefix__Path_898" d="M331.345 82.2h5.455v23.581h-35.17V82.2h5.447" class="prefix__cls-8" data-name="Path 898" transform="translate(22.409 6.104)"/>
            <path id="prefix__Line_65" d="M0 0L0 8.283" class="prefix__cls-8" data-name="Line 65" transform="translate(341.626 111.885)"/>
            <path id="prefix__Path_899" d="M340.472 121.42l-1.332-1.332a1.88 1.88 0 0 0-2.653 0 1.869 1.869 0 0 1-2.632 0 1.88 1.88 0 0 0-2.654 0 1.869 1.869 0 0 1-2.632 0 1.88 1.88 0 0 0-2.653 0 1.869 1.869 0 0 1-2.632 0 1.88 1.88 0 0 0-2.653 0 1.88 1.88 0 0 1-2.643 0 1.88 1.88 0 0 0-2.654 0 1.869 1.869 0 0 1-2.632 0 1.88 1.88 0 0 0-2.653 0 1.869 1.869 0 0 1-2.632 0 1.88 1.88 0 0 0-2.654 0l-1.332 1.332" class="prefix__cls-8" data-name="Path 899" transform="translate(22.543 8.878)"/>
            <path id="prefix__Path_900" d="M340.481 126.13l-1.332-1.332a1.88 1.88 0 0 0-2.653 0 1.88 1.88 0 0 1-2.653 0 1.88 1.88 0 0 0-2.653 0 1.88 1.88 0 0 1-2.654 0 1.88 1.88 0 0 0-2.653 0 1.88 1.88 0 0 1-2.654 0 1.88 1.88 0 0 0-2.654 0 1.891 1.891 0 0 1-2.664 0 1.88 1.88 0 0 0-2.653 0 1.88 1.88 0 0 1-2.653 0 1.88 1.88 0 0 0-2.654 0 1.88 1.88 0 0 1-2.653 0 1.88 1.88 0 0 0-2.653 0l-1.332 1.332" class="prefix__cls-8" data-name="Path 900" transform="translate(22.534 9.228)"/>
            <path id="prefix__Path_901" d="M319.242 130.909l-1.332-1.321a1.88 1.88 0 0 0-2.654 0 1.88 1.88 0 0 1-2.654 0 1.88 1.88 0 0 0-2.653 0 1.88 1.88 0 0 1-2.654 0 1.88 1.88 0 0 0-2.654 0l-1.332 1.321" class="prefix__cls-8" data-name="Path 901" transform="translate(22.534 9.584)"/>
            <path id="prefix__Path_902" d="M339.012 130.909l-1.332-1.321a1.88 1.88 0 0 0-2.653 0 1.88 1.88 0 0 1-2.653 0 1.88 1.88 0 0 0-2.654 0 1.88 1.88 0 0 1-2.654 0 1.88 1.88 0 0 0-2.654 0l-1.332 1.321" class="prefix__cls-8" data-name="Path 902" transform="translate(24.003 9.584)"/>
            <path id="prefix__Path_903" d="M332.771 139.3l-1.321-1.321a1.88 1.88 0 0 0-2.654 0 1.88 1.88 0 0 1-2.654 0 1.88 1.88 0 0 0-2.653 0 1.891 1.891 0 0 1-2.664 0 1.88 1.88 0 0 0-2.654 0l-1.321 1.321" class="prefix__cls-8" data-name="Path 903" transform="translate(23.54 10.207)"/>
            <circle id="prefix__Ellipse_89" cx="2.342" cy="2.342" r="2.342" class="prefix__cls-7" data-name="Ellipse 89" transform="translate(327.531 146.198)"/>
            <path id="prefix__Path_904" d="M332.768 147.44l-1.321-1.332a1.88 1.88 0 0 0-2.654 0 1.869 1.869 0 0 1-2.632 0 1.88 1.88 0 0 0-2.653 0 1.88 1.88 0 0 1-2.643 0 1.88 1.88 0 0 0-2.653 0l-1.321 1.332" class="prefix__cls-8" data-name="Path 904" transform="translate(23.543 10.811)"/>
            <path id="prefix__Path_905" d="M304.88 146.6a2.342 2.342 0 1 1 2.342 2.342 2.331 2.331 0 0 1-2.342-2.32z" class="prefix__cls-7" data-name="Path 905" transform="translate(22.651 10.715)"/>
            <path id="prefix__Rectangle_263" d="M0 0H27.126V27.126H0z" class="prefix__cls-3" data-name="Rectangle 263" transform="translate(179.848 20.495)"/>
            <path id="prefix__Rectangle_264" d="M0 0H27.126V27.126H0z" class="prefix__cls-7" data-name="Rectangle 264" transform="translate(179.848 57.891)"/>
            <path id="prefix__Rectangle_265" d="M0 0H27.126V27.126H0z" class="prefix__cls-3" data-name="Rectangle 265" transform="translate(179.848 95.287)"/>
            <path id="prefix__Rectangle_266" d="M0 0H27.126V27.126H0z" class="prefix__cls-3" data-name="Rectangle 266" transform="translate(179.848 132.683)"/>
            <path id="prefix__Path_906" d="M416.917 47.531a7.52 7.52 0 0 1-7.52 7.38h-.859l-3.363 3.363a1.934 1.934 0 0 1-2.664 0l-3.363-3.352h-25.084a7.821 7.821 0 0 1-7.864-7.692 7.52 7.52 0 0 1 7.52-7.38h35.344a7.8 7.8 0 0 1 7.853 7.681z" class="prefix__cls-7" data-name="Path 906" transform="translate(27.207 2.958)"/>
            <path id="prefix__Path_907" d="M376.873 46.961a1.611 1.611 0 1 1-1.611-1.611 1.611 1.611 0 0 1 1.611 1.611z" class="prefix__cls-3" data-name="Path 907" transform="translate(27.76 3.366)"/>
            <path id="prefix__Path_908" d="M386.643 46.961a1.611 1.611 0 1 1-1.611-1.611 1.611 1.611 0 0 1 1.611 1.611z" class="prefix__cls-3" data-name="Path 908" transform="translate(28.486 3.366)"/>
            <path id="prefix__Path_909" d="M396.413 46.961a1.611 1.611 0 1 1-1.613-1.611 1.611 1.611 0 0 1 1.613 1.611z" class="prefix__cls-3" data-name="Path 909" transform="translate(29.212 3.366)"/>
            <path id="prefix__Path_910" d="M406.223 46.961a1.611 1.611 0 1 1-1.611-1.611 1.611 1.611 0 0 1 1.611 1.611z" class="prefix__cls-3" data-name="Path 910" transform="translate(29.941 3.366)"/>
            <path id="prefix__Path_911" d="M433.573 32.006a.526.526 0 0 0 .7.215.688.688 0 0 0 .215-.215 3.577 3.577 0 0 1 6.693 1.88c0 6.671-7.144 10.947-7.144 10.947s-7.155-4.3-7.155-10.947a3.577 3.577 0 0 1 6.693-1.88z" class="prefix__cls-3" data-name="Path 911" transform="translate(31.715 2.239)"/>
            <path id="prefix__Path_912" d="M400.338 1.343a.5.5 0 0 0 .7.161.58.58 0 0 0 .161-.161 2.611 2.611 0 0 1 4.791 1.536c0 3.534-2.75 6.156-4.3 7.327a1.579 1.579 0 0 1-1.934 0c-1.5-1.171-4.3-3.792-4.3-7.327a2.611 2.611 0 0 1 4.877-1.536z" class="prefix__cls-9" data-name="Path 912" transform="translate(29.379 -.003)"/>
            <path id="prefix__Path_913" d="M426.408 6.795a.6.6 0 0 0 .806.258.569.569 0 0 0 .269-.258c1.7-2.89 6.94-2.385 6.94 2.041 0 5.178-4.125 8.97-6.242 10.571a1.987 1.987 0 0 1-2.439 0c-2.149-1.6-6.242-5.371-6.242-10.571a3.728 3.728 0 0 1 6.908-2.041z" class="prefix__cls-9" data-name="Path 913" transform="translate(31.166 .368)"/>
            <path id="prefix__Path_914" d="M416.244 28.179a4.3 4.3 0 1 1 0-.054z" class="prefix__cls-10" data-name="Path 914" transform="translate(30.286 1.769)"/>
            <circle id="prefix__Ellipse_90" cx="2.492" cy="2.492" r="2.492" class="prefix__cls-10" data-name="Ellipse 90" transform="translate(400.529 29.948)"/>
            <path id="prefix__Path_915" d="M385.153 17.565h-2.439a.907.907 0 0 1-.773-1.407l2.439-3.867a.935.935 0 0 1 1.278-.29 1.077 1.077 0 0 1 .279.29l2.428 3.867a.913.913 0 0 1-.269 1.257.956.956 0 0 1-.5.15z" data-name="Path 915" transform="translate(28.365 .878)" style="fill:#d9e7ff"/>
            <path id="prefix__Path_916" d="M474.244 4.158v19.81a2.31 2.31 0 0 1-2.288 2.288h-6.446l-2.073 3.685a1.74 1.74 0 0 1-3.008 0l-2.149-3.685h-16.222a2.288 2.288 0 0 1-2.288-2.288V4.158a2.288 2.288 0 0 1 2.288-2.288h29.9a2.288 2.288 0 0 1 2.286 2.288z" class="prefix__cls-3" data-name="Path 916" transform="translate(32.672 .136)"/>
            <path id="prefix__Path_917" d="M452.68 9.625A5.747 5.747 0 0 1 451.5 6.1c.129-1.966 2.224-1.794 2.75-.4a9.991 9.991 0 0 0 5.264 4.727 1.418 1.418 0 0 1 .9 1.332v8.3a1.44 1.44 0 0 1-1.429 1.44h-8.1a1.074 1.074 0 0 1-1.074-1.074v-1.01a1.074 1.074 0 0 1-1.074-1.074V16.2h-.086a1.074 1.074 0 0 1-1.074-1.074v-1.88a1.074 1.074 0 0 1-.827-1v-1.568a1.074 1.074 0 0 1 1.01-1.021z" class="prefix__cls-12" data-name="Path 917" transform="translate(33.191 .342)"/>
            <path id="prefix__Path_918" d="M395.91 22.2l.881 2.707a.816.816 0 0 0 .806.516h2.847a.838.838 0 0 1 .827.849.87.87 0 0 1-.333.655l-2.331 1.719a.827.827 0 0 0-.3.924l.881 2.718a.827.827 0 0 1-.526 1.074.817.817 0 0 1-.752-.118l-2.3-1.676a.827.827 0 0 0-.978 0l-2.31 1.676a.838.838 0 0 1-1.16-.172.816.816 0 0 1-.118-.752l.881-2.718a.806.806 0 0 0-.3-.924l-2.3-1.719a.827.827 0 0 1 .483-1.5h2.847a.827.827 0 0 0 .795-.569l.924-2.653a.827.827 0 0 1 1.074-.462.817.817 0 0 1 .462.43z" class="prefix__cls-7" data-name="Path 918" transform="translate(28.898 1.61)"/>
            <path id="prefix__Path_919" d="M326.088 263.333a17.06 17.06 0 0 0-15.792-10.6H23.578a17.06 17.06 0 0 0-15.793 10.6l-5.307 12.89a5.511 5.511 0 0 0 3.03 7.208 5.307 5.307 0 0 0 2.084.419h318.69a5.543 5.543 0 0 0 5.114-7.627z" class="prefix__cls-13" data-name="Path 919" transform="translate(.153 18.773)"/>
            <path id="prefix__Path_920" d="M476.011 263.333a17.049 17.049 0 0 0-15.781-10.6h-95.613a17.06 17.06 0 0 0-15.793 10.6l-5.3 12.89a5.522 5.522 0 0 0 5.114 7.628H476.2a5.533 5.533 0 0 0 5.533-5.511 5.468 5.468 0 0 0-.419-2.149z" class="prefix__cls-13" data-name="Path 920" transform="translate(25.491 18.773)"/>
            <path id="prefix__Path_921" d="M412.66 169.93v99.222c0 2.643 12.086 4.791 26.986 4.791s26.986-2.149 26.986-4.791V169.93z" class="prefix__cls-3" data-name="Path 921" transform="translate(30.658 12.622)"/>
            <path id="prefix__Path_922" d="M432.684 273.793V169.93H418.6v102.316a91.305 91.305 0 0 0 14.084 1.547z" class="prefix__cls-14" data-name="Path 922" transform="translate(31.099 12.622)"/>
            <path id="prefix__Path_923" d="M412.66 223a123.181 123.181 0 0 0 23.065-6.682 50.1 50.1 0 0 0 30.907-46.388H412.66z" class="prefix__cls-14" data-name="Path 923" transform="translate(30.658 12.622)"/>
            <path id="prefix__Path_924" d="M409.73 161.53v9.9c0 2.944 13.493 5.371 30.08 5.371s30.145-2.4 30.145-5.371v-9.9z" class="prefix__cls-3" data-name="Path 924" transform="translate(30.44 11.998)"/>
            <path id="prefix__Path_925" d="M470 161.9c0 2.954-13.493 5.371-30.145 5.371s-30.08-2.4-30.08-5.371 13.493-5.371 30.08-5.371S470 158.958 470 161.9z" class="prefix__cls-15" data-name="Path 925" transform="translate(30.444 11.626)"/>
            <path id="prefix__Path_926" d="M430.529 51.34s-7.713.322-9.959 11.087c-2.062 9.873-4.47 18.173-8.07 22.098a1.343 1.343 0 0 0 .129 1.891l.118.1c2.449 1.751 8.723 5.135 20.669 5.371 12.7.279 20.412-2.589 23.3-3.91a1.353 1.353 0 0 0 .666-1.794 86.481 86.481 0 0 1-7.08-19.724c-2.423-11.337-8.611-18.17-19.773-15.119z" class="prefix__cls-16" data-name="Path 926" transform="translate(30.622 3.757)"/>
            <path id="prefix__Path_927" d="M428.074 86.513c-8.057-3.373-17.533 7.713-21.83 18.381s-9.046 25.353-9.669 30.9c-.924 8.594 6.446 12.311 15.115 6.1 7.22-5.158 28.942-50.139 16.384-55.381z" class="prefix__cls-17" data-name="Path 927" transform="translate(29.457 6.379)"/>
            <path id="prefix__Path_928" d="M420.413 139.833s-23.634 6.714-34.184 16.018-4.566 25.257 10.238 24.215 50.6-26.073 50.6-26.073l-.623-7.585s-16.255-8.108-26.031-6.575z" class="prefix__cls-18" data-name="Path 928" transform="translate(28.298 10.372)"/>
            <path id="prefix__Path_929" d="M395.723 179.358c3.223-.226 7.52-1.622 12.236-3.653l-.236-7.907L427.7 149.17s-19.724.978-31.423 13.278c-3.277 3.448-4.824 9.583-5.371 16.609a17.639 17.639 0 0 0 4.813.3z" class="prefix__cls-19" data-name="Path 929" transform="translate(29.042 11.08)"/>
            <path id="prefix__Path_930" d="M451.431 174.11c-14.9 11.377-40.157 26.492-40.157 26.492l-12.58 20.884-2.965 4.942-2.245 3.717c-5.21 8.594-10.034 16.652-12.011 19.9a43.522 43.522 0 0 0-4.3 9.669 49.927 49.927 0 0 0-1.88 8.208.837.837 0 0 1-.215.462l-.172.14a.956.956 0 0 1-1.526-.516l-.376-1.579s-10.743 5.823-13.869 6.94c-2.149.773 1.074-5 4.029-10.829a80.458 80.458 0 0 0 3.427-7.294c1.235-3.309 4.072-17.64 7.735-32.852.387-1.654.806-3.309 1.214-4.963s.752-2.976 1.139-4.458c3.137-12.011 6.693-23.28 10.27-28.759 9.024-13.815 47.731-38.288 51.351-39.19s27.2 0 27.2 0 .821 17.698-14.069 29.086z" class="prefix__cls-20" data-name="Path 930" transform="translate(26.63 10.741)"/>
            <path id="prefix__Path_931" d="M374.464 212.24v.15c-.408 1.654-.827 3.309-1.214 4.963 0 0 3.051 8.379 16.114 12.838l3.051-5.049 2.245-3.717 1.955-3.352z" class="prefix__cls-21" data-name="Path 931" transform="translate(27.73 15.765)"/>
            <path id="prefix__Path_932" d="M377.176 251.78a49.927 49.927 0 0 0-1.88 8.208.837.837 0 0 1-.215.462l-.172.14a.956.956 0 0 1-1.526-.516l-.376-1.611s-10.743 5.823-13.869 6.94c-2.149.773 1.074-5 4.029-10.829a1.912 1.912 0 0 0 1.257 1.934c2.213.88 9.486-2.934 12.752-4.728z" class="prefix__cls-16" data-name="Path 932" transform="translate(26.63 18.703)"/>
            <path id="prefix__Path_933" d="M450.248 174.11c-14.9 11.377-40.157 26.492-40.157 26.492l-15.534 25.848a30.693 30.693 0 0 1-20.2-9.035c3.395-13.611 7.337-27.094 11.409-33.217 10.26-15.438 47.731-38.288 51.351-39.19s27.2 0 27.2 0 .821 17.715-14.069 29.102z" class="prefix__cls-18" data-name="Path 933" transform="translate(27.813 10.741)"/>
            <path id="prefix__Path_934" d="M383.073 186.17c-3.1 7.026-6.08 17.522-8.723 28.114a30.693 30.693 0 0 0 20.2 9.035l15.534-25.848c-6.47 1.172-20.726-7.271-27.011-11.301z" class="prefix__cls-19" data-name="Path 934" transform="translate(27.812 13.828)"/>
            <path id="prefix__Path_935" d="M447.665 158.48s-11.269 12.247-36.526 28.394l-6.994 5-13.965 25.058" class="prefix__cls-22" data-name="Path 935" transform="translate(28.988 11.771)"/>
            <path id="prefix__Path_936" d="M399.58 168.486a290.056 290.056 0 0 1 29.006-20.186" class="prefix__cls-22" data-name="Path 936" transform="translate(29.686 11.015)"/>
            <path id="prefix__Path_937" d="M447.551 146.469s-2.686 7.359 2.149 10.1a3.9 3.9 0 0 0 5.726-2.546c.537-2.32 1.418-8.7 1.418-8.7z" class="prefix__cls-23" data-name="Path 937" transform="translate(33.195 10.794)"/>
            <path id="prefix__Path_938" d="M397.6 216.76l-2.965 4.942-2.245 3.717a24.472 24.472 0 0 1-19.165-7.767 22.56 22.56 0 0 1 2.353-9.422c2.584 3.158 9.642 9.798 22.022 8.53z" class="prefix__cls-12" data-name="Path 938" transform="translate(27.728 15.467)"/>
            <path id="prefix__Path_939" d="M405.095 245.812a1 1 0 0 1-1.278.559 1.257 1.257 0 0 1-.322-.2l-.849-.816s-6.832 13.858-7.574 12.623c-.451-.763-.312-6.091-.569-11.022-.172-3.126-.5-6.081-1.268-7.606-1.192-2.363-5.7-12.311-9.969-23.634-.773-2.03-1.536-4.1-2.256-6.177-.355-1-.7-2-1.074-2.987-1.547-4.576-2.89-9.1-3.824-13.182-3.932-17.189 1.45-33.733 10.55-38.675l12.419 12.634c4.781 9.926 5.8 22.678 5.543 34.249q0 2.353-.161 4.609c-.1 1.9-.226 3.76-.354 5.543-.7 9.013-1.794 16.243-1.708 19.122a38.849 38.849 0 0 0 .569 5.457 52.9 52.9 0 0 0 2.149 8.2 1.837 1.837 0 0 1-.024 1.303z" class="prefix__cls-20" data-name="Path 939" transform="translate(27.846 11.49)"/>
            <path id="prefix__Path_940" d="M376.087 191.851c.935 4.082 2.277 8.594 3.824 13.182.333.988.677 1.987 1.074 2.987.72 2.073 1.483 4.147 2.256 6.177.258.7.526 1.386.784 2.073l1.268 1.536c8.541 1.074 14.567-1.332 18.532-4.115.107-1.139.2-2.31.3-3.513.129-1.783.258-3.642.354-5.543q.107-2.256.161-4.609a97.964 97.964 0 0 0-2.03-23.957l-27.685 1.246a51.241 51.241 0 0 0 1.16 14.535z" class="prefix__cls-21" data-name="Path 940" transform="translate(27.847 13.078)"/>
            <path id="prefix__Path_941" d="M403.733 240.167a1 1 0 0 1-1.278.559 1.256 1.256 0 0 1-.322-.2l-.849-.816s-6.832 13.858-7.574 12.623c-.451-.763-.312-6.091-.569-11.022.473.827 1.246 1.386 2.5.4 1.869-1.461 4.619-7.713 6.005-11.033a52.884 52.884 0 0 0 2.149 8.2 1.816 1.816 0 0 1-.065 1.3z" class="prefix__cls-16" data-name="Path 941" transform="translate(29.208 17.135)"/>
            <path id="prefix__Path_942" d="M404.635 201.684q0 2.353-.161 4.609l-11.274 5.189-12.225-1.8a30.005 30.005 0 0 0-1.074-2.987c-2.471-5.758-2.89-9.1-3.824-13.182-3.932-17.189 1.45-33.733 10.55-38.675 6.532-3.545 12.419 1.966 12.419 12.634 4.826 9.89 5.847 22.642 5.589 34.212z" class="prefix__cls-18" data-name="Path 942" transform="translate(27.844 11.421)"/>
            <path id="prefix__Path_943" d="M393.168 210.438l10.174-4.684q.118-2.256.161-4.609c.258-11.57-.763-24.322-5.543-34.248a22.947 22.947 0 0 0-.773-6.166l-.838.838c-8.337 8.731-5.566 34.538-3.181 48.869z" class="prefix__cls-19" data-name="Path 943" transform="translate(29.029 11.938)"/>
            <path id="prefix__Path_944" d="M397.41 166.49c4.491 9.336 5.64 23.248 5.543 34.248" class="prefix__cls-22" data-name="Path 944" transform="translate(29.525 12.366)"/>
            <path id="prefix__Path_945" d="M404.277 198.37a26.707 26.707 0 0 1-.516 10.152 59.612 59.612 0 0 1-20.884 4.018c-1.139-3.008-2.256-6.091-3.287-9.164a58.614 58.614 0 0 0 24.687-5.006z" class="prefix__cls-12" data-name="Path 945" transform="translate(28.201 14.735)"/>
            <path id="prefix__Path_946" d="M439.27 81.549c-22.646-2.9-29.457 17.769-31.369 30.768s6.07 16.695 6.07 16.695-2.245 9.389-1.235 13.88 28.211 14.428 48.118 8.884c10.9-3.04 8.594-41.9 4.609-53.962s-17.427-15.137-26.193-16.265z" class="prefix__cls-17" data-name="Path 946" transform="translate(30.283 6.035)"/>
            <path id="prefix__Path_947" d="M454.005 92.06s-8.917 1.7-9.841 12.548-16.652 13.644-16.555 18.027a4.2 4.2 0 0 0 1.944 3.373 11.6 11.6 0 0 1 4.92 7.885c.784 5.941 3.685 14.6 13.547 18.714a47.27 47.27 0 0 0 11.3-1.6c2.471-.688 4.3-3.223 5.511-6.854a27.609 27.609 0 0 0 .054-17.1z" data-name="Path 947" transform="translate(31.769 6.837)" style="fill:#378085;opacity:.3"/>
            <path id="prefix__Path_948" d="M414.228 92.51c-3.685 6.038-5.479 13.268-6.328 19.015-1.912 13.042 6.07 16.695 6.07 16.695" class="prefix__cls-25" data-name="Path 948" transform="translate(30.283 6.87)"/>
            <path id="prefix__Path_949" d="M427.842 97.89s-9.787 13.7-3.631 25.01c5.79 10.636-.43 18.779 3.32 26.728" data-name="Path 949" transform="translate(31.365 7.27)" style="stroke:#fff;stroke-width:.7px;stroke-linecap:round;stroke-linejoin:round;fill:none"/>
            <path id="prefix__Path_950" d="M435.881 77.24c-9.98-.258-13.1 6.671-14.621 15.427a4.179 4.179 0 0 0 1.182 1.074 12.526 12.526 0 0 1 4.168 4.931 11.212 11.212 0 0 0 .988 1.654s.892-1.074 2-2.256a13.966 13.966 0 0 1 7.4-4.3 12.6 12.6 0 0 0 3.459-1.149c1.762-1.082 7.714-15.058-4.576-15.381z" class="prefix__cls-12" data-name="Path 950" transform="translate(31.297 5.735)"/>
            <path id="prefix__Path_951" d="M427.837 80.749l-.881 8.594a37.268 37.268 0 0 0 .236 9.959s5.071-5.371 6.833-6.983 4.3-6.585 3.932-12.29-.72-7.638-.72-7.638-8.358-.731-9.4 8.358z" class="prefix__cls-20" data-name="Path 951" transform="translate(31.703 5.374)"/>
            <path id="prefix__Path_952" d="M437.663 76.538c-.269-3.04-.451-4.158-.451-4.158s-8.358-.72-9.4 8.358l-.741 7.219c4.404-.074 8.787-4.597 10.592-11.419z" class="prefix__cls-21" data-name="Path 952" transform="translate(31.729 5.374)"/>
            <path id="prefix__Path_953" d="M454.239 91.56c-8.508 1.944-8.659 13.837-5.962 25.02s5.962 27.029 10.12 30.746 12.816 4.491 15.857-3.824-6.747-54.982-20.015-51.942z" class="prefix__cls-17" data-name="Path 953" transform="translate(33.189 6.789)"/>
            <path id="prefix__Path_954" d="M454.239 91.55c-8.508 1.944-8.659 13.837-5.962 25.02 2.363 9.787 5.157 23.14 8.594 28.813" class="prefix__cls-25" data-name="Path 954" transform="translate(33.189 6.799)"/>
            <path id="prefix__Path_955" d="M426.762 100.773c-2.149 1.074 3.986 7.445 3.986 7.445s-4.533.3-3.223 3.953c0 0-1.977 1.794.172 4.845 0 0-2.847 2.643 0 4.985a4.77 4.77 0 0 0 4.426.7 5.017 5.017 0 0 0 3.771.9s12.43 24.548 25.536 25.708 16.114-13.257-16.362-34.077c.01.001-13.913-16.586-18.306-14.459z" class="prefix__cls-20" data-name="Path 955" transform="translate(31.672 7.47)"/>
            <path id="prefix__Path_956" d="M427.89 108.755a4.651 4.651 0 0 1 2.739-1.074 7.789 7.789 0 0 1 3.126.526" class="prefix__cls-27" data-name="Path 956" transform="translate(31.79 7.997)"/>
            <path id="prefix__Path_957" d="M429.05 119.673a19.9 19.9 0 0 0 4-.183" class="prefix__cls-27" data-name="Path 957" transform="translate(31.876 8.874)"/>
            <path id="prefix__Path_958" d="M430.91 119.69a1.88 1.88 0 0 1 .881 1.59" class="prefix__cls-27" data-name="Path 958" transform="translate(32.014 8.889)"/>
            <path id="prefix__Path_959" d="M427.61 115.908a20.509 20.509 0 0 1 5.371-.355" class="prefix__cls-27" data-name="Path 959" transform="translate(31.769 8.579)"/>
            <path id="prefix__Path_960" d="M433.165 111.244a14.836 14.836 0 0 0-5.715.15" class="prefix__cls-27" data-name="Path 960" transform="translate(31.757 8.246)"/>
            <path id="prefix__Path_961" d="M407.542 98.556l12.892 35.817a1.945 1.945 0 0 1-1.074 2.525l-1.837.666a1.944 1.944 0 0 0 1.16-2.492l-12.892-35.818a1.934 1.934 0 0 0-2.471-1.182l1.837-.666a1.934 1.934 0 0 1 2.385 1.15z" class="prefix__cls-16" data-name="Path 961" transform="translate(29.964 7.227)"/>
            <rect id="prefix__Rectangle_267" width="27.362" height="41.973" class="prefix__cls-28" data-name="Rectangle 267" rx="1.81" transform="rotate(-19.85 530.087 -1112.537)"/>
            <path id="prefix__Path_962" d="M401.06 118.952a2.46 2.46 0 1 1-3.158-1.472 2.449 2.449 0 0 1 3.158 1.472z" class="prefix__cls-4" data-name="Path 962" transform="translate(29.442 8.714)"/>
            <path id="prefix__Path_963" d="M391.669 121.219c-1.461-2.31-6.317 1.654-7.67 3.083s-.978 5.264 3.223 3.61 5.5-5.039 4.447-6.693z" class="prefix__cls-20" data-name="Path 963" transform="translate(28.477 8.95)"/>
            <path id="prefix__Path_964" d="M391.512 123.771c-2.009-.2-5.5 2.224-5.8 3.867a2.6 2.6 0 0 0 0 .408 6.67 6.67 0 0 0 1.375-.376 7.627 7.627 0 0 0 4.425-3.899z" class="prefix__cls-21" data-name="Path 964" transform="translate(28.655 9.192)"/>
            <path id="prefix__Path_965" d="M391.921 125.9c-1.3-2.02-6.542 1.2-6.918 3.223s1.966 3.556 4.512 2.149c3.309-1.908 3.233-4.089 2.406-5.372z" class="prefix__cls-20" data-name="Path 965" transform="translate(28.6 9.303)"/>
            <path id="prefix__Path_966" d="M392.206 127.31c-1.977.483-4.448 2.385-4.695 3.76a2.714 2.714 0 0 0 0 .591 4.136 4.136 0 0 0 1.848-.569c2.159-1.247 2.868-2.622 2.847-3.782z" class="prefix__cls-21" data-name="Path 966" transform="translate(28.789 9.455)"/>
            <path id="prefix__Path_967" d="M393.671 129.544c-1.3-2.02-6.542 1.2-6.918 3.223s1.966 3.556 4.512 2.149c3.276-1.916 3.276-4.093 2.406-5.372z" class="prefix__cls-20" data-name="Path 967" transform="translate(28.731 9.574)"/>
            <path id="prefix__Path_968" d="M393.954 131.07c-1.966.483-4.415 2.385-4.673 3.749a3.471 3.471 0 0 0 0 .473 4.233 4.233 0 0 0 1.826-.569c2.084-1.204 2.815-2.471 2.847-3.653z" class="prefix__cls-21" data-name="Path 968" transform="translate(28.921 9.735)"/>
            <path id="prefix__Path_969" d="M395.421 133.214c-1.3-2.02-6.542 1.2-6.919 3.223s1.966 3.556 4.512 2.149c3.31-1.945 3.234-4.126 2.407-5.372z" class="prefix__cls-20" data-name="Path 969" transform="translate(28.861 9.847)"/>
            <path id="prefix__Path_970" d="M431.712 54.66c-8.68 0-10.12 8.68-10.281 15.588s1.923 13.783 7.305 13.783 10.743-6.671 11.484-16.114-2.267-13.257-8.508-13.257z" class="prefix__cls-20" data-name="Path 970" transform="translate(31.309 4.058)"/>
            <path id="prefix__Path_971" d="M438.021 69.546s.967-2.406 2.976-2.245 1.128 8.594-4.3 8.111z" class="prefix__cls-20" data-name="Path 971" transform="translate(32.444 4.997)"/>
            <path id="prefix__Path_972" d="M440.413 69.09s-2.546 1.407-2.643 3.867" class="prefix__cls-27" data-name="Path 972" transform="translate(32.524 5.13)"/>
            <path id="prefix__Path_973" d="M440.19 72.288s-.591-1.407-1.59-1.708" class="prefix__cls-27" data-name="Path 973" transform="translate(32.585 5.241)"/>
            <path id="prefix__Path_974" d="M421.736 65.731s1.225-5.726 5.038-4.727a24.278 24.278 0 0 0 8.831 8.143c2.772 1.407 5.307 1.289 5.833-.569a16.587 16.587 0 0 0 0-7.617c-1.687-9-9.744-10-15.266-6.628s-4.436 11.398-4.436 11.398z" class="prefix__cls-16" data-name="Path 974" transform="translate(31.326 3.901)"/>
            <path id="prefix__Path_975" d="M232.131 66.174c-9.432 1.354-12.462 9.035-13.085 16.662s-.312 10.743-3.889 14.481.15 7.638.15 7.638-4.05 20.412 7.638 23.355a18.65 18.65 0 0 0 11.2-9.808c4.05-8.1 6.081-29.747 6.542-37.686s-3.109-15.426-8.556-14.642z" class="prefix__cls-18" data-name="Path 975" transform="translate(15.87 4.909)"/>
            <path id="prefix__Path_976" d="M217.532 109.584a16.115 16.115 0 0 0-.849-6.542 5.64 5.64 0 0 1 1.192-5.855c3.588-4.05 3.223-7.423 3.9-15.685.376-4.985 1.633-9.98 4.63-13.482-5.017 3.051-6.886 8.874-7.359 14.675-.623 7.638-.312 10.743-3.889 14.481s.15 7.638.15 7.638-3.427 17.5 5.318 22.453c-3.491-4.791-3.491-12.805-3.093-17.683z" data-name="Path 976" transform="translate(15.87 5.051)" style="fill:#6aa0c2"/>
            <path id="prefix__Path_977" d="M226.053 102.084c-3.674 2.02-6.113 1.859-2.46 11.162s-3.663 12.988-3.8 13.053a9.819 9.819 0 0 0 2.7 1.149 18.65 18.65 0 0 0 11.2-9.808c4.05-8.1 6.081-29.747 6.542-37.686v-1.827l-2.654-.537c-9.873 9.035-7.897 22.463-11.528 24.494z" class="prefix__cls-19" data-name="Path 977" transform="translate(16.329 5.762)"/>
            <path id="prefix__Path_978" d="M218.653 103.391s5.715 5.586 6.274 17.447a4.469 4.469 0 0 1-4.233 4.673h-.58c-5.651-.44-15.609-3.126-25.912-14.943 0 0-7.23 1.074-8.594-5.371s3.115-13.966 3.115-13.966l11.194 5.264s11.775 3.005 18.736 6.896z" class="prefix__cls-30" data-name="Path 978" transform="translate(13.77 6.775)"/>
            <path id="prefix__Path_979" d="M218.359 124.7h.086a4.007 4.007 0 0 0 4.2-3.814v-.29c-.387-12.268-6.3-18.048-6.3-18.048a36.1 36.1 0 0 1 2.009 22.152z" class="prefix__cls-21" data-name="Path 979" transform="translate(16.074 7.616)"/>
            <path id="prefix__Path_980" d="M193.4 102.085c3.1 3.556 8.014 0 8.014-3.556s-2.073-7.52-.075-13.5c0 0-.075-2.3-2.739-1.708s-2.825 7.2-2.825 7.2-7.412 5.779-2.375 11.564z" class="prefix__cls-30" data-name="Path 980" transform="translate(14.238 6.18)"/>
            <path id="prefix__Path_981" d="M193.81 101.56c2.944 2.428 7-.451 7.413-3.61" class="prefix__cls-27" data-name="Path 981" transform="translate(14.399 7.274)"/>
            <path id="prefix__Path_982" d="M188.464 103.831c2.267.709 2.267 5.554-3.115 4.458s-3.91-6.714-.859-5.629a20.412 20.412 0 0 0 3.974 1.171z" class="prefix__cls-30" data-name="Path 982" transform="translate(13.503 7.614)"/>
            <path id="prefix__Path_983" d="M188.718 99.913c2.32.72 2.32 5.683-3.223 4.555s-4-6.875-.881-5.758a21.678 21.678 0 0 0 4.104 1.203z" class="prefix__cls-30" data-name="Path 983" transform="translate(13.507 7.32)"/>
            <path id="prefix__Path_984" d="M189.656 96.021c2.514.784 2.514 6.166-3.481 4.952s-4.3-7.52-.956-6.252a22.839 22.839 0 0 0 4.437 1.3z" class="prefix__cls-30" data-name="Path 984" transform="translate(13.536 7.022)"/>
            <path id="prefix__Path_985" d="M190.966 91.391c2.514.784 2.514 6.177-3.481 4.952s-4.3-7.52-.956-6.252a22.838 22.838 0 0 0 4.437 1.3z" class="prefix__cls-30" data-name="Path 985" transform="translate(13.633 6.678)"/>
            <path id="prefix__Path_986" d="M188.32 103.88a2.353 2.353 0 0 1-.14 4.061" class="prefix__cls-27" data-name="Path 986" transform="translate(13.981 7.715)"/>
            <path id="prefix__Path_987" d="M189.566 100.39a2.428 2.428 0 0 1-.322 3.416 2.353 2.353 0 0 1-.516.333 6.242 6.242 0 0 1-6.048-1.182" class="prefix__cls-27" data-name="Path 987" transform="translate(13.572 7.455)"/>
            <path id="prefix__Path_988" d="M189.85 96a2.6 2.6 0 0 1 .978 3.556 2.643 2.643 0 0 1-1.3 1.139 5.919 5.919 0 0 1-3.427.15 5.78 5.78 0 0 1-2.9-1.4" class="prefix__cls-27" data-name="Path 988" transform="translate(13.611 7.129)"/>
            <path id="prefix__Path_989" d="M192.3 93a2.729 2.729 0 0 1-2.149 3.223 2.568 2.568 0 0 1-.569.064 6.6 6.6 0 0 1-2.342-.129 10.26 10.26 0 0 1-1.16-.322" class="prefix__cls-27" data-name="Path 989" transform="translate(13.825 6.906)"/>
            <path id="prefix__Path_990" d="M290.2 251.281c.376 1.6.548 2.643.548 2.643-16.555 12.569-38.18 13.687-38.18 13.687a25.149 25.149 0 0 1 1.074-2.868 70.356 70.356 0 0 1 10.023-16.383c4.77-5.769 19.251-13.966 22.56-8.079a44.475 44.475 0 0 1 3.975 11z" class="prefix__cls-16" data-name="Path 990" transform="translate(18.764 17.697)"/>
            <path id="prefix__Path_991" d="M290.75 252.94c-16.555 12.569-38.18 13.686-38.18 13.686a25.143 25.143 0 0 1 1.074-2.868c5.866-.763 21.421-3.47 34.453-11.989a1.751 1.751 0 0 1 2.417.548 1.824 1.824 0 0 1 .236.623z" class="prefix__cls-23" data-name="Path 991" transform="translate(18.764 18.682)"/>
            <path id="prefix__Path_992" d="M269.235 250.137L265.453 247h-1.2c-.215.236-.43.473-.612.7a70.357 70.357 0 0 0-10.023 16.383c-.4.945-.741 1.912-1.074 2.868a80.844 80.844 0 0 0 18.875-3.835z" data-name="Path 992" transform="translate(18.762 18.348)" style="opacity:.4;fill:#0c1a3c"/>
            <path id="prefix__Path_993" d="M287.464 250.185c-9.443 9.293-25.783 10.066-25.783 10.066-.548-1.515-1.483-3.674-2.686-6.317-7.219-15.846-24.086-48.923-24.451-62.374-.43-15.674 1.558-60.762 1.558-60.762l34.377-.419-4.3 62.083c6.542 14.933 15.373 37.847 19.756 49.418.945 2.46 1.676 4.4 2.149 5.64a2.557 2.557 0 0 1-.623 2.664z" class="prefix__cls-28" data-name="Path 993" transform="translate(17.421 9.684)"/>
            <path id="prefix__Path_994" d="M286.469 241.763c-9.3 9.969-26.514 10.743-26.514 10.743-.548-1.515-1.483-3.674-2.686-6.317 5.146-1.891 18.1-3.824 26.965-12.14 1.2 3.137 2.063 5.436 2.471 6.446a1.074 1.074 0 0 1-.236 1.268z" class="prefix__cls-32" data-name="Path 994" transform="translate(19.114 17.386)"/>
            <path id="prefix__Path_995" d="M273.537 207.611c-2.6-6.446-5.221-12.773-7.52-18.091l1.343-19.66c-17.93 4.727-27.856 15.04-30.51 30.553 5.028 15.814 16.372 38.374 21.959 50.631 1.2 2.643 2.149 4.8 2.686 6.317A53.2 53.2 0 0 0 276.534 254c-1.246-4.825-4.071-19.457-2.997-46.389z" class="prefix__cls-33" data-name="Path 995" transform="translate(17.597 12.617)"/>
            <path id="prefix__Path_996" d="M271.415 203.43c-1.074-2.568-2.073-5.092-3.083-7.52l-14.922 44.325c1.558 3.3 2.976 6.317 4.147 8.874s2.149 4.8 2.686 6.317a52.426 52.426 0 0 0 8.927-1.45c-3.116-23.237 1.289-45.969 2.245-50.546z" class="prefix__cls-33" data-name="Path 996" transform="translate(18.827 14.552)"/>
            <path id="prefix__Path_997" d="M249.036 163.71s-.816 21.561-.408 26.567 25.88 55.788 25.88 55.788" class="prefix__cls-34" data-name="Path 997" transform="translate(18.463 12.16)"/>
            <path id="prefix__Path_998" d="M248.759 131.66s-2.213 12.806-2.911 16.523a6.446 6.446 0 0 0 1.977 5.941" class="prefix__cls-34" data-name="Path 998" transform="translate(18.257 9.779)"/>
            <path id="prefix__Path_999" d="M262.723 266.019a108.568 108.568 0 0 1-42.123.419c.612-.806 2.149-3.868 2.793-4.62a69.959 69.959 0 0 1 14.954-12.043c6.446-3.824 22.85-6.639 23.946 0 .707 4.225.43 16.244.43 16.244z" class="prefix__cls-16" data-name="Path 999" transform="translate(16.389 18.257)"/>
            <path id="prefix__Path_1000" d="M259.93 262.411c-5.64.988-19.337 2.6-37.428-.451-.688 1.192-1.493 2.739-1.9 3.223a108.569 108.569 0 0 0 42.123-.419 2.4 2.4 0 0 0-2.385-2.4 2.625 2.625 0 0 0-.408.043z" class="prefix__cls-23" data-name="Path 1000" transform="translate(16.389 19.459)"/>
            <path id="prefix__Path_1001" d="M255.4 130.973s-17.339 68.809-20.25 128.378l26.718.473s12.516-62.664 19.2-90.6S283.923 125 283.923 125z" class="prefix__cls-28" data-name="Path 1001" transform="translate(17.47 9.284)"/>
            <path id="prefix__Path_1002" d="M253.042 138.41c-3.03 13.1-8.852 39.985-13.192 70.119" class="prefix__cls-34" data-name="Path 1002" transform="translate(17.819 10.28)"/>
            <path id="prefix__Path_1003" d="M261.92 243.808c1.923-9.475 4.974-24.408 8.165-39.588" class="prefix__cls-34" data-name="Path 1003" transform="translate(19.459 15.169)"/>
            <path id="prefix__Path_1004" d="M275.621 144.88s-.945 17.694-11.377 56.057c0 0-6.446 28.587-9.314 49.589" class="prefix__cls-34" data-name="Path 1004" transform="translate(18.94 10.761)"/>
            <path id="prefix__Path_1005" d="M279.6 125.36l-8.7 1.816.956 4.824s-1.074 6.768 3.577 8.594c-.021-.054 4.167-5.179 4.167-15.234z" class="prefix__cls-32" data-name="Path 1005" transform="translate(20.126 9.311)"/>
            <path id="prefix__Path_1006" d="M249.136 188.441c-6.446-.548-10.5 18.392-2.922 19.337s10.41-18.736 2.922-19.337z" class="prefix__cls-32" data-name="Path 1006" transform="translate(17.987 13.996)"/>
            <path id="prefix__Path_1007" d="M236.193 242.612A107.761 107.761 0 0 0 263 244.2a.816.816 0 0 1 .892.752.514.514 0 0 1 0 .183l-.956 6.747a1.493 1.493 0 0 1-1.257 1.257c-3.706.559-16.114 2.02-26.857-1.311a.988.988 0 0 1-.688-1.01l.43-6.918a1.418 1.418 0 0 1 1.5-1.311z" class="prefix__cls-32" data-name="Path 1007" transform="translate(17.394 18.02)"/>
            <path id="prefix__Path_1008" d="M230.083 66.72s14.7-5.221 17.661-5.651 22.195.14 26.148 2.546 16.963 45.69 12.516 65.639a2.353 2.353 0 0 1-1.074 1.482c-3.438 2.073-17.79 9.174-47.484 6.542 0 0-4.942-2.149-5.081-3.953s2.256-7.918 1.7-9.755-8.766-27-8.906-35.9 4.52-20.95 4.52-20.95z" class="prefix__cls-18" data-name="Path 1008" transform="translate(16.758 4.524)"/>
            <path id="prefix__Path_1009" d="M225.62 87.386c.376 4.684 2.277 12.387 4.233 19.337 40.028.935 46.034-5.9 46.034-5.9L272.534 81.8s-13.321 6.843-46.914 5.586z" class="prefix__cls-4" data-name="Path 1009" transform="translate(16.762 6.074)"/>
            <path id="prefix__Path_1010" d="M284.221 128.822c3.663-16.4-4.523-48.59-9.669-60.837a21.486 21.486 0 0 0-10.27-1S254.71 75.612 255 89.019a160.74 160.74 0 0 0 2.417 22.56 35.924 35.924 0 0 1-.107 12.591 53.986 53.986 0 0 0-.859 12.956c15.878-1.074 24.225-5.307 26.761-6.822a2.342 2.342 0 0 0 1.01-1.483z" class="prefix__cls-19" data-name="Path 1010" transform="translate(18.945 4.957)"/>
            <path id="prefix__Path_1011" d="M232.477 116.553c-2.611-8.53-6.8-23.13-6.9-29.479s2.32-14.632 3.674-18.575" class="prefix__cls-22" data-name="Path 1011" transform="translate(16.759 5.086)"/>
            <path id="prefix__Path_1012" d="M271.422 63.433c-9.669-1.139-13.278 17.361-12.516 21.959s6.446 4.888 7.81 8.261.763 9.8 2.149 12.086 6.274 5.21 16.114 6.285 12.892-5.21 13.16-7.348-3.223-3.824-3.824-6.446.312-6.123-.913-7.52-5.21-1.987-5.823-2.149-5.027-23.817-16.157-25.128z" class="prefix__cls-18" data-name="Path 1012" transform="translate(19.228 4.706)"/>
            <path id="prefix__Path_1013" d="M284.716 87.078a97.684 97.684 0 0 1-13.966-2.568" class="prefix__cls-22" data-name="Path 1013" transform="translate(20.115 6.276)"/>
            <path id="prefix__Path_1014" d="M291.363 96.815s-10.2-1.88-17.1-1" class="prefix__cls-22" data-name="Path 1014" transform="translate(20.376 7.098)"/>
            <path id="prefix__Path_1015" d="M268.279 63.7c-3.223 1.074-5.64 4.587-7.208 8.594" class="prefix__cls-22" data-name="Path 1015" transform="translate(19.396 4.73)"/>
            <path id="prefix__Path_1016" d="M260.63 86.9c2.02 1.816 5 2.686 5.952 5.006 1.074 2.525.945 6.768 1.418 9.669" class="prefix__cls-22" data-name="Path 1016" transform="translate(19.363 6.453)"/>
            <path id="prefix__Path_1017" d="M272.084 102.964s14.965-4.684 23.452 3.352c0 0-7.928 15.524-19.337 24.343 0 0-3.373 5.511-11.645 9.089s-17.618-6.038-14.234-8.67c1.074-.806-3.749-4.512 3.631-6.865s10.6-1.687 10.6-1.687 3.741-14.051 7.533-19.562z" class="prefix__cls-30" data-name="Path 1017" transform="translate(18.544 7.546)"/>
            <path id="prefix__Path_1018" d="M252.316 130.058c.72-1.88-2.417-2.8.226-6.908-5.275 2.342-1.257 5.586-2.2 6.328-3.384 2.632 5.973 12.247 14.234 8.67-6.427 1.138-13.055-6.006-12.26-8.09z" class="prefix__cls-21" data-name="Path 1018" transform="translate(18.546 9.146)"/>
            <path id="prefix__Path_1019" d="M293.982 106.326c-8.487-8.036-23.452-3.352-23.452-3.352a31.283 31.283 0 0 1 21.045 7.585c1.547-2.568 2.407-4.233 2.407-4.233z" class="prefix__cls-21" data-name="Path 1019" transform="translate(20.099 7.547)"/>
            <path id="prefix__Path_1020" d="M263.582 121.33a24.387 24.387 0 0 1 10.969 9.132l2.31-1.633a1.074 1.074 0 0 0 .3-1.493c-1.461-2.213-5.715-7.853-12.279-9.6a1.074 1.074 0 0 0-1.2.623l-.645 1.665a1.074 1.074 0 0 0 .545 1.306z" class="prefix__cls-16" data-name="Path 1020" transform="translate(19.538 8.742)"/>
            <path id="prefix__Path_1021" d="M275.5 125.56a2.9 2.9 0 1 1-2.911-2.89 2.879 2.879 0 0 1 2.89 2.89z" class="prefix__cls-3" data-name="Path 1021" transform="translate(20.037 9.111)"/>
            <circle id="prefix__Ellipse_91" cx="1.73" cy="1.73" r="1.73" class="prefix__cls-4" data-name="Ellipse 91" transform="translate(290.919 132.941)"/>
            <path id="prefix__Path_1022" d="M234.9 63.1l.838 4.641a6.994 6.994 0 0 0 5.114 3.223 16.7 16.7 0 0 0 7.821-7.1l-5.737-12.524z" class="prefix__cls-30" data-name="Path 1022" transform="translate(17.452 3.811)"/>
            <path id="prefix__Path_1023" d="M243.194 56.5a41.961 41.961 0 0 0-.526-4.781L234.9 63.075l.838 4.641a2.492 2.492 0 0 0 3.427.763 2.331 2.331 0 0 0 .473-.387c2.814-2.943 3.813-7.735 3.556-11.592z" class="prefix__cls-21" data-name="Path 1023" transform="translate(17.452 3.84)"/>
            <path id="prefix__Path_1024" d="M228.012 38.891c-6.166 1.891-6.5 7.821-4.77 13.644s6.158 16.887 11.968 15.222 7.821-8.723 7.52-14.052-1.568-18.821-14.718-14.814z" class="prefix__cls-30" data-name="Path 1024" transform="translate(16.518 2.832)"/>
            <path id="prefix__Path_1025" d="M229.224 47.446a9.669 9.669 0 0 1-9.486 2.428c-5.876-1.6-8.444-10.528-3.8-15.158 3.481-3.481 8.713-3.223 12.473-1.268a8.68 8.68 0 0 0 8.369-.15l.408-.247c2.836-1.73 7.52-.763 7.885 4.985 0 0 6.51 1.934 4.781 9.969s-2.4 10.6-2.4 10.6l-4.8-5.071-1.182.14-.162-1.074a6.22 6.22 0 0 0-2.815-4.3 3.986 3.986 0 0 1-1.73-3.416s-2.975 4.088-7.541 2.562z" class="prefix__cls-16" data-name="Path 1025" transform="translate(15.865 2.376)"/>
            <path id="prefix__Path_1026" d="M240.51 51.15s-.075-3.223 2.149-3.739 2.073 8.036-1.8 8.723z" class="prefix__cls-30" data-name="Path 1026" transform="translate(17.868 3.518)"/>
            <path id="prefix__Path_1027" d="M241.405 54.1s-.548-3.964 1.354-5.371" class="prefix__cls-27" data-name="Path 1027" transform="translate(17.93 3.617)"/>
            <path id="prefix__Path_1028" d="M241.64 50.85a2.46 2.46 0 0 1 1.4 1.268" class="prefix__cls-27" data-name="Path 1028" transform="translate(17.952 3.775)"/>
            <path id="prefix__Rectangle_268" d="M0 0H4.598V33.722H0z" data-name="Rectangle 268" transform="translate(40.34 175.816)" style="fill:#231f20"/>
            <path id="prefix__Path_1029" d="M62.295 140.38H20v45.4h42.295c2.353 0 4.3-10.163 4.3-22.7s-1.947-22.7-4.3-22.7z" class="prefix__cls-15" data-name="Path 1029" transform="translate(1.486 10.426)"/>
            <ellipse id="prefix__Ellipse_92" cx="4.254" cy="22.7" class="prefix__cls-36" data-name="Ellipse 92" rx="4.254" ry="22.7" transform="translate(17.232 150.806)"/>
            <path id="prefix__Rectangle_269" d="M0 0H4.598V50.943H0z" class="prefix__cls-15" data-name="Rectangle 269" transform="translate(56.701 210.527)"/>
            <path id="prefix__Path_1030" d="M92.605 250.182v1.826H22.11v-1.826a2.653 2.653 0 0 1 2.149-2.611l33.067-6.091 33.1 6.113a2.643 2.643 0 0 1 2.181 2.589z" class="prefix__cls-15" data-name="Path 1030" transform="translate(1.643 17.938)"/>
            <path id="prefix__Path_1031" d="M84.174 259.8a1.386 1.386 0 0 1-1.364-1.375v-8.917a1.375 1.375 0 0 1 2.739 0v8.917a1.375 1.375 0 0 1-1.375 1.375z" class="prefix__cls-15" data-name="Path 1031" transform="translate(6.152 18.441)"/>
            <path id="prefix__Path_1032" d="M25.844 259.8a1.386 1.386 0 0 1-1.364-1.375v-8.917a1.375 1.375 0 0 1 2.739 0v8.917a1.375 1.375 0 0 1-1.375 1.375z" class="prefix__cls-15" data-name="Path 1032" transform="translate(1.819 18.441)"/>
            <path id="prefix__Path_1033" d="M30.482 258a4.426 4.426 0 1 1-4.426-4.426A4.415 4.415 0 0 1 30.482 258z" class="prefix__cls-15" data-name="Path 1033" transform="translate(1.607 18.836)"/>
            <path id="prefix__Path_1034" d="M80 258a4.426 4.426 0 1 0 4.426-4.426A4.437 4.437 0 0 0 80 258z" class="prefix__cls-15" data-name="Path 1034" transform="translate(5.944 18.836)"/>
            <path id="prefix__Path_1035" d="M73.035 190.68H46.511v1.6c-3.782.827-6.081 1.891-6.081 3.062s2.3 2.245 6.081 3.073v1.633h26.524c13.826 0 25.042-2.149 25.042-4.705s-11.216-4.663-25.042-4.663z" data-name="Path 1035" transform="translate(3.004 14.163)" style="fill:#1a0d77"/>
            <path id="prefix__Path_1036" d="M47.823 190.68c13.826 0 25.042 2.149 25.042 4.695s-11.173 4.705-25.042 4.705-25.053-2.149-25.053-4.705 11.216-4.695 25.053-4.695z" class="prefix__cls-15" data-name="Path 1036" transform="translate(1.692 14.163)"/>
            <path id="prefix__Path_1037" d="M174.5 187.165H85.74l4.684-12.655H174.5z" class="prefix__cls-15" data-name="Path 1037" transform="translate(6.37 12.962)"/>
            <path id="prefix__Path_1038" d="M193.418 187.165H109.29l4.684-12.655h79.444a4.63 4.63 0 0 1 4.63 4.63v3.416a4.63 4.63 0 0 1-4.619 4.641z" class="prefix__cls-3" data-name="Path 1038" transform="translate(8.12 12.962)"/>
            <path id="prefix__Rectangle_270" d="M0 0H3.975V86.438H0z" class="prefix__cls-3" data-name="Rectangle 270" transform="translate(196.317 200.127)"/>
            <path id="prefix__Path_1039" d="M182.74 196c1.665-2.492 2.987-4.3 3.975-5.5v-4.21h-3.975z" class="prefix__cls-14" data-name="Path 1039" transform="translate(13.577 13.837)"/>
            <path id="prefix__Rectangle_271" d="M0 0H5.028V86.438H0z" class="prefix__cls-15" data-name="Rectangle 271" transform="translate(191.289 200.127)"/>
            <path id="prefix__Rectangle_272" d="M0 0H3.975V86.438H0z" class="prefix__cls-3" data-name="Rectangle 272" transform="translate(164.84 200.127)"/>
            <path id="prefix__Path_1040" d="M153.44 203.07a44.191 44.191 0 0 1 3.96 4.53v-21.31h-3.96z" class="prefix__cls-14" data-name="Path 1040" transform="translate(11.4 13.837)"/>
            <path id="prefix__Rectangle_273" d="M0 0H5.028V86.438H0z" class="prefix__cls-15" data-name="Rectangle 273" transform="translate(159.801 200.127)"/>
            <path id="prefix__Path_1041" d="M72.03 272.728h1.826l27.771-86.438h-3.964z" class="prefix__cls-3" data-name="Path 1041" transform="translate(5.351 13.837)"/>
            <path id="prefix__Path_1042" d="M82.779 243.485l18.381-57.2H97.2l-18.89 63.689 1.611-1.687a12.312 12.312 0 0 0 2.858-4.802z" class="prefix__cls-14" data-name="Path 1042" transform="translate(5.818 13.837)"/>
            <path id="prefix__Path_1043" d="M69.75 272.728h2.45l25.632-86.438h-5.038z" class="prefix__cls-15" data-name="Path 1043" transform="translate(5.182 13.837)"/>
            <path id="prefix__Path_1044" d="M63.912 117.658c-7.026 5.436-1.547 22.7 3.223 32.078 0 0 9.089 2 20.412-13.407-.001 0-13.047-26.868-23.635-18.671z" class="prefix__cls-3" data-name="Path 1044" transform="translate(4.499 8.623)"/>
            <path id="prefix__Path_1045" d="M85.247 139.006C83.023 134.709 71.528 113.728 62 121.1a6.919 6.919 0 0 0-.913.859c-2.02 7.52 2.245 20.025 6.08 27.523-.001-.002 7.833 1.707 18.08-10.476z" class="prefix__cls-14" data-name="Path 1045" transform="translate(4.5 8.878)"/>
            <path id="prefix__Path_1046" d="M68.38 147.767s6.328-10.485 18.027-12.537c0 0 7.681 10.872 10.743 14.61s7.456 11.753.655 17.5-18.446-2.889-29.425-19.573z" class="prefix__cls-36" data-name="Path 1046" transform="translate(5.08 10.044)"/>
            <path id="prefix__Path_1047" d="M76.129 141.214s2-1.977 12.892-1.525L85.8 135.23a24.8 24.8 0 0 0-10.238 4.426z" class="prefix__cls-15" data-name="Path 1047" transform="translate(5.614 10.044)"/>
            <path id="prefix__Path_1048" d="M83.846 154.642a135.725 135.725 0 0 1 23.108-27.932s2.149-3.223 10.045-6.016 11.162-3.739 12.075-2.686-1.665 3.126-4.415 4.523c0 0 2.9.741 2.664 2.911a3.674 3.674 0 0 1-2.621 2.847s2.772 1.407 1.816 3.223a5.672 5.672 0 0 1-2.525 2.471s3.33 2.02-.5 4.963c-2.89 2.213-7.273 2.2-7.273 2.2s-5.092 14.245-14.116 23.828c-9.669 10.206-15.674 3.782-18.789 1.816s-2.338-7.668.531-12.148z" class="prefix__cls-36" data-name="Path 1048" transform="translate(6.041 8.733)"/>
            <path id="prefix__Path_1049" d="M108.12 135.69c9.4 4.426 13.547 0 13.547 0l-1.235-9.98-3.728 1.579s.526 6.8-8.584 8.401z" class="prefix__cls-15" data-name="Path 1049" transform="translate(8.033 9.337)"/>
            <path id="prefix__Path_1050" d="M85.31 149.96c1.074-1.73 2.815-4.179 5.028-7.08" class="prefix__cls-38" data-name="Path 1050" transform="translate(6.338 10.612)"/>
            <path id="prefix__Path_1051" d="M136.092 134.958a44.175 44.175 0 0 1 10.1-30.424.827.827 0 0 0-.72-1.354l-19.649 2.063a.784.784 0 0 0-.494.247A43.67 43.67 0 0 0 114 137.182a.849.849 0 0 0 .892.784l20.5-2.149a.816.816 0 0 0 .7-.859z" class="prefix__cls-3" data-name="Path 1051" transform="translate(8.465 7.662)"/>
            <path id="prefix__Path_1052" d="M126.25 106.971c-.29.3-.7.763-1.2 1.386a38.566 38.566 0 0 0-3.8 5.565 42.574 42.574 0 0 0-5.543 21.067v.784l18.263-1.912v-1.192a46.764 46.764 0 0 1 .924-9.325 46.259 46.259 0 0 1 5.124-13.644 44.332 44.332 0 0 1 2.9-4.48zm6.242 4.834a3.223 3.223 0 0 1-2.7 1.816c-1.074 0-1.525-.806-1.074-1.816a3.223 3.223 0 0 1 2.707-1.816c1.045.001 1.528.817 1.066 1.816z" class="prefix__cls-18" data-name="Path 1052" transform="translate(8.596 7.814)"/>
            <path id="prefix__Path_1053" d="M133.983 131.878v1.192l-18.263 1.912v-.782a42.552 42.552 0 0 1 1.074-9.755c2.525-2.009 10.893-8.594 11.978-8.594.688 0 4.91 5.21 6.113 6.725a46.615 46.615 0 0 0-.9 9.3z" class="prefix__cls-23" data-name="Path 1053" transform="translate(8.597 8.604)"/>
            <path id="prefix__Path_1054" d="M105.086 127.563s2.482-4.985 5.747-7.294 9.089-3.7 9.862-2.32-4.458 4.888-4.458 4.888.376 11.248-4.372 12.612c-8.627 2.481-9.217-3.514-6.779-7.886z" class="prefix__cls-36" data-name="Path 1054" transform="translate(7.715 8.719)"/>
            <path id="prefix__Path_1055" d="M114.139 133.1c-4.834 3.513-8.9 1.9-9.819 0" class="prefix__cls-38" data-name="Path 1055" transform="translate(7.75 9.886)"/>
            <path id="prefix__Path_1056" d="M70.78 113.181c-8.132-1.622-21.486 8.691-30.5 30.94s-8.541 40.522-5.747 47.742 45.529 12.225 45.829-11.183 2.514-37.332 2.654-48.623c.14-12.365-5.607-17.522-12.236-18.876z" class="prefix__cls-3" data-name="Path 1056" transform="translate(2.433 8.394)"/>
            <path id="prefix__Path_1057" d="M80.817 151.538a33.755 33.755 0 0 0-.784-10.335c-.408-1.773-.752-3.373-1-4.727-1.912-10.367-12.988-26.557-21.088-12.591-17.866 25.783-11.817 59.086-11.817 59.086l33.389-8.014c.269-9.239.783-16.866 1.3-23.419z" class="prefix__cls-14" data-name="Path 1057" transform="translate(3.354 8.798)"/>
            <path id="prefix__Path_1058" d="M140.418 260.823a6.693 6.693 0 0 1 1.364 2.267c-15.631 8.014-40.071 3.878-40.071 3.878a24.879 24.879 0 0 1-.741-2.46A42.714 42.714 0 0 1 100 253.3l22.1-4.383s3.459 2.32 11.13 6.446a23.559 23.559 0 0 1 7.188 5.46z" class="prefix__cls-16" data-name="Path 1058" transform="translate(7.426 18.49)"/>
            <path id="prefix__Path_1059" d="M140.348 260a6.693 6.693 0 0 1 1.364 2.267c-15.631 8.014-40.071 3.878-40.071 3.878a24.872 24.872 0 0 1-.741-2.46c6.08.881 27.416 3.215 39.448-3.685z" class="prefix__cls-23" data-name="Path 1059" transform="translate(7.496 19.314)"/>
            <path id="prefix__Path_1060" d="M130.807 255.741l-27.663 3.277-7.606-45.318C80.724 208.011 49 192.766 49 192.766l25.257-20.046c21.121 5.812 33.733 12.655 33.733 12.655 5.146 2.492 8.594 7.423 11.119 14.127 6.735 17.747 11.698 56.239 11.698 56.239z" class="prefix__cls-23" data-name="Path 1060" transform="translate(3.64 12.829)"/>
            <path id="prefix__Path_1061" d="M125.825 241.17a91.639 91.639 0 0 1-28.125 1.891l1.4 7.982 27.491-5.157c-.261-1.353-.491-2.954-.766-4.716z" class="prefix__cls-19" data-name="Path 1061" transform="translate(7.259 17.915)"/>
            <path id="prefix__Path_1062" d="M114.743 196.507a13.966 13.966 0 0 0-7.52-11.226h-.075s-9.8-5.371-26.578-10.56L60.62 196.56l26.524 13.02.312 1.074c2.654 1.074 5.114 2.149 7.219 2.944l2.643 15.76c9.121-6.252 19.015-17.629 17.425-32.851z" class="prefix__cls-19" data-name="Path 1062" transform="translate(4.504 12.978)"/>
            <path id="prefix__Path_1063" d="M111.939 246.277l-7.606-48.73L60.62 180.1" data-name="Path 1063" transform="translate(4.504 13.377)" style="stroke:#346e94;stroke-width:.7px;stroke-linecap:round;stroke-linejoin:round;fill:none"/>
            <path id="prefix__Path_1064" d="M93.67 210.4a63.843 63.843 0 0 1 9.54-10.1" data-name="Path 1064" transform="translate(6.959 14.878)" style="stroke:#231f20;fill:#fff;stroke-width:.7px;stroke-linecap:round;stroke-linejoin:round"/>
            <path id="prefix__Path_1065" d="M100.5 246.006c5.06-.258 15.674-1.074 23.226-3.158a2.568 2.568 0 0 1 3.223 1.773 2.15 2.15 0 0 1 0 .258l.838 5.028a2.557 2.557 0 0 1-1.73 2.858c-4.4 1.407-15.04 4.3-25 2.718a2.567 2.567 0 0 1-2.149-2.073l-.806-4.383a2.546 2.546 0 0 1 2.03-2.976 2 2 0 0 1 .365-.043z" class="prefix__cls-18" data-name="Path 1065" transform="translate(7.285 18.031)"/>
            <path id="prefix__Path_1066" d="M111.444 255.564a27.577 27.577 0 0 1-1.45-10.474c-3.771.408-7.2.634-9.5.741a2.546 2.546 0 0 0-2.414 2.669v.355l.806 4.383a2.567 2.567 0 0 0 2.149 2.073 44.043 44.043 0 0 0 10.409.253z" class="prefix__cls-19" data-name="Path 1066" transform="translate(7.287 18.206)"/>
            <path id="prefix__Path_1067" d="M63.631 264.96a6.554 6.554 0 0 1-1.192 2.363c-15.137-8.9-24.709-31.756-24.709-31.756a20.409 20.409 0 0 1 1.665-1.923 42.3 42.3 0 0 1 8.992-6.854l15.534 16.34s-.1 4.158.494 12.892a23.806 23.806 0 0 1-.784 8.938z" class="prefix__cls-16" data-name="Path 1067" transform="translate(2.803 16.846)"/>
            <path id="prefix__Path_1068" d="M63.631 264.486a6.553 6.553 0 0 1-1.192 2.363c-15.137-8.9-24.709-31.756-24.709-31.756a20.413 20.413 0 0 1 1.67-1.923c2.53 5.565 11.984 24.83 24.231 31.316z" class="prefix__cls-23" data-name="Path 1068" transform="translate(2.803 17.32)"/>
            <path id="prefix__Path_1069" d="M37.952 193.178c7.176 6.994 26.75 10.635 35.022 12.526L47.986 230.1l17.586 21.583s30.585-25.278 41.994-40.512 8.433-28.533-38-40.222c0 0-17.468-2.643-31.874 13.343a6.446 6.446 0 0 0 .258 8.884z" class="prefix__cls-18" data-name="Path 1069" transform="translate(2.678 12.686)"/>
            <path id="prefix__Path_1070" d="M46.79 180.42s2.417 6.908 35.935 16.243l6.747 1.9-28.856 27.47" class="prefix__cls-22" data-name="Path 1070" transform="translate(3.476 13.401)"/>
            <path id="prefix__Path_1071" d="M71.84 203.426s9.271-2.149 15.771-6.156" class="prefix__cls-22" data-name="Path 1071" transform="translate(5.337 14.653)"/>
            <path id="prefix__Path_1072" d="M54.291 223.067c2.879 4.093 9.465 13.02 15.47 18.338a2.278 2.278 0 0 1 .2 3.223 1.936 1.936 0 0 1-.2.215L65.6 248.57a2.3 2.3 0 0 1-3.019.064c-3.47-2.879-11.817-10.507-15.921-19.96a2.342 2.342 0 0 1 .548-2.632l3.61-3.33a2.31 2.31 0 0 1 3.223.1 2.4 2.4 0 0 1 .25.255z" class="prefix__cls-23" data-name="Path 1072" transform="translate(3.453 16.498)"/>
            <path id="prefix__Path_1073" d="M67.213 103.45L65 115.686s3.685 4.566 11.345 4.3l1.182-10.9z" class="prefix__cls-36" data-name="Path 1073" transform="translate(4.829 7.683)"/>
            <path id="prefix__Path_1074" d="M66.6 106.189c1.343 2.944 4.448 8.036 10.141 9.035l.666-6.177-10.313-5.6z" class="prefix__cls-15" data-name="Path 1074" transform="translate(4.948 7.683)"/>
            <path id="prefix__Path_1075" d="M84.337 113.334c-5.533 2.654-17.071-2.782-20.841-12.311-.1-.215-.172-.43-.258-.645-3.427-9.174-1.44-15.62 8.39-18.005a11.162 11.162 0 0 1 10.807 3.148 16 16 0 0 1 3.889 6.79c1.816 6.166 3.076 18.617-1.987 21.023z" class="prefix__cls-36" data-name="Path 1075" transform="translate(4.583 6.092)"/>
            <path id="prefix__Path_1076" d="M72.681 87.924a10.474 10.474 0 0 1-2.944 8.766 3.416 3.416 0 0 0-.537 3.964l.44.838-1.235.763-5.167-1.816c-3.427-9.174-1.44-15.62 8.39-18.005a11.14 11.14 0 0 1 10.807 3.083 15.266 15.266 0 0 0-9.754 2.407z" class="prefix__cls-15" data-name="Path 1076" transform="translate(4.583 6.096)"/>
            <path id="prefix__Path_1077" d="M66.409 97.8s-5.6-2-4.458 2.277 5.6 5.5 7.52 3.986-3.062-6.263-3.062-6.263z" class="prefix__cls-36" data-name="Path 1077" transform="translate(4.591 7.229)"/>
            <path id="prefix__Path_1078" d="M63.38 98.83s3.373.161 4.738 2.675" class="prefix__cls-38" data-name="Path 1078" transform="translate(4.709 7.34)"/>
            <path id="prefix__Path_1079" d="M65.1 102.1a3.835 3.835 0 0 1 .784-2.6" class="prefix__cls-38" data-name="Path 1079" transform="translate(4.836 7.389)"/>
            <path id="prefix__Path_1080" d="M63.128 116.533c-8.519 2.5-9.669 20.583-8.594 31.069 0 0 7.735 5.157 23.86-5.081-.033-.001-2.418-29.759-15.266-25.988z" class="prefix__cls-3" data-name="Path 1080" transform="translate(4.026 8.63)"/>
            <path id="prefix__Path_1081" d="M61 148.879a5.748 5.748 0 0 1-5.468-5.6c-.365-10.507 1.472-24.558 8.917-26.75a6.628 6.628 0 0 1 1.5-.279 7.176 7.176 0 0 0-2.825.279c-8.519 2.5-9.669 20.584-8.594 31.069 0 0 2.149 1.45 6.607 1.289z" data-name="Path 1081" transform="translate(4.026 8.631)" style="fill:#ffc882"/>
            <path id="prefix__Path_1082" d="M76.343 142.082l.645-.107s-.72-11.4-4.3-18.435" data-name="Path 1082" transform="translate(5.4 9.175)" style="stroke:#d98609;stroke-width:.7px;stroke-linecap:round;stroke-linejoin:round;fill:none"/>
            <path id="prefix__Path_1083" d="M56.22 145.945s9.669-7.466 21.346-5.114c0 0 3.223 12.892 4.695 17.5S84.936 172 76.5 174.876s-16.122-9.389-20.28-28.931z" class="prefix__cls-36" data-name="Path 1083" transform="translate(4.177 10.426)"/>
            <path id="prefix__Path_1084" d="M82.261 158.329c-.612-1.88-3.846-14.288-4.695-17.5a27.663 27.663 0 0 0-21.346 5.114" class="prefix__cls-38" data-name="Path 1084" transform="translate(4.177 10.429)"/>
            <path id="prefix__Path_1085" d="M73.326 157.216a135.166 135.166 0 0 1 35.763-5.973s3.739-1.074 11.527 2.03 10.883 4.48 10.883 5.866-3.309 1.278-6.3.537c0 0 1.708 2.449.107 3.943a3.7 3.7 0 0 1-3.846.43s1.182 2.879-.741 3.631a5.576 5.576 0 0 1-3.524.215s1.192 3.7-3.631 3.416c-3.631-.215-6.94-3.094-6.94-3.094s-12.268 7.52-25.407 8.433-15.572-6.726-16.646-10.25 3.629-7.7 8.755-9.184z" class="prefix__cls-36" data-name="Path 1085" transform="translate(4.786 11.22)"/>
            <path id="prefix__Path_1086" d="M114.545 170.258c-.537-2.718-4.211-4.759-6.607-5.823a4.3 4.3 0 0 0-3.782.161c-4.716 2.621-18.274 9.411-31.036 10.485a23.225 23.225 0 0 0 7.456.6c13.139-.859 25.407-8.433 25.407-8.433s3.309 2.879 6.94 3.094a7.52 7.52 0 0 0 1.622-.086z" class="prefix__cls-15" data-name="Path 1086" transform="translate(5.432 12.187)"/>
            <path id="prefix__Path_1087" d="M72.71 157.236a113.875 113.875 0 0 1 38.331-6.446" class="prefix__cls-38" data-name="Path 1087" transform="translate(5.402 11.2)"/>
            <path id="prefix__Path_1088" d="M94.94 272.728h1.816l27.781-86.438h-3.975z" class="prefix__cls-3" data-name="Path 1088" transform="translate(7.053 13.837)"/>
            <path id="prefix__Path_1089" d="M118.868 186.29l-1.128 3.8a6.027 6.027 0 0 1 3.975-.312l1.074-3.491z" class="prefix__cls-14" data-name="Path 1089" transform="translate(8.747 13.837)"/>
            <path id="prefix__Path_1090" d="M92.66 272.728h2.449l25.622-86.438H115.7z" class="prefix__cls-15" data-name="Path 1090" transform="translate(6.884 13.837)"/>
            <path id="prefix__Path_1091" d="M92.228 171.1h43.09v3.653H91.1v-2.5a1.074 1.074 0 0 1 .967-1.149z" class="prefix__cls-23" data-name="Path 1091" transform="translate(6.768 12.709)"/>
            <path id="prefix__Path_1092" d="M116.6 171.1h44.218v1.074a2.621 2.621 0 0 1-2.618 2.626h-41.6z" class="prefix__cls-18" data-name="Path 1092" transform="translate(8.663 12.709)"/>
            <path id="prefix__Rectangle_274" d="M0 0H5.253V0.967H0z" class="prefix__cls-15" data-name="Rectangle 274" transform="translate(160.94 185.034)"/>
            <path id="prefix__Path_1093" d="M145.283 172.24h2.707a.483.483 0 0 1 .483.483.483.483 0 0 1-.483.483h-2.707a.483.483 0 0 1-.483-.483.483.483 0 0 1 .483-.483z" class="prefix__cls-23" data-name="Path 1093" transform="translate(10.758 12.794)"/>
            <path id="prefix__Path_1094" d="M141.143 172.24h2.707a.483.483 0 0 1 .483.483.483.483 0 0 1-.483.483h-2.707a.483.483 0 0 1-.483-.483.483.483 0 0 1 .483-.483z" class="prefix__cls-23" data-name="Path 1094" transform="translate(10.45 12.794)"/>
            <path id="prefix__Path_1095" d="M137.033 172.24h2.707a.483.483 0 0 1 .483.483.483.483 0 0 1-.483.483h-2.707a.483.483 0 0 1-.483-.483.483.483 0 0 1 .483-.483z" class="prefix__cls-23" data-name="Path 1095" transform="translate(10.145 12.794)"/>
            <path id="prefix__Path_1096" d="M122.94 173.383h37.407L174.7 140.37h-37.407z" class="prefix__cls-3" data-name="Path 1096" transform="translate(9.134 10.426)"/>
            <path id="prefix__Path_1097" d="M138.227 141.85h33.819l-12.977 29.844H125.26z" class="prefix__cls-4" data-name="Path 1097" transform="translate(9.306 10.536)"/>
            <path id="prefix__Path_1098" d="M130.349 168.816h-2.3L133.626 156h2.3z" class="prefix__cls-28" data-name="Path 1098" transform="translate(9.513 11.587)"/>
            <path id="prefix__Path_1099" d="M134.548 168.374h-2.288l2.782-6.414h2.3z" class="prefix__cls-28" data-name="Path 1099" transform="translate(9.826 12.03)"/>
            <path id="prefix__Path_1100" d="M138.759 168.816h-2.3L142.036 156h2.288z" class="prefix__cls-28" data-name="Path 1100" transform="translate(10.138 11.587)"/>
            <path id="prefix__Path_1101" d="M142.959 168.94h-2.3l6.285-14.6h2.288z" class="prefix__cls-28" data-name="Path 1101" transform="translate(10.45 11.464)"/>
            <path id="prefix__Path_1102" d="M147.158 168.724h-2.288l5.006-11.484h2.3z" class="prefix__cls-28" data-name="Path 1102" transform="translate(10.763 11.679)"/>
            <path id="prefix__Path_1103" d="M151.369 168.562h-2.3L153 159.42h2.3z" class="prefix__cls-28" data-name="Path 1103" transform="translate(11.075 11.841)"/>
            <path id="prefix__Path_1104" d="M155.569 168.816h-2.3L158.846 156h2.3z" class="prefix__cls-28" data-name="Path 1104" transform="translate(11.387 11.587)"/>
            <path id="prefix__Path_1105" d="M135.03 155.064l7.026-4.9 2.288 4.061 7.993-5.576 2.063 3.642 11.044-7.692" class="prefix__cls-22" data-name="Path 1105" transform="translate(10.032 10.74)"/>
            <path id="prefix__Path_1106" d="M160.73 144.6h2.8l-1.225 2.8" class="prefix__cls-22" data-name="Path 1106" transform="translate(11.941 10.74)"/>
            <path id="prefix__Path_1107" d="M172.113 140.37l-14.353 33.013h1.074a.978.978 0 0 0 .9-.591l13.321-30.607a.988.988 0 0 0-.2-1.074z" class="prefix__cls-23" data-name="Path 1107" transform="translate(11.721 10.426)"/>
        </g>
    </g>
</svg>
