<svg xmlns="http://www.w3.org/2000/svg" width="14.484" height="20.799" data-name="20_Pin" viewBox="0 0 14.484 20.799">
    <g data-name="Group 61">
        <path d="M7.242 20.8a1.911 1.911 0 0 1-1.516-1.1C1.01 11.031 1.01 10.947 1.01 10.947A7 7 0 0 1 0 7.242a7.242 7.242 0 1 1 14.484 0 7.113 7.113 0 0 1-1.095 3.874s-.253.505-4.631 8.673A1.869 1.869 0 0 1 7.242 20.8zm0-20.041a6.4 6.4 0 0 0-6.4 6.4 6.751 6.751 0 0 0 .926 3.368c.168.253 3.453 6.4 4.716 8.758.421.842 1.095.842 1.516 0 1.6-2.863 4.547-8.421 4.631-8.673A6.4 6.4 0 0 0 7.242.76z" data-name="Path 655"/>
    </g>
    <g data-name="Group 62">
        <path d="M7.242 11.621A4.043 4.043 0 0 1 3.2 7.579a3.99 3.99 0 0 1 4.042-4.042 4.042 4.042 0 1 1 0 8.084zm0-7.242a3.2 3.2 0 1 0 3.2 3.2 3.2 3.2 0 0 0-3.2-3.2z" data-name="Path 656"/>
    </g>
</svg>
