<svg xmlns="http://www.w3.org/2000/svg" id="prefix__Layer_2" width="354.208" height="187.432" data-name="Layer 2" viewBox="0 0 354.208 187.432">
    <defs>
        <style>
            .prefix__cls-3{fill:#d7ecef}.prefix__cls-4{fill:#54a39b}.prefix__cls-5{fill:#f4c7b8}.prefix__cls-6{fill:#ffd0bc}.prefix__cls-7{fill:#03382e}.prefix__cls-8{fill:#fb6304}.prefix__cls-9{fill:#022b23}.prefix__cls-11{fill:#03756f}.prefix__cls-12{fill:#017d70}.prefix__cls-13{opacity:.44}.prefix__cls-14{fill:#03725d}.prefix__cls-15{fill:#02806b}.prefix__cls-17{fill:#3a4d57}.prefix__cls-18{fill:#ff7131}.prefix__cls-19{fill:#fe9370}.prefix__cls-20{fill:#ddd}.prefix__cls-21{fill:#fb8860}.prefix__cls-23{fill:#752404}.prefix__cls-24{fill:#fff0d9}.prefix__cls-25{fill:#dbcebb}
        </style>
    </defs>
    <g id="prefix__OBJECTS">
        <g id="prefix__Group_13" data-name="Group 13" transform="translate(26.931)" style="opacity:.12">
            <path id="prefix__Path_499" d="M72.168 147.836C56.476 135.267 39.722 120.969 36.1 101.2c-1.069-5.837-.8-12.182 2.274-17.247s9.522-8.339 15.162-6.482c4.268 1.41 7.164 5.254 10.151 8.612 5.026 5.633 12.531 10.712 19.71 8.271 5.049-1.721 8.293-6.823 9.355-12.084s.334-10.613-.212-15.92c-.857-8.248-1.274-16.678.758-24.736s6.876-15.708 14.267-19.468 17.436-2.684 22.743 3.7c5.42 6.535 4.64 15.973 4.844 24.456s3.07 18.581 11.235 20.9c5.307 1.516 11.167-1.145 14.768-5.307s5.345-9.658 6.52-15.056c1.691-7.975 2.4-16.109 3.154-24.213.447-4.852.948-9.8 3.032-14.214a21.484 21.484 0 0 1 37.973-1.789c4.67 7.983 3.73 18.05 1.251 26.958-1.865 6.7-4.549 13.3-4.814 20.264s2.517 14.654 8.8 17.671c6.156 2.964 13.744.523 19.013-3.79s8.87-10.333 13.032-15.753c5.056-6.588 11.3-12.622 19.089-15.488s17.368-1.994 23.311 3.79a12.584 12.584 0 0 1 3.836 6.891c.523 3.373-.758 6.777-2.524 9.711-4.458 7.581-11.743 13.16-16.011 20.825s-3.942 19.362 4 23.069c4 1.865 8.657 1.122 12.994.371 9.916-1.706 20.249-3.207 29.922-.44s18.528 10.985 18.74 21.052c.152 7.1-4.1 13.881-10.06 17.754s-13.365 5.094-20.468 4.45c-5.845-.531-11.606-2.274-17.436-2.009s-12.243 3.154-14.032 8.71c-2.411 7.505 4.344 15.806 1.622 23.205-2.047 5.564-8.559 8.013-14.4 8.794-7.391.978-15.571.159-21.143-4.791-3.646-3.229-5.731-7.808-8.506-11.811-4.677-6.755-12.205-12.213-20.415-11.849-13.759.6-21.492 15.715-32.681 23.743-10.242 7.346-26.109 7.877-34.44-1.577-6.231-7.081-7.869-18.641-16.541-22.326-6.1-2.593-13.191.076-18.672 3.79s-10.333 8.635-16.488 11.121A24.2 24.2 0 0 1 67.574 140.8" data-name="Path 499" transform="translate(-35.529 -.036)" style="fill:#f3e8e2"/>
        </g>
        <path id="prefix__Path_500" d="M285 36.215a3.79 3.79 0 0 1-1.933-2.115c-1.516-3.351-.606-7.24.516-10.727a8.248 8.248 0 0 1 2.07-3.828 1.152 1.152 0 0 1 .622-.326c.591-.053.932.644 1.069 1.228 1.266 5.307.887 11.371-2.342 15.768" class="prefix__cls-3" data-name="Path 500" transform="translate(-68.286 -4.676)"/>
        <path id="prefix__Path_501" d="M298.1 26.329a15.382 15.382 0 0 1 2.426-4.89 22.921 22.921 0 0 1 1.668-1.971c2.274-2.426 5.034-4.768 8.339-4.821a1.918 1.918 0 0 1 1.251.3 1.516 1.516 0 0 1 .478 1.433 3.852 3.852 0 0 1-.644 1.44 19.562 19.562 0 0 1-13.518 8.509" class="prefix__cls-3" data-name="Path 501" transform="translate(-72.117 -3.568)"/>
        <path id="prefix__Path_502" d="M272.08 57.993c4.185-3.753 9.036-8.149 14.51-9.559a8.218 8.218 0 0 1 3.123-.3 3.851 3.851 0 0 1 2.668 1.516 4.523 4.523 0 0 1-.174 4.6 10.492 10.492 0 0 1-4.5 4.185 19.551 19.551 0 0 1-5.959 1.782 12.751 12.751 0 0 1-2.941.2 15.056 15.056 0 0 1-6.724-2.426" class="prefix__cls-3" data-name="Path 502" transform="translate(-65.822 -11.662)"/>
        <path id="prefix__Path_503" d="M263.3 69.5a28.49 28.49 0 0 1-4.4-3.859 9.4 9.4 0 0 1-2.418-5.246 9.779 9.779 0 0 1 .834-4.511 4.814 4.814 0 0 1 1.236-1.933 2.047 2.047 0 0 1 2.153-.394 2.555 2.555 0 0 1 .834.758c1.91 2.35 2.183 5.61 2.206 8.642 0 2.07.3 4.549-.356 6.482" class="prefix__cls-3" data-name="Path 503" transform="translate(-62.044 -12.946)"/>
        <path id="prefix__Path_504" d="M259.91 88.711a20.074 20.074 0 0 1 9.415-8.036 5.8 5.8 0 0 1 4.177-.44 3.935 3.935 0 0 1 2.35 3.79 5.5 5.5 0 0 1-2.176 4.025 9.256 9.256 0 0 1-4.329 1.744c-3.116.5-6.679.47-9.438-1.054" class="prefix__cls-3" data-name="Path 504" transform="translate(-62.878 -19.38)"/>
        <path id="prefix__Path_505" d="M297.55 18.742q-4.6 4.094-9.362 8.013a62.922 62.922 0 0 0-9.461 8.468q.318-5.2.955-10.355a.227.227 0 0 0-.447-.061q-.675 5.458-1 10.954A83.655 83.655 0 0 0 263.3 60.5a54.58 54.58 0 0 1-2.9-11.212.227.227 0 0 0-.447.061 55.847 55.847 0 0 0 3.032 11.614.212.212 0 0 0 .091.106c-1.243 3.131-2.335 6.315-3.283 9.522-1.569 5.261-2.8 10.613-3.851 16-.053.28.394.341.447.061.819-4.215 1.774-8.43 2.9-12.607a19.758 19.758 0 0 0 5.951-1.675 28.367 28.367 0 0 0 6.141-2.684c.243-.159-.038-.523-.273-.356a29.982 29.982 0 0 1-6.065 2.623 20.257 20.257 0 0 1-5.648 1.63 109.8 109.8 0 0 1 8.779-22.591.182.182 0 0 0 .129 0 70.987 70.987 0 0 0 16.488-5.777c.258-.129.083-.546-.174-.417a70.714 70.714 0 0 1-16.117 5.716 75.733 75.733 0 0 1 9.567-13.858l.553-.614a.19.19 0 0 0 .083-.091 62.45 62.45 0 0 1 9.438-8.566.288.288 0 0 0 .1-.045l.258-.22.318-.235a.212.212 0 0 0 .076-.091c3.032-2.517 6.027-5.072 8.968-7.695.182-.175-.091-.554-.311-.357z" class="prefix__cls-4" data-name="Path 505" transform="translate(-61.916 -4.548)"/>
        <path id="prefix__Path_506" d="M228.937 79.32a9.468 9.468 0 0 0 2.229 5.686c-3.184 1.516-7.172 1.251-10.575.243a6.065 6.065 0 0 0 1.948-4.624 21.878 21.878 0 0 0-1.122-5.511c-.281-.925-.553-1.857-.826-2.782" class="prefix__cls-5" data-name="Path 506" transform="translate(-53.366 -17.524)"/>
        <path id="prefix__Path_507" d="M230.82 64.51a7.027 7.027 0 0 1 1.963 4.42c.083 1.251-.212 2.828.758 3.654a4.716 4.716 0 0 0 1.046.69.467.467 0 0 1 .114.758 1.828 1.828 0 0 1-.334.3 2.274 2.274 0 0 0-.508 1.637 13.73 13.73 0 0 1-.462 2.714.584.584 0 0 1-.167.334.66.66 0 0 1-.432.121c-2.191.091-4.609.114-6.3-1.281-.364-.3-.682-.644-1.061-.917s-.667-.379-.993-.584a3.942 3.942 0 0 1-1.577-1.979 2.138 2.138 0 0 1-.061-1.471 1.122 1.122 0 0 1 1.167-.758 2.805 2.805 0 0 1 .9.478.864.864 0 0 0 .963.061c.3-.243.235-.713.167-1.1a7 7 0 0 1 1.66-5.784" class="prefix__cls-6" data-name="Path 507" transform="translate(-53.878 -15.633)"/>
        <path id="prefix__Path_508" d="M219.706 69.609a2.206 2.206 0 0 0-1.516 2.024 2.972 2.972 0 0 0 1.122 2.35 3.45 3.45 0 0 1 .493.44c.5.629.2 1.516.409 2.32a1.88 1.88 0 0 0 2.82.917 1.994 1.994 0 0 0-.046-3.032 8.386 8.386 0 0 1-.8-.553.758.758 0 0 1-.258-.872.8.8 0 0 1 .849-.326c.318.053.606.212.925.273a1.744 1.744 0 0 0 1.615-.493 1.774 1.774 0 0 0 .425-1.645 1.606 1.606 0 0 1-.114-.561c0-.432.508-.667.917-.811l2.274-.826a7.058 7.058 0 0 0 2.631-1.4 2.418 2.418 0 0 0 .644-2.722 2.464 2.464 0 0 0-2.555-1.084" class="prefix__cls-7" data-name="Path 508" transform="translate(-52.785 -15.402)"/>
        <path id="prefix__Path_509" d="M222.068 86.745a13.221 13.221 0 0 0 7.96-.2l1.365.364-4.268 22.159-6.065-21.81z" class="prefix__cls-8" data-name="Path 509" transform="translate(-53.48 -20.962)"/>
        <path id="prefix__Path_510" d="M231.8 86.54c-1.061 4.094-1.372 8.21-2.274 12.342a47.713 47.713 0 0 0-1.092 7.081c-.068 1.137-.061 2.274-.053 3.411l.1 12.228a1.311 1.311 0 0 0 .076.515c.174.371.644.47 1.054.523a63.387 63.387 0 0 0 8.892.485.55.55 0 0 0 .667-.644c.167-4.018-.2-8.043-.19-12.061a66.188 66.188 0 0 1 2.354-17.32 2.41 2.41 0 0 0 .045-1.691 2.342 2.342 0 0 0-.7-.713 24.933 24.933 0 0 0-8.195-3.98" class="prefix__cls-7" data-name="Path 510" transform="translate(-55.249 -20.962)"/>
        <path id="prefix__Path_511" d="M219.3 86.93c-2.668 1.312-5.307 2.706-7.892 4.169a2.547 2.547 0 0 0-.66.47c-.591.66-.334 1.691-.068 2.54 2.813 8.961 2.593 18.535 3.085 27.92a.826.826 0 0 0 .121.485.879.879 0 0 0 .758.212l8.961-.493a.925.925 0 0 0 .379-.083.879.879 0 0 0 .3-.713 73.1 73.1 0 0 0-3.706-29.637 27.36 27.36 0 0 1-1.3-4.874" class="prefix__cls-7" data-name="Path 511" transform="translate(-50.898 -21.056)"/>
        <path id="prefix__Path_512" d="M244.458 92.846c.334-.265.758.212.91.614 1.6 4.26 1.789 8.9 2.32 13.426a86.427 86.427 0 0 0 2.434 12.592 25.2 25.2 0 0 1 1.084 5.17 46.243 46.243 0 0 1-5.223.212.573.573 0 0 1-.69-.561 100 100 0 0 1-2.744-16.193c-.44-5.049-.44-10.386 1.888-14.866" class="prefix__cls-7" data-name="Path 512" transform="translate(-58.623 -22.469)"/>
        <path id="prefix__Path_513" d="M227.705 118a3.586 3.586 0 0 0 2.1-.872l3.169-2.274 1-.705c.159.955-.66 1.751-1.152 2.577-.1.174-.182.425-.038.561a.432.432 0 0 0 .25.1 4.169 4.169 0 0 0 2.835-.91 7.4 7.4 0 0 1 2.684-1.395l-1.3 1.683a.341.341 0 0 0-.106.243c.045.3.758.182.69.493a3.579 3.579 0 0 1-.705 1.819 3.4 3.4 0 0 1-1.395.758 23.879 23.879 0 0 1-8.544 1.349" class="prefix__cls-6" data-name="Path 513" transform="translate(-54.963 -27.641)"/>
        <path id="prefix__Path_514" d="M210.475 93.549a17.155 17.155 0 0 1 1.888 8.93c-.068 3.085-.6 6.133-.841 9.2a.546.546 0 0 0 .076.394.508.508 0 0 0 .387.136l6.413.47a14.76 14.76 0 0 0 5.481-.288c.235 1.258.462 2.517.69 3.79a1 1 0 0 1 0 .538c-.114.356-.538.485-.9.561-5.663 1.167-11.629 1.4-17.148-.288a1.8 1.8 0 0 1-.713-.356 1.607 1.607 0 0 1-.364-.705 13.493 13.493 0 0 1-.258-4.488q.159-3.123.334-6.247a29.8 29.8 0 0 1 .523-4.791 29.567 29.567 0 0 1 2.092-5.678 3.108 3.108 0 0 1 .948-1.357 1.039 1.039 0 0 1 1.471.243" class="prefix__cls-7" data-name="Path 514" transform="translate(-49.619 -22.566)"/>
        <path id="prefix__Path_515" d="M214.85 60.883l3.108 8.142 11.273-6.815-2.009-5.83z" class="prefix__cls-9" data-name="Path 515" transform="translate(-51.978 -13.666)"/>
        <path id="prefix__Path_516" d="M217.232 56.891L206.71 63.4l12.09-1.9 12.145-6.55z" data-name="Path 516" transform="translate(-50.008 -13.32)" style="fill:#011c17"/>
        <path id="prefix__Rectangle_108" d="M0 0H0.288V13.6H0z" class="prefix__cls-9" data-name="Rectangle 108" transform="rotate(-1.01 2912.002 -8886.104)"/>
        <path id="prefix__Path_517" d="M207.519 83.32l-.629 1.926 1.8-.091z" class="prefix__cls-9" data-name="Path 517" transform="translate(-50.052 -20.183)"/>
        <path id="prefix__Path_518" d="M224.716 149.659c-.106-10.469-8.847-29.361-16.579-40.057a3.79 3.79 0 0 1-5.5-3.9l-6.345-4.715a1.516 1.516 0 0 0-.569-.3 1.888 1.888 0 0 0-.887.121 3.434 3.434 0 0 1-3.919-4.844l-5.883-4.442a2.047 2.047 0 0 0-.948-.478 3.32 3.32 0 0 0-1.41.394 2.744 2.744 0 0 1-3.434-1.986 5.511 5.511 0 0 0-.284-1.452 2.562 2.562 0 0 0-.652-.758l-5.845-5.307c-1.114-.963-2.411-2.032-3.927-1.933a1.706 1.706 0 0 0-1.167.523c-.538.652-.227 1.63.106 2.411l4.427 10.321a1.387 1.387 0 0 0 .3.5 1.857 1.857 0 0 0 1.114.349 4.071 4.071 0 0 1 3.237 4.784 2.494 2.494 0 0 0-.152 1.145 1.857 1.857 0 0 0 .364.682l7.907 10.841a2.275 2.275 0 0 0 .7.705 2.979 2.979 0 0 0 1.865-.068 4.367 4.367 0 0 1 4.806 6 2.426 2.426 0 0 0-.334 1.16 1.926 1.926 0 0 0 .425.864c8.218 11.144 19.71 23.622 32.143 29.649" class="prefix__cls-11" data-name="Path 518" transform="translate(-40.42 -19.378)"/>
        <path id="prefix__Path_519" d="M168.924 81.365c7.907 8.923 15.609 18.111 23.948 26.647 7.861 8.051 16.094 15.677 22.379 25.1 3.616 5.413 6.717 11.136 9.81 16.86a.243.243 0 0 1-.425.227c-2.737-5.049-5.473-10.113-8.574-14.957a98.775 98.775 0 0 0-10.613-13.752c-3.79-4.079-7.763-7.93-11.659-11.879-4.01-4.056-7.808-8.293-11.584-12.554L168.56 81.706c-.2-.235.144-.576.356-.341z" class="prefix__cls-4" data-name="Path 519" transform="translate(-40.764 -19.691)"/>
        <path id="prefix__Path_520" d="M218.01 165.991c3.79 2.494 10.818 2.161 15.632-.144a25.609 25.609 0 0 0 5.147-3.548c16.488-13.646 30.255-31.574 35.206-52.414a29.861 29.861 0 0 0 .993-9.1 5.511 5.511 0 0 0-1.342-3.639c-1.221-1.183-3.146-1.205-4.821-.91-3.609.644-6.9 2.411-10.067 4.253a185.974 185.974 0 0 0-22.477 15.374c-2.7 2.145-5.307 4.374-7.816 6.777a86.744 86.744 0 0 0-7.657 8.513 41.522 41.522 0 0 0-4.844 7.316c-4.359 8.794-4.018 19.847 2.047 27.557" class="prefix__cls-12" data-name="Path 520" transform="translate(-51.536 -23.27)"/>
        <path id="prefix__Path_521" d="M219.5 169.471c5.049-8.157 10.12-16.337 16.064-23.895s13.062-14.51 19.771-21.56l11.493-12.038c.2-.212.546.1.341.311l-20.158 21.135c-3.32 3.495-6.656 6.974-9.711 10.712s-5.974 7.808-8.71 11.894c-3.032 4.48-5.845 9.1-8.68 13.646-.161.25-.571.045-.41-.205z" class="prefix__cls-4" data-name="Path 521" transform="translate(-53.093 -27.098)"/>
        <path id="prefix__Path_522" d="M230.814 166.862c10.295.121 19.566-5.246 27.359-11.508.227-.19.478.2.243.387-7.846 6.307-17.216 11.7-27.579 11.584a.231.231 0 0 1 0-.462z" class="prefix__cls-4" data-name="Path 522" transform="translate(-55.789 -37.597)"/>
        <path id="prefix__Path_523" d="M244.609 145.892a53.612 53.612 0 0 0 28.663-18.5c.182-.227.523.083.341.311a54.029 54.029 0 0 1-28.868 18.626c-.288.079-.424-.361-.136-.437z" class="prefix__cls-4" data-name="Path 523" transform="translate(-59.138 -30.826)"/>
        <path id="prefix__Path_524" d="M254.087 134.7a53.869 53.869 0 0 1 11.129-19.93c.2-.22.531.091.341.311a53.187 53.187 0 0 0-11.015 19.71c-.091.281-.538.19-.455-.1z" class="prefix__cls-4" data-name="Path 524" transform="translate(-61.467 -27.772)"/>
        <path id="prefix__Path_525" d="M238 152.288c.819-8.619 5.307-16.223 10.136-23.213.167-.243.576-.038.409.2-4.791 6.959-9.279 14.517-10.1 23.107.002.3-.476.202-.445-.094z" class="prefix__cls-4" data-name="Path 525" transform="translate(-57.577 -31.225)"/>
        <path id="prefix__Path_526" d="M226.752 169.845c-1.13 0-.986-2.638-1.054-3.4a33.914 33.914 0 0 1 0-5.951 34.3 34.3 0 0 1 3.093-11.53c.121-.273.531-.061.409.2a33.758 33.758 0 0 0-3.176 14.9c0 .561.106 5.345.713 5.352.288 0 .311.47 0 .462z" class="prefix__cls-4" data-name="Path 526" transform="translate(-54.57 -36.031)"/>
        <path id="prefix__Path_527" d="M110.284 110.977a42.006 42.006 0 0 0 12.6-38.435 24.631 24.631 0 0 1-8.2 5.307 24.759 24.759 0 0 1 .364-9.59 11.629 11.629 0 0 0 .591-4.147 9.161 9.161 0 0 0-2.191-4.207 165.591 165.591 0 0 0-13-14.843c-.682-.7-1.577-1.44-2.509-1.175s-1.327 1.516-1.577 2.577a14.51 14.51 0 0 1-4.26 7.149c-4.458-4.549-3.032-12.364-6.459-17.7A21.226 21.226 0 0 0 81.09 31.3q-9.362-7.679-19.278-14.692c-1.516-1.069-3.267-2.183-5.1-1.85a188.007 188.007 0 0 1 6.345 47.616 8.7 8.7 0 0 0 .584 3.79 8.392 8.392 0 0 0 2.555 2.691L78.75 78.71l-8.627-1.167a1.448 1.448 0 0 0-1.046.129c-.44.334-.349 1-.212 1.516 2.691 10.416 6.065 21.787 15.071 27.64 7.581 4.912 17.277 4.639 26.3 4.2" class="prefix__cls-3" data-name="Path 527" transform="translate(-13.722 -3.583)"/>
        <path id="prefix__Path_528" d="M113.883 117.68c-4.5-13.918-12.584-26.374-19.93-38.905L71.483 40.4c-.25-.432.447-.758.7-.334L94.65 78.441c7.346 12.539 15.435 25.017 19.938 38.905.152.462-.546.8-.705.334z" class="prefix__cls-4" data-name="Path 528" transform="translate(-17.282 -9.672)"/>
        <g id="prefix__Group_14" class="prefix__cls-13" data-name="Group 14" transform="translate(9.247 94.057)">
            <path id="prefix__Path_529" d="M85.431 177.145c-2.8-10.09-16.094-26.1-26.313-34.455a3.79 3.79 0 0 1-6.307-2.358l-7.346-2.926a1.7 1.7 0 0 0-.629-.152 2.063 2.063 0 0 0-.836.346 3.427 3.427 0 0 1-5.026-3.677l-6.823-2.775a2.115 2.115 0 0 0-1.039-.227 3.381 3.381 0 0 0-1.266.758 2.744 2.744 0 0 1-3.79-1.031 5.716 5.716 0 0 0-.644-1.334 2.8 2.8 0 0 0-.826-.561l-7-3.593c-1.334-.682-2.858-1.387-4.276-.887a1.63 1.63 0 0 0-.993.8c-.356.758.2 1.63.72 2.274l6.929 8.847a1.517 1.517 0 0 0 .409.409 1.933 1.933 0 0 0 1.175.053 4.071 4.071 0 0 1 4.351 3.79 2.661 2.661 0 0 0 .144 1.152 1.9 1.9 0 0 0 .538.561L37 150.612a2.093 2.093 0 0 0 .857.5 2.957 2.957 0 0 0 1.781-.538 4.367 4.367 0 0 1 6.194 4.549 2.327 2.327 0 0 0 0 1.205 1.85 1.85 0 0 0 .629.758c10.8 8.665 25.085 17.785 38.662 20.408" class="prefix__cls-11" data-name="Path 529" transform="translate(-12.201 -124.107)"/>
            <path id="prefix__Path_530" d="M13.876 125.6c9.931 6.6 19.71 13.494 29.982 19.6 9.666 5.761 19.589 11.023 28.049 18.512 4.874 4.306 9.347 9.044 13.812 13.774a.244.244 0 0 1-.356.334c-3.942-4.177-7.892-8.339-12.129-12.258a99.242 99.242 0 0 0-13.812-10.56c-4.685-2.972-9.544-5.67-14.328-8.483-4.912-2.888-9.666-6.012-14.4-9.158L13.6 125.994c-.258-.174 0-.584.258-.417z" class="prefix__cls-4" data-name="Path 530" transform="translate(-12.513 -124.453)"/>
        </g>
        <path id="prefix__Path_531" d="M136.1 169.248l1.706 5.019a8.71 8.71 0 0 1 .212 6.823l-1.683 5.91a9.029 9.029 0 0 0 2.775-2.168c1.516-1.516 2.979-3.032 4.465-4.549.72-.758 1.44-1.463 2.107-2.274a21.408 21.408 0 0 1-6-11.371" class="prefix__cls-6" data-name="Path 531" transform="translate(-32.927 -40.339)"/>
        <path id="prefix__Path_532" d="M130.009 169.77c-.152 1.516-.349 3.093-.591 4.624a7.369 7.369 0 0 1-1.334 3.669c-.3.356-.569.606-.917 1.046-.25.311-.932.675-1.175.993-.417.561-.531.857-1.152 1.19a6.467 6.467 0 0 0-1.926 1.516c-.2.25-.371.69-.091.857a.606.606 0 0 0 .553-.068 31.006 31.006 0 0 1 10.954-2.744 1.448 1.448 0 0 0 .841-.227 1.061 1.061 0 0 0 .045-1.4 10.682 10.682 0 0 0-1.1-1.092c-1.137-1.243-.978-3.154-.758-4.821.19-1.334.371-2.668.561-4.01" class="prefix__cls-6" data-name="Path 532" transform="translate(-29.679 -40.983)"/>
        <path id="prefix__Path_533" d="M126.27 95q-.66 1.66-1.3 3.32a32.234 32.234 0 0 0-1.516 4.609c-1.349 6.065.963 12.311 2.547 18.346 2.729 10.424 3.29 21.28 3.836 32.044l3.146-.614a1.342 1.342 0 0 0 .758-.349 1.3 1.3 0 0 0 .235-.8l1.137-15.761c.2-2.813.409-5.625.44-8.445 0-2.631-.1-5.261-.091-7.892 0-3.154 1.872-19.111 2.274-22.25" class="prefix__cls-14" data-name="Path 533" transform="translate(-29.769 -23.009)"/>
        <path id="prefix__Path_534" d="M144.877 96.26c2.509 5.981 1.516 12.887-.857 18.952s-6.065 11.462-9.029 17.224a8.953 8.953 0 0 0-1.205 3.48c-.091 1.327 1.092 3.29 1.516 4.549 1.221 3.427 1.615 6.224 2.6 9.719a1.721 1.721 0 0 1 .076.993 1.668 1.668 0 0 1-.705.758l-2.926 2.047c-1.736-3.427-2.934-6.861-4.549-10.333a48.064 48.064 0 0 1-2.873-7.937c-.652-3.237.2-4.4.849-7.649a87.655 87.655 0 0 1 4.549-16.5 27.444 27.444 0 0 0 1.2-3.131 23.287 23.287 0 0 0 .675-5.663c.068-1.971.136-3.95.212-5.921" class="prefix__cls-15" data-name="Path 534" transform="translate(-30.651 -23.313)"/>
        <path id="prefix__Path_535" d="M133.46 56.671a2.744 2.744 0 0 1-1.91 3.988 3.464 3.464 0 0 0 1.706 2.092 6.535 6.535 0 0 0 2.646.758 5.64 5.64 0 0 0 1.516 0 5.413 5.413 0 0 0 3.571-3.207 12.955 12.955 0 0 1-1.4-.629 1.334 1.334 0 0 1-.47-.349 1.365 1.365 0 0 1-.22-.644 7.581 7.581 0 0 1 1.334-5.36" class="prefix__cls-5" data-name="Path 535" transform="translate(-31.826 -12.926)"/>
        <path id="prefix__Path_536" d="M131.947 41.064a5.682 5.682 0 0 0-1.517 3.436 14.815 14.815 0 0 0-.265 6.178 12.724 12.724 0 0 0 .758 2.07c.349.826.841 1.736 1.713 1.918a2.676 2.676 0 0 0 1.653-.371 16.034 16.034 0 0 0 3.442-2.32 8.338 8.338 0 0 1 1.061-.872 12.5 12.5 0 0 0 1.3-.758 2.274 2.274 0 0 0 .811-1.615c0-.44-.212-.986-.652-.963-.3 0-.584.334-.872.22a5.663 5.663 0 0 0 .569-4 5.731 5.731 0 0 0-2.274-3.351 2.949 2.949 0 0 0-2.828-.485" class="prefix__cls-6" data-name="Path 536" transform="translate(-31.434 -9.699)"/>
        <path id="prefix__Path_537" d="M133.961 40.537c-.038 1.516 1.152 2.4 2.221 3.525s2.229 2.365 2.35 3.912a1.433 1.433 0 0 1 .97-.364c.652.083.864.993.576 1.592a8.512 8.512 0 0 1-1.281 1.516 3.442 3.442 0 0 0-.758 1.941 1.3 1.3 0 0 0 .03.5 1.205 1.205 0 0 0 .895.69 3.79 3.79 0 0 0 2.471-.425 11.152 11.152 0 0 1 2.358-.978c.417-.091.841-.106 1.243-.212a2.7 2.7 0 0 0 1.872-1.9 3.4 3.4 0 0 0-.091-1.7 4.965 4.965 0 0 0-.978-1.827 10.2 10.2 0 0 1-.7-.819 7.635 7.635 0 0 1-.758-2.941 6.451 6.451 0 0 0-3.176-4.26 8.887 8.887 0 0 0-5.049-.758 12.462 12.462 0 0 0-1.963.47 14.275 14.275 0 0 0-1.448.5 5.557 5.557 0 0 0-3.586 4.6c-.045.917.2 1.827.2 2.744a15.443 15.443 0 0 1-.356 2.494 4.821 4.821 0 0 0 .091 2.5 2.138 2.138 0 0 0 1.872 1.463 9.021 9.021 0 0 1-.91-5.625c.114-.478.273-.94.364-1.418a7.446 7.446 0 0 1 .462-1.425c.569-1.569 2.547-2.274 3.1-3.859" class="prefix__cls-7" data-name="Path 537" transform="translate(-31.182 -9.217)"/>
        <path id="prefix__Path_538" d="M154.252 70.37a165.127 165.127 0 0 1 2.274 18.414 8.339 8.339 0 0 1-.053 2.342 3.032 3.032 0 0 1-1.205 1.948 3.726 3.726 0 0 1-3.624-.22.705.705 0 0 1-.371-.811 9.983 9.983 0 0 1 1.069-2.077 3.027 3.027 0 0 0 .417-2.752c-.3-.591-.91-1-1.084-1.63a2.677 2.677 0 0 1 0-.887c.106-1.349.212-2.7.326-4.048" class="prefix__cls-8" data-name="Path 538" transform="translate(-36.592 -17.05)"/>
        <path id="prefix__Path_539" d="M121.327 70.75a21.485 21.485 0 0 0-.917 3.98c-.713 4.26-1.418 8.642-.273 12.842a4.548 4.548 0 0 0 .925 1.933 2.691 2.691 0 0 0 2.138.895 2.494 2.494 0 0 0 1.994-1.448 3.791 3.791 0 0 1-2.4-1.076c-1.3-1.372-.879-3.389-.091-5.011s1.926-3.222 1.865-4.981" class="prefix__cls-8" data-name="Path 539" transform="translate(-28.919 -17.142)"/>
        <path id="prefix__Path_540" d="M127.26 67.06a8.164 8.164 0 0 0 .667-2.684 15.464 15.464 0 0 0-.159-1.675c-.265-2.8.948-5.5 2.138-8.036a.281.281 0 0 1 .106-.152c.212-.114.318.258.265.493a17.637 17.637 0 0 0-.432 2.813.841.841 0 0 0 .045.455c.144.265.5.311.8.4s.614.371.47.637c.637.1 1.38.28 1.607.887a1.85 1.85 0 0 1-.083 1.19 5.626 5.626 0 0 1-.925 2.017 8.988 8.988 0 0 0-.826.955 3.381 3.381 0 0 0-.364 1.372c-.129 1.114-.22 2.274-.265 3.366" class="prefix__cls-5" data-name="Path 540" transform="translate(-30.788 -13.209)"/>
        <path id="prefix__Path_541" d="M126 76.46a24.122 24.122 0 0 1 .508 13.918 1.236 1.236 0 0 0-.053.682c.144.447.7.576 1.16.637l5.526.675a8.976 8.976 0 0 0 1.963.083c1.122-.114 2.168-.667 3.29-.758 2.229-.235 4.655 1.2 6.611.1 1.456-.819 1.918-2.729 1.751-4.389s-.826-3.237-1-4.9c-.311-2.866.705-6.148-1.1-8.4" class="prefix__cls-8" data-name="Path 541" transform="translate(-30.484 -17.955)"/>
        <path id="prefix__Path_542" d="M137.659 92.706a5.254 5.254 0 0 1-.705-3.95 17.488 17.488 0 0 0 .334-4.4c-.159-1.471-.478-2.911-.5-4.4a17.261 17.261 0 0 1 .553-4.617.1.1 0 0 0-.19-.045 17.489 17.489 0 0 0-.561 4.48c0 1.615.371 3.169.523 4.768a25.651 25.651 0 0 1-.409 4.738 4.958 4.958 0 0 0 .758 3.518c.076.1.243 0 .167-.1z" data-name="Path 542" transform="translate(-33.045 -18.228)" style="fill:#222221"/>
        <path id="prefix__Path_543" d="M123.232 91.019a4.828 4.828 0 0 1-1.205-3.79 13.115 13.115 0 0 1 1.023-3.79c.69-1.827 1.387-3.662 2.085-5.489a3.237 3.237 0 0 0 1.66.531 1.782 1.782 0 0 1 1.1.22 1.357 1.357 0 0 1 .3 1.114q-.076 2.517-.356 5.019a12.221 12.221 0 0 1-1.342 4.9 3.608 3.608 0 0 1-1.38 1.4 1.865 1.865 0 0 1-1.888-.068" class="prefix__cls-6" data-name="Path 543" transform="translate(-29.52 -18.884)"/>
        <path id="prefix__Path_544" d="M122.762 61.91l10.909.3a.917.917 0 0 1 .887.887l.591 18.088a.91.91 0 0 1-.948.948l-11.485-.44a.925.925 0 0 1-.887-.917V62.82a.917.917 0 0 1 .932-.91z" class="prefix__cls-17" data-name="Path 544" transform="translate(-29.475 -15.004)"/>
        <path id="prefix__Path_545" d="M150.477 61.91l-10.9.3a.917.917 0 0 0-.895.887l-.592 18.083a.917.917 0 0 0 .948.948l11.5-.44a.917.917 0 0 0 .879-.917V62.82a.91.91 0 0 0-.94-.91z" class="prefix__cls-17" data-name="Path 545" transform="translate(-33.408 -15.004)"/>
        <rect id="prefix__Rectangle_109" width="2.411" height="19.991" class="prefix__cls-7" data-name="Rectangle 109" rx=".34" transform="translate(104.105 47.172)"/>
        <path id="prefix__Path_546" d="M147.973 92.67c-3.624-2.418-5.595-6.7-7.657-10.537-.5-.932-.978-1.88-1.562-2.759-1.342-2.032-3.3-3.745-3.934-6.065a.819.819 0 0 1 .546.136c-.076-.356-.159-.713-.235-1.069a3.146 3.146 0 0 0 .849.334l-.341-1.516a2.434 2.434 0 0 1 1.349 1.137 4.048 4.048 0 0 1-.447-2.631 19.006 19.006 0 0 1 3.4 4.624c.212.4.622.895 1.023.675a.894.894 0 0 0 .341-.531 6.33 6.33 0 0 1 1.183-1.948 14.934 14.934 0 0 1-.488 4.708 3.267 3.267 0 0 0-.182 1.281 3.078 3.078 0 0 0 1.175 1.645 30.535 30.535 0 0 1 6.065 7.111 6.473 6.473 0 0 1 0 2.926c-.304 2.221-.714 2.744-1.085 2.479z" class="prefix__cls-6" data-name="Path 546" transform="translate(-32.617 -16.888)"/>
        <path id="prefix__Path_547" d="M309.18 153.262l-1.258 6.83-15.1-2.767.076-.44 1.183-6.406 5.034.925 5.034.925z" class="prefix__cls-18" data-name="Path 547" transform="translate(-70.839 -36.43)"/>
        <path id="prefix__Path_548" d="M307.626 162.277l-.8 4.336a7.679 7.679 0 0 1-15.23-1.38 7.37 7.37 0 0 1 .129-1.4l.8-4.321z" class="prefix__cls-19" data-name="Path 548" transform="translate(-70.544 -38.614)"/>
        <path id="prefix__Path_549" d="M324.865 33.94l1.622 7.505-5.807-1.076z" class="prefix__cls-17" data-name="Path 549" transform="translate(-77.579 -8.237)"/>
        <path id="prefix__Path_550" d="M324.348 43.5l2.6 12.016-5.041-.917-5.034-.932-5.034-.917 6.7-10.325z" class="prefix__cls-20" data-name="Path 550" transform="translate(-75.441 -10.289)"/>
        <path id="prefix__Path_551" d="M312.674 56.957l-13.16 71.6-5.034-.925 13.16-71.592z" class="prefix__cls-21" data-name="Path 551" transform="translate(-71.241 -13.584)"/>
        <path id="prefix__Path_552" d="M314.28 57.25l5.034.932-13.16 71.594-5.034-.925z" class="prefix__cls-18" data-name="Path 552" transform="translate(-72.847 -13.876)"/>
        <path id="prefix__Path_553" d="M325.962 59.4l-13.168 71.609-5.034-.932 13.16-71.597z" class="prefix__cls-19" data-name="Path 553" transform="translate(-74.454 -14.174)"/>
        <path id="prefix__Path_554" d="M296.614 155.61l1.683 4.109-9.067 3.73-.106-.258-1.584-3.851 3.025-1.243 3.025-1.243z" class="prefix__cls-18" data-name="Path 554" transform="translate(-69.562 -37.671)"/>
        <path id="prefix__Path_555" d="M298.837 161l1.076 2.6a4.9 4.9 0 0 1-8.657 4.549 5.647 5.647 0 0 1-.417-.8l-1.069-2.562z" class="prefix__cls-19" data-name="Path 555" transform="translate(-70.102 -38.975)"/>
        <path id="prefix__Path_556" d="M264.263 86.99l3.464 3.472-3.487 1.433z" class="prefix__cls-17" data-name="Path 556" transform="translate(-63.926 -21.071)"/>
        <path id="prefix__Path_557" d="M267.717 91.57l5.557 5.549-3.024 1.251-3.025 1.243-3.025 1.243.03-7.856z" class="prefix__cls-20" data-name="Path 557" transform="translate(-63.916 -22.179)"/>
        <path id="prefix__Rectangle_110" d="M0 0H3.267V46.494H0z" class="prefix__cls-21" data-name="Rectangle 110" transform="rotate(-22.37 299.131 -467.111)"/>
        <path id="prefix__Rectangle_111" d="M0 0H3.267V46.494H0z" class="prefix__cls-18" data-name="Rectangle 111" transform="rotate(-22.33 297.795 -476.368)"/>
        <path id="prefix__Rectangle_112" d="M0 0H3.267V46.494H0z" class="prefix__cls-19" data-name="Rectangle 112" transform="rotate(-22.37 295.816 -483.647)"/>
        <path id="prefix__Path_558" d="M362.531 132.822a32.7 32.7 0 0 1-9.81-29.914 19.218 19.218 0 0 0 6.391 4.124 19.212 19.212 0 0 0-.288-7.467 9.1 9.1 0 0 1-.455-3.229 7.21 7.21 0 0 1 1.7-3.275A129.866 129.866 0 0 1 370.233 81.5c.531-.538 1.228-1.122 1.956-.91s1.031 1.2 1.236 2a11.2 11.2 0 0 0 3.313 5.572c3.472-3.54 2.335-9.635 5.034-13.79a16.336 16.336 0 0 1 3.528-3.592q7.3-6 15.018-11.447c1.183-.834 2.547-1.706 3.972-1.448a146.582 146.582 0 0 0-4.943 37.086 6.625 6.625 0 0 1-.455 2.964 6.557 6.557 0 0 1-1.986 2.1l-9.779 7.649 6.724-.895a1.1 1.1 0 0 1 .811.1c.341.258.273.758.167 1.19-2.1 8.112-4.715 16.966-11.743 21.522-5.9 3.828-13.448 3.616-20.468 3.275" class="prefix__cls-3" data-name="Path 558" transform="translate(-85.194 -14.019)"/>
        <path id="prefix__Path_559" d="M365.62 138.038c3.5-10.833 9.8-20.529 15.518-30.324l17.5-29.846c.19-.334-.349-.591-.546-.258l-17.5 29.884c-5.724 9.794-12.016 19.453-15.518 30.263-.121.364.425.629.546.258z" class="prefix__cls-4" data-name="Path 559" transform="translate(-88.314 -18.764)"/>
        <g id="prefix__Group_15" data-name="Group 15" transform="translate(254.073 35.799)" style="opacity:.52">
            <path id="prefix__Path_560" d="M349.266 135.554c-4.465-.7-9.446-5.7-11.447-10.613a25.72 25.72 0 0 1-1.41-6.065c-2.949-21.226-1.046-43.719 9.355-62.444a29.747 29.747 0 0 1 5.4-7.391 5.534 5.534 0 0 1 3.442-1.781c1.706-.053 3.146 1.228 4.185 2.578 2.229 2.9 3.464 6.436 4.549 9.931a186.9 186.9 0 0 1 6.235 26.531c.538 3.411.985 6.823 1.2 10.28a87.4 87.4 0 0 1-.083 11.447 41.7 41.7 0 0 1-1.342 8.657c-2.706 9.431-10.416 17.353-20.089 18.952" class="prefix__cls-12" data-name="Path 560" transform="translate(-335.153 -47.258)"/>
            <path id="prefix__Path_561" d="M354.006 139.645c1.766-9.431 3.533-18.892 4.245-28.474.72-9.711.144-19.521-.061-29.255l-.341-16.678a.235.235 0 0 0-.462 0q.3 14.616.606 29.224c.1 4.821.212 9.635-.053 14.457s-.857 9.794-1.592 14.654c-.8 5.307-1.8 10.613-2.79 15.92-.053.288.387.417.447.121z" class="prefix__cls-4" data-name="Path 561" transform="translate(-339.604 -51.561)"/>
            <path id="prefix__Path_562" d="M353.3 134.351c-7.687-6.823-10.924-17.057-12.44-26.935-.045-.3-.493-.167-.447.121 1.516 9.954 4.821 20.249 12.562 27.155.22.2.546-.129.326-.326z" class="prefix__cls-4" data-name="Path 562" transform="translate(-336.423 -61.77)"/>
            <path id="prefix__Path_563" d="M356.9 109.3a53.612 53.612 0 0 1-8.688-32.992.231.231 0 0 0-.462 0 53.991 53.991 0 0 0 8.756 33.219c.159.25.561 0 .394-.227z" class="prefix__cls-4" data-name="Path 563" transform="translate(-338.172 -54.232)"/>
            <path id="prefix__Path_564" d="M360 98.447a53.968 53.968 0 0 0 5.2-22.22.227.227 0 1 0-.455 0 53.346 53.346 0 0 1-5.17 21.985c-.121.265.273.5.4.235z" class="prefix__cls-4" data-name="Path 564" transform="translate(-341.055 -54.211)"/>
            <path id="prefix__Path_565" d="M359.32 122.506c5.216-6.921 7.02-15.571 8.18-23.978.038-.288-.409-.417-.447-.121-1.152 8.339-2.934 16.974-8.127 23.865-.174.234.22.469.394.234z" class="prefix__cls-4" data-name="Path 565" transform="translate(-340.893 -59.591)"/>
            <path id="prefix__Path_566" d="M356.1 144.55c.849.758 2.509-1.281 3.07-1.8a33.356 33.356 0 0 0 4.018-4.389 34.381 34.381 0 0 0 5.512-10.611c.091-.28-.349-.4-.44-.121a33.765 33.765 0 0 1-7.71 13.13c-.387.4-3.677 3.874-4.132 3.472-.227-.19-.553.129-.326.326z" class="prefix__cls-4" data-name="Path 566" transform="translate(-340.2 -66.662)"/>
        </g>
        <g id="prefix__Group_16" class="prefix__cls-13" data-name="Group 16" transform="translate(280.136 94.057)">
            <path id="prefix__Path_567" d="M369.58 177.145c2.8-10.09 16.094-26.1 26.313-34.455a3.79 3.79 0 0 0 6.307-2.358l7.346-2.926a1.706 1.706 0 0 1 .637-.152 2.078 2.078 0 0 1 .826.349 3.427 3.427 0 0 0 5.026-3.677l6.823-2.775a2.115 2.115 0 0 1 1.039-.227 3.321 3.321 0 0 1 1.266.758 2.744 2.744 0 0 0 3.828-1.031 5.718 5.718 0 0 1 .644-1.334 2.8 2.8 0 0 1 .826-.561l7-3.593c1.334-.682 2.858-1.387 4.276-.887a1.63 1.63 0 0 1 .993.8c.356.758-.2 1.63-.72 2.274l-6.921 8.854a1.646 1.646 0 0 1-.417.409 1.926 1.926 0 0 1-1.175.053 4.071 4.071 0 0 0-4.351 3.79 2.547 2.547 0 0 1-.144 1.152 1.971 1.971 0 0 1-.531.561l-10.424 8.445a2.093 2.093 0 0 1-.857.5 2.957 2.957 0 0 1-1.812-.561 4.367 4.367 0 0 0-6.194 4.548 2.327 2.327 0 0 1 0 1.205 1.85 1.85 0 0 1-.629.758c-10.8 8.665-25.085 17.785-38.663 20.408" class="prefix__cls-11" data-name="Path 567" transform="translate(-369.544 -124.107)"/>
            <path id="prefix__Path_568" d="M441.443 125.6c-9.931 6.6-19.71 13.494-29.982 19.6-9.666 5.761-19.589 11.023-28.049 18.512-4.874 4.306-9.347 9.044-13.812 13.774a.244.244 0 0 0 .356.334c3.942-4.177 7.892-8.339 12.129-12.258a98.727 98.727 0 0 1 13.8-10.56c4.685-2.972 9.544-5.67 14.328-8.483 4.912-2.888 9.666-6.012 14.4-9.158l17.095-11.371c.258-.174 0-.584-.258-.417z" class="prefix__cls-4" data-name="Path 568" transform="translate(-369.533 -124.453)"/>
        </g>
        <path id="prefix__Path_569" d="M428.744 110.544a3.791 3.791 0 0 1-1.016-2.684c-.136-3.662 2.123-6.944 4.45-9.772a8.293 8.293 0 0 1 3.336-2.79 1.175 1.175 0 0 1 .7-.076c.569.167.629.948.538 1.516-.758 5.39-3.389 10.909-8.013 13.782" class="prefix__cls-3" data-name="Path 569" transform="translate(-103.474 -23.057)"/>
        <path id="prefix__Path_570" d="M444.717 107.059a15.519 15.519 0 0 1 4.056-3.646c.758-.447 1.516-.841 2.274-1.213 2.987-1.425 6.444-2.57 9.529-1.395a1.933 1.933 0 0 1 1.054.758 1.516 1.516 0 0 1-.091 1.516 3.791 3.791 0 0 1-1.137 1.1c-4.329 3.032-10.613 4.367-15.692 2.9" class="prefix__cls-3" data-name="Path 570" transform="translate(-107.583 -24.295)"/>
        <path id="prefix__Path_571" d="M409 127.305c5.307-1.941 11.432-4.23 17.011-3.518a8.172 8.172 0 0 1 3.032.887 3.79 3.79 0 0 1 1.918 2.4 4.523 4.523 0 0 1-1.865 4.207 10.522 10.522 0 0 1-5.731 2.221 19.86 19.86 0 0 1-6.194-.546 12.889 12.889 0 0 1-2.8-.91 15.162 15.162 0 0 1-5.352-4.738" class="prefix__cls-3" data-name="Path 571" transform="translate(-98.945 -29.94)"/>
        <path id="prefix__Path_572" d="M396.873 133.327a27.94 27.94 0 0 1-2.661-5.216 9.461 9.461 0 0 1-.311-5.769 9.855 9.855 0 0 1 2.449-3.881 4.86 4.86 0 0 1 1.865-1.334 2.062 2.062 0 0 1 2.145.425 2.637 2.637 0 0 1 .5.986c.9 2.9-.045 6.019-1.145 8.847-.758 1.933-1.387 4.314-2.729 5.9" class="prefix__cls-3" data-name="Path 572" transform="translate(-95.217 -28.329)"/>
        <path id="prefix__Path_573" d="M386.5 150.87a20.067 20.067 0 0 1 11.75-3.98 5.883 5.883 0 0 1 4.048 1.145 3.927 3.927 0 0 1 .8 4.351 5.519 5.519 0 0 1-3.51 2.941 9.37 9.37 0 0 1-4.67 0c-3.078-.7-6.383-2.039-8.384-4.48" class="prefix__cls-3" data-name="Path 573" transform="translate(-93.502 -35.561)"/>
        <path id="prefix__Path_574" d="M440.359 103.027q-5.8 2.1-11.659 3.98a62.784 62.784 0 0 0-11.925 4.367q2.229-4.7 4.723-9.264a.227.227 0 0 0-.394-.22q-2.646 4.821-4.981 9.8a83.776 83.776 0 0 0-23.031 17.436 54.331 54.331 0 0 1 1.456-11.485.227.227 0 0 0-.44-.114 55.34 55.34 0 0 0-1.516 11.917.235.235 0 0 0 .038.129c-2.274 2.449-4.5 5-6.573 7.626-3.4 4.306-6.535 8.824-9.5 13.441-.159.25.235.47.394.227 2.32-3.616 4.768-7.179 7.369-10.613a19.661 19.661 0 0 0 6.141.644 32.282 32.282 0 0 0 6.694-.22c.288-.061.167-.493-.121-.432a29.808 29.808 0 0 1-6.58.2 20.423 20.423 0 0 1-5.845-.569 109.1 109.1 0 0 1 16.534-17.747.182.182 0 0 0 .114.061 71.488 71.488 0 0 0 17.4.7c.288 0 .281-.478 0-.455a70.851 70.851 0 0 1-17.087-.652 75.661 75.661 0 0 1 14.017-9.332l.758-.371a.2.2 0 0 0 .106-.053 63.351 63.351 0 0 1 11.932-4.465.2.2 0 0 0 .114 0l.318-.106.379-.1a.167.167 0 0 0 .106-.061q5.625-1.819 11.182-3.79c.271-.137.15-.577-.123-.479z" class="prefix__cls-4" data-name="Path 574" transform="translate(-91.088 -24.653)"/>
        <path id="prefix__Path_575" d="M35.613 89.607a3.79 3.79 0 0 0 1.016-2.646c.144-3.654-2.115-6.944-4.442-9.764a8.339 8.339 0 0 0-3.351-2.8 1.137 1.137 0 0 0-.69-.068c-.569.167-.629.948-.546 1.516.758 5.39 3.389 10.909 8.013 13.782" class="prefix__cls-3" data-name="Path 575" transform="translate(-6.672 -18.003)"/>
        <path id="prefix__Path_576" d="M17.088 86.11a15.518 15.518 0 0 0-4.063-3.639 23.5 23.5 0 0 0-2.274-1.221c-2.987-1.4-6.444-2.562-9.537-1.4a1.994 1.994 0 0 0-1.046.758 1.516 1.516 0 0 0 .083 1.516 3.79 3.79 0 0 0 1.137 1.092c4.329 3.032 10.613 4.367 15.7 2.9" class="prefix__cls-3" data-name="Path 576" transform="translate(-.004 -19.228)"/>
        <path id="prefix__Path_577" d="M51.186 106.357c-5.307-1.941-11.44-4.223-17.019-3.51a7.945 7.945 0 0 0-3.032.879 3.844 3.844 0 0 0-1.918 2.4 4.507 4.507 0 0 0 1.865 4.207 10.408 10.408 0 0 0 5.731 2.221 19.642 19.642 0 0 0 6.194-.546 13.039 13.039 0 0 0 2.8-.91 15.215 15.215 0 0 0 5.352-4.738" class="prefix__cls-3" data-name="Path 577" transform="translate(-7.053 -24.875)"/>
        <path id="prefix__Path_578" d="M67.942 112.388a28.238 28.238 0 0 0 2.661-5.223 9.438 9.438 0 0 0 .311-5.761 9.916 9.916 0 0 0-2.471-3.874 4.761 4.761 0 0 0-1.866-1.33 2.032 2.032 0 0 0-2.145.425 2.5 2.5 0 0 0-.5.978c-.91 2.9 0 6.065 1.145 8.854.758 1.926 1.387 4.306 2.729 5.89" class="prefix__cls-3" data-name="Path 578" transform="translate(-15.379 -23.264)"/>
        <path id="prefix__Path_579" d="M75.359 129.934A20.021 20.021 0 0 0 63.639 126a5.858 5.858 0 0 0-4.041 1.137 3.934 3.934 0 0 0-.8 4.359 5.511 5.511 0 0 0 3.51 2.934 9.279 9.279 0 0 0 4.67 0c3.078-.69 6.383-2.039 8.339-4.48" class="prefix__cls-3" data-name="Path 579" transform="translate(-14.146 -30.508)"/>
        <path id="prefix__Path_580" d="M6.44 82.085q5.784 2.092 11.659 3.98a62.436 62.436 0 0 1 11.925 4.359q-2.224-4.7-4.724-9.264a.227.227 0 0 1 .394-.22q2.638 4.821 4.981 9.81a83.481 83.481 0 0 1 23.031 17.436 55.409 55.409 0 0 0-1.425-11.477.227.227 0 0 1 .44-.106 55.34 55.34 0 0 1 1.478 11.91.235.235 0 0 1 0 .129c2.274 2.449 4.5 5 6.573 7.634 3.4 4.306 6.527 8.817 9.5 13.441.152.243-.243.462-.394.22-2.32-3.608-4.768-7.179-7.369-10.613a19.7 19.7 0 0 1-6.148.637 32.283 32.283 0 0 1-6.694-.212c-.28-.068-.159-.5.121-.44a29.823 29.823 0 0 0 6.58.2 19.931 19.931 0 0 0 5.852-.569 109.429 109.429 0 0 0-16.511-17.74.2.2 0 0 1-.121.061 71.049 71.049 0 0 1-17.391.7c-.288 0-.288-.478 0-.455a70.5 70.5 0 0 0 17.087-.652A75.922 75.922 0 0 0 31.207 91.5l-.758-.371a.129.129 0 0 1-.106-.053A63.225 63.225 0 0 0 18.4 86.611h-.1l-.318-.106-.387-.106a.152.152 0 0 1-.1-.061q-5.625-1.812-11.182-3.79c-.275-.129-.154-.569.127-.463z" class="prefix__cls-4" data-name="Path 580" transform="translate(-1.492 -19.585)"/>
        <path id="prefix__Path_581" d="M309.847 197.476s-7.581-6.247-14.4-11.371a6.067 6.067 0 0 1-1.175.485l11.424 8.817H89.517l12.334-9.522a6.361 6.361 0 0 1-.5-.955c-7.2 5.307-15.98 12.546-15.98 12.546l101.887 2.577a11.69 11.69 0 0 0 9.855 4.912 13.646 13.646 0 0 0 10.553-4.9z" class="prefix__cls-7" data-name="Path 581" transform="translate(-20.655 -44.764)"/>
        <path id="prefix__Path_582" d="M210.272 194.889h96.679l-6.648-5.777-70.5-6.322-21.714 6.41-17.383-.675-31.135-4.367-61.64 4.7-7.361 6.027h97.035a20.462 20.462 0 0 0 11.561 4 18.543 18.543 0 0 0 11.106-4z" class="prefix__cls-8" data-name="Path 582" transform="translate(-21.913 -44.246)"/>
        <path id="prefix__Path_583" d="M252.445 155.715a80.356 80.356 0 0 0-16.89.614 285.47 285.47 0 0 1 39.633-5.056c17.171-1.114 28.239-5.716 28.239-5.716-12.478 1.3-23.872-.523-59.131 4.367-23.8 3.3-38.518 13.251-45.584 19.384 14.9-19.134 55.75-30.824 71.571-35.024 16.625-4.42 26.594-11.076 26.594-11.076-11.993 3.684-23.5 4.116-57.175 15.753-20.537 7.1-32.727 18.1-39.117 25.6 13.415-17.488 41.255-33.12 53.028-39.461 14.237-7.672 21.947-15.92 21.947-15.92-10.158 5.989-20.575 8.923-48.836 26.882-16.428 10.446-25.237 22.4-29.74 30.589 5.974-18.55 28.724-39.095 38.056-47.191 10.545-9.165 15.291-17.656 15.291-17.656-7.406 6.99-15.761 11.371-36.055 31.923-11.22 11.371-16.117 22.743-18.255 30.6-2.13-7.877-7.027-19.233-18.247-30.6-20.294-20.559-28.648-24.934-36.055-31.923 0 0 4.746 8.491 15.291 17.656 9.324 8.1 32.082 28.641 38.056 47.191-4.5-8.187-13.312-20.142-29.74-30.589-28.269-17.959-38.662-20.893-48.836-26.882 0 0 7.71 8.218 21.947 15.92 11.773 6.345 39.6 21.985 53.066 39.466-6.391-7.5-18.581-18.5-39.117-25.6-33.72-11.637-45.25-12.069-57.243-15.783 0 0 9.969 6.656 26.594 11.076 15.821 4.2 56.667 15.92 71.571 35.024-7.065-6.133-21.78-16.087-45.584-19.384-35.274-4.89-46.668-3.07-59.131-4.367 0 0 11.068 4.6 28.239 5.716a285.478 285.478 0 0 1 39.633 5.056 80.359 80.359 0 0 0-16.89-.614c-35.532 2.449-42.453 12.205-54.954 13.494 0 0 11.773 2.236 28.807-.2 16.405-2.342 56.932-3.389 80.069 5.155 0 .083 5.056.083 5.026 0 23.137-8.544 63.679-7.5 80.069-5.155 17.027 2.441 28.807.2 28.807.2-12.499-1.279-19.445-11.02-54.954-13.469zm-42.915 8.855a83.889 83.889 0 0 0-9.2 5.428 54.439 54.439 0 0 1 9.2-5.428zM191.647 170a82.992 82.992 0 0 0-9.188-5.428 54.069 54.069 0 0 1 9.188 5.428z" class="prefix__cls-20" data-name="Path 583" transform="translate(-20.473 -24.654)"/>
        <path id="prefix__Path_584" d="M373.69 158.433a11.9 11.9 0 0 0 3.146-.318 10.2 10.2 0 0 1 3.866-.629 7.187 7.187 0 0 1 2.555 1.152 4.04 4.04 0 0 1 1.933 1.941.326.326 0 0 1 0 .3c-.091.152-.311.114-.478.061-.872-.3-1.691-.758-2.57-1.016a3.79 3.79 0 0 0-2.7 0 24.646 24.646 0 0 0-2.009 1.463 3.252 3.252 0 0 1-3.449-.129" class="prefix__cls-6" data-name="Path 584" transform="translate(-90.403 -38.113)"/>
        <path id="prefix__Path_585" d="M380.9 173.845a2.2 2.2 0 0 1 2.82.682 12.046 12.046 0 0 1 1.38 2.866 18.953 18.953 0 0 0 2.373 3.662 50.476 50.476 0 0 1 6.542 10.363c.106.243.235.523.493.606a.993.993 0 0 0 .553-.053l2.479-.758c.22-.061.462-.152.538-.364a.758.758 0 0 0-.053-.478q-3.5-10.03-7.733-19.8" class="prefix__cls-14" data-name="Path 585" transform="translate(-92.147 -41.29)"/>
        <path id="prefix__Path_586" d="M343.013 128.69c-1.023 2.456-1.683 7.543-.478 9.916a3.457 3.457 0 0 1-.6-.2l-6.686-2.843a.7.7 0 0 1-.371-.265.757.757 0 0 1-.053-.455c.114-1.039.227-2.077.333-3.116" class="prefix__cls-5" data-name="Path 586" transform="translate(-80.998 -31.159)"/>
        <path id="prefix__Path_587" d="M352.068 172.025a99.765 99.765 0 0 1 17.565-6.626 29.93 29.93 0 0 1 8.976-1.349 5.042 5.042 0 0 1 1.781.318 5.542 5.542 0 0 1 1.827 1.478c5.913 6.436 10 14.335 15.51 21.113a5.254 5.254 0 0 1-1.516 1.986 2.274 2.274 0 0 1-2.365.265 4.078 4.078 0 0 1-1.183-1.327c-1.645-2.335-4.154-3.881-6.224-5.845-2.737-2.593-4.7-5.936-7.528-8.43a4.4 4.4 0 0 0-1.835-1.084c-1.516-.334-2.919.758-4.139 1.713-3.9 3.032-8.445 5.132-12.652 7.725-2.979 1.827-5.845 3.927-9.15 5.056s-8.127 2.714-10.856.538" class="prefix__cls-15" data-name="Path 587" transform="translate(-82.321 -39.713)"/>
        <path id="prefix__Path_588" d="M398.24 197.918c.326 1.736.652 3.464.986 5.2a2.37 2.37 0 0 0 3.419 2.244l4.549-.8c3.389-.591 6.823-1.205 9.855-2.8.538-.28 1.137-.758 1.031-1.342s-.606-.758-1.084-.9c-1.819-.531-3.79-.22-5.64-.425-2.767-.3-5.307-1.683-7.945-2.479a1.767 1.767 0 0 0-.857-.106 2.275 2.275 0 0 0-.895.531 4.549 4.549 0 0 1-3.419.872" class="prefix__cls-7" data-name="Path 588" transform="translate(-96.342 -47.563)"/>
        <path id="prefix__Path_589" d="M404.578 195.673c-.485-.675-.963-2.024-.311-2.767.94-.159 1.311.091 1.1.758a3.3 3.3 0 0 1-.136.538 3.791 3.791 0 0 1-.834 1.334.2.2 0 0 0 .136.326 7.755 7.755 0 0 0 3.881-1.016.2.2 0 0 0-.2-.334 7.383 7.383 0 0 1-3.684.963l.136.334c.591-.637 2.115-3.654.235-3.7s-1.3 2.888-.66 3.753c.147.205.488 0 .337-.189z" class="prefix__cls-19" data-name="Path 589" transform="translate(-97.646 -46.5)"/>
        <path id="prefix__Path_590" d="M403.767 196.64a3.123 3.123 0 0 0-1.994.758 1.236 1.236 0 0 0-.19 1.516.932.932 0 0 0 1.3.28c.758-.485.614-1.569 1.243-2.145h-.3a30.181 30.181 0 0 0 1.418 2.9c.121.22.455 0 .334-.2a31.121 31.121 0 0 1-1.418-2.9.2.2 0 0 0-.3 0 3.918 3.918 0 0 0-.758 1.516c-.243.538-.22.523-.758.114-.569-.152-.652-.417-.25-.758l.273-.235a3.3 3.3 0 0 1 1.448-.409c.243 0 .243-.425 0-.394z" class="prefix__cls-19" data-name="Path 590" transform="translate(-97.108 -47.597)"/>
        <path id="prefix__Path_591" d="M408.616 198.247l-.66 1.766c-.083.235.288.334.371.106l.66-1.774c.091-.234-.287-.333-.371-.098z" class="prefix__cls-19" data-name="Path 591" transform="translate(-98.689 -47.953)"/>
        <path id="prefix__Path_592" d="M411.377 199.2l-.2 1.872c0 .243.356.243.387 0l.2-1.872a.194.194 0 0 0-.387 0z" class="prefix__cls-19" data-name="Path 592" transform="translate(-99.472 -48.171)"/>
        <path id="prefix__Path_593" d="M414.46 199.949a4.725 4.725 0 0 0 .2 1.3.192.192 0 0 0 .371-.1 4.3 4.3 0 0 1-.167-1.2.2.2 0 0 0-.387 0z" class="prefix__cls-19" data-name="Path 593" transform="translate(-100.266 -48.359)"/>
        <path id="prefix__Path_594" d="M403.1 206.627l4.549-.758c3.389-.591 6.823-1.205 9.855-2.8.516-.273 1.084-.713 1.039-1.281a11.438 11.438 0 0 0-3.336 1.107 17.85 17.85 0 0 1-3.085.758l-3.4.652a18.376 18.376 0 0 1-3.525.44 13.1 13.1 0 0 0-3.245.243c-.644.144-2.994.28-1.19 1.516a3.5 3.5 0 0 0 2.338.123z" class="prefix__cls-9" data-name="Path 594" transform="translate(-96.791 -48.842)"/>
        <path id="prefix__Path_595" d="M339.841 109c.046.227.349.265.576.258a7.96 7.96 0 0 1 5.405 1.926 6.065 6.065 0 0 1 1.986 5.307 6.338 6.338 0 0 0-.25 2.274 3.563 3.563 0 0 0 1.554 2.009.857.857 0 0 1 .326.334c.174.432-.364.758-.72 1.061-1.236 1.008-.758 3.032-1.516 4.435a1.122 1.122 0 0 1-.538.538 1.448 1.448 0 0 1-.675 0l-3.237-.425a11.925 11.925 0 0 1-3.222-.758 6.823 6.823 0 0 1-3.442-3.616 9.1 9.1 0 0 1-.47-5.026" class="prefix__cls-6" data-name="Path 595" transform="translate(-81.154 -26.395)"/>
        <path id="prefix__Path_596" d="M332.408 134.48a11.947 11.947 0 0 0 5.473 2.9 5.39 5.39 0 0 1 1.8.591 4.465 4.465 0 0 1 1.023 1.107c.864 1.19 1.728 2.388 2.6 3.578 1.516 2.123 3.123 4.351 3.533 6.937a35.144 35.144 0 0 1-.053 5.716 15.64 15.64 0 0 0 1.888 7.437 4.215 4.215 0 0 1 .576 1.395 3.564 3.564 0 0 1-.121 1.2 33.948 33.948 0 0 1-5.883 12.736c-1.471 1.956-3.51 3.9-5.943 3.737-2.236-.159-3.927-2.032-5.185-3.881-5.966-8.794-7.748-20.036-6.065-30.528.758-4.5 2.115-9.029 5-12.569" class="prefix__cls-8" data-name="Path 596" transform="translate(-78.732 -32.559)"/>
        <path id="prefix__Path_597" d="M370.17 158.359a3.412 3.412 0 0 1 1.645-.682c.455-.053 1.023.068 1.137.508a1.351 1.351 0 0 1 0 .493 6.065 6.065 0 0 0 .478 1.994 2 2 0 0 1-.22 1.956 2.388 2.388 0 0 1-1.789.478" class="prefix__cls-8" data-name="Path 597" transform="translate(-89.551 -38.168)"/>
        <path id="prefix__Path_598" d="M371.343 159.161a5.094 5.094 0 0 1 1.114-.174c.243 0 .243-.394 0-.387a5.867 5.867 0 0 0-1.213.19.192.192 0 1 0 .1.371z" class="prefix__cls-18" data-name="Path 598" transform="translate(-89.777 -38.394)"/>
        <path id="prefix__Path_599" d="M371.48 160.7a6.522 6.522 0 0 0 1.274-.061c.243 0 .136-.4-.106-.371a6.018 6.018 0 0 1-1.167.045.193.193 0 0 0 0 .387z" class="prefix__cls-18" data-name="Path 599" transform="translate(-89.823 -38.798)"/>
        <path id="prefix__Path_600" d="M371.954 162.319a3.646 3.646 0 0 0 1.145.136.2.2 0 0 0 0-.387 3.79 3.79 0 0 1-1.046-.121.192.192 0 0 0-.1.371z" class="prefix__cls-18" data-name="Path 600" transform="translate(-89.948 -39.203)"/>
        <path id="prefix__Path_601" d="M371.96 163.878a2.646 2.646 0 0 0 .872.129.2.2 0 0 0 0-.387 2.207 2.207 0 0 1-.758-.114c-.235-.083-.341.3-.106.371z" class="prefix__cls-18" data-name="Path 601" transform="translate(-89.954 -39.578)"/>
        <path id="prefix__Path_602" d="M342.085 194.881a2.426 2.426 0 0 1 .682.811c.114.22.447 0 .334-.19a2.767 2.767 0 0 0-.819-.955c-.197-.147-.382.183-.197.334z" class="prefix__cls-18" data-name="Path 602" transform="translate(-82.738 -47.081)"/>
        <path id="prefix__Path_603" d="M344.535 192.8a3.033 3.033 0 0 1 .682.864c.114.227.447 0 .334-.19a3.124 3.124 0 0 0-.758-.948c-.19-.167-.462.106-.273.273z" class="prefix__cls-18" data-name="Path 603" transform="translate(-83.331 -46.588)"/>
        <path id="prefix__Path_604" d="M346.248 190.878a1.516 1.516 0 0 1 .72.508c.159.2.432-.083.281-.273a1.964 1.964 0 0 0-.895-.606c-.235-.084-.341.287-.106.371z" class="prefix__cls-18" data-name="Path 604" transform="translate(-83.732 -46.11)"/>
        <path id="prefix__Path_605" d="M347.667 188.806a1.471 1.471 0 0 1 .834.606c.136.2.478 0 .334-.2a1.842 1.842 0 0 0-1.061-.758c-.243-.076-.341.3-.106.371z" class="prefix__cls-18" data-name="Path 605" transform="translate(-84.075 -45.615)"/>
        <path id="prefix__Path_606" d="M349.4 186.223l.887.6c.212.136.4-.2.2-.334l-.895-.6c-.206-.136-.403.198-.192.334z" class="prefix__cls-18" data-name="Path 606" transform="translate(-84.505 -44.988)"/>
        <path id="prefix__Path_607" d="M350.835 183.782a2.017 2.017 0 0 0 .644.516c.22.114.417-.22.2-.334a1.661 1.661 0 0 1-.569-.455c-.159-.19-.432.083-.273.273z" class="prefix__cls-18" data-name="Path 607" transform="translate(-84.862 -44.405)"/>
        <path id="prefix__Path_608" d="M351.725 181.941a2.472 2.472 0 0 0 .895.682c.227.1.425-.235.2-.334a2.274 2.274 0 0 1-.819-.622c-.159-.2-.432.083-.273.273z" class="prefix__cls-18" data-name="Path 608" transform="translate(-85.077 -43.958)"/>
        <path id="prefix__Path_609" d="M352.969 179.8a2.411 2.411 0 0 1 .478.349c.182.167.455-.106.273-.273a2.685 2.685 0 0 0-.553-.409c-.22-.121-.417.212-.2.334z" class="prefix__cls-18" data-name="Path 609" transform="translate(-85.367 -43.435)"/>
        <path id="prefix__Path_610" d="M353.98 177.018a2.13 2.13 0 0 0 .606.356c.235.091.334-.288.106-.371a1.6 1.6 0 0 1-.44-.258c-.19-.159-.462.114-.273.273z" class="prefix__cls-18" data-name="Path 610" transform="translate(-85.619 -42.772)"/>
        <path id="prefix__Path_611" d="M355.2 173.711a2.206 2.206 0 0 0 .591.5.192.192 0 0 0 .19-.334 2.169 2.169 0 0 1-.508-.44c-.156-.196-.429.077-.273.274z" class="prefix__cls-18" data-name="Path 611" transform="translate(-85.918 -41.967)"/>
        <path id="prefix__Path_612" d="M335.712 179.668c-2.668-1.183-4.139-4.063-5.019-6.823a32.128 32.128 0 0 1-.622-16.875l.9 4.677a58.544 58.544 0 0 0 1.668 7.1c1.023 3.184 2.585 6.194 3.457 9.431a3.388 3.388 0 0 1 0 2.456" class="prefix__cls-21" data-name="Path 612" transform="translate(-79.648 -37.758)"/>
        <path id="prefix__Path_613" d="M334.95 150.67c-.6 5.648.508 11.606 3.836 16.2a10.31 10.31 0 0 0 2.585 2.608 6.876 6.876 0 0 0 10.613-5.413" class="prefix__cls-21" data-name="Path 613" transform="translate(-80.994 -36.476)"/>
        <path id="prefix__Path_614" d="M333.216 134.364c-.061-.629.667-1.084 1.289-1.016a3.828 3.828 0 0 1 1.668.841 12.637 12.637 0 0 0 4.723 2.017 1.312 1.312 0 0 1 .584.2 1.517 1.517 0 0 1 .3.356c.19.3.387.591.584.887a.879.879 0 0 1 .2.758c-.114.334-.553.394-.91.387a13.024 13.024 0 0 1-7.861-3.032c-.417-.356-.857-.879-.682-1.4" class="prefix__cls-8" data-name="Path 614" transform="translate(-80.578 -32.284)"/>
        <path id="prefix__Path_615" d="M335.359 133.856l-.25 1.38a.2.2 0 0 0 .379.106c.076-.462.159-.917.243-1.38a.2.2 0 0 0-.136-.235.19.19 0 0 0-.236.129z" data-name="Path 615" transform="translate(-81.068 -32.375)"/>
        <path id="prefix__Path_616" d="M337.28 134.789v2.274a.2.2 0 0 0 .387 0v-2.274a.2.2 0 0 0-.387 0z" data-name="Path 616" transform="translate(-81.595 -32.596)"/>
        <path id="prefix__Path_617" d="M339.909 136.693l.258 1.706c.038.243.409.136.371-.106l-.258-1.7c.001-.249-.409-.143-.371.1z" class="prefix__cls-18" data-name="Path 617" transform="translate(-82.23 -33.036)"/>
        <path id="prefix__Path_618" d="M342.559 137.381a6.665 6.665 0 0 0 .538 1.865c.1.227.432 0 .334-.2a6.1 6.1 0 0 1-.485-1.668c0-.243-.417-.25-.387 0z" class="prefix__cls-18" data-name="Path 618" transform="translate(-82.872 -33.216)"/>
        <path id="prefix__Path_619" d="M336.477 142.406a2.221 2.221 0 0 1 2.2-.371 5.231 5.231 0 0 1 1.926 1.3c1.88 1.8 3.358 3.965 5.087 5.913a12.964 12.964 0 0 0 6.345 4.344c3.169.758 6.648-.334 9.726.758a1.463 1.463 0 0 1 .69.417 2.624 2.624 0 0 1 .3 1.114c.129.629.523 1.2.591 1.842.129 1.342-1.175 2.342-2.35 3.032a29.133 29.133 0 0 1-7.384 3.161 14.4 14.4 0 0 1-7.952-.121 14.9 14.9 0 0 1-6.717-4.912c-3.465-4.245-5.17-10.189-3.389-15.366" class="prefix__cls-8" data-name="Path 619" transform="translate(-81.004 -34.353)"/>
        <path id="prefix__Path_620" d="M344.51 157.268l2.115 2.7a11.257 11.257 0 0 0 1.873 2.017 5.784 5.784 0 0 0 7.444-.553c.235-.243.44-.675.174-.895a.629.629 0 0 0-.326-.114c-1.774-.243-3.593.2-5.36-.129a14.927 14.927 0 0 1-5.921-3.032" class="prefix__cls-21" data-name="Path 620" transform="translate(-83.344 -38.07)"/>
        <path id="prefix__Path_621" d="M331.3 109.964a7.9 7.9 0 0 1-3.032-1.349 3.9 3.9 0 0 1-.667-5.875 7.846 7.846 0 0 1 2.631-1.971 3.836 3.836 0 0 1 2.441-.508 3.131 3.131 0 0 1 1.63 1.069 5.5 5.5 0 0 1 1.167 4.988" class="prefix__cls-7" data-name="Path 621" transform="translate(-79.002 -24.274)"/>
        <path id="prefix__Path_622" d="M335.515 105.12a4.836 4.836 0 0 1-2.737.508 5.8 5.8 0 0 0-2-.349 10.4 10.4 0 0 0-1.66.758 2.161 2.161 0 0 1-2.365-.713 3.791 3.791 0 0 0-.2 1.622 4.253 4.253 0 0 0 1.683 2.813 7.869 7.869 0 0 0 3.032 1.349l1.516-1.357a4.048 4.048 0 0 1 .5-.682 2.168 2.168 0 0 1 .8-.455l1.3-1.145a5.481 5.481 0 0 0 .129-2.35z" class="prefix__cls-9" data-name="Path 622" transform="translate(-78.996 -25.457)"/>
        <path id="prefix__Path_623" d="M335.559 107.942a8.8 8.8 0 0 1 5.61.7c1.554.652 3.3 1.562 3.631 3.214.311 1.516-.758 2.972-1.865 4.018s-2.479 1.986-3.085 3.4a2.274 2.274 0 0 1-.409.758.591.591 0 0 1-.758.091 1.372 1.372 0 0 1-.235-.584 1.289 1.289 0 0 0-2.1-.25 1.971 1.971 0 0 0 .076 2.373c.227.3.523.561.758.872a3.853 3.853 0 0 1 0 3.707 19.288 19.288 0 0 0-1.516 3.555c-.129.69-.1 1.395-.212 2.092a.819.819 0 0 1-.387.667c-.273.114-.569-.061-.819-.212-1.554-.887-3.457-.758-5.246-.857s-3.79-.629-4.632-2.214a2.274 2.274 0 0 0 1.766-1.88 7.271 7.271 0 0 0-.182-2.737 6.534 6.534 0 0 1 .167-3.836c.44-.948 1.281-1.683 1.637-2.668s.159-2.229.462-3.305c.409-1.41 1.645-2.4 2.418-3.631a8.787 8.787 0 0 1 .826-1.258 5.041 5.041 0 0 1 1.167-.857 6.936 6.936 0 0 1 2.979-1.16" class="prefix__cls-7" data-name="Path 623" transform="translate(-78.472 -26.096)"/>
        <path id="prefix__Path_624" d="M335.129 131.136c-.841-.356-1.835.341-2.7.045-1.251-.417-1.061-2.236-1.66-3.4a12 12 0 0 0-1.107-1.448 5.513 5.513 0 0 1 0-5.671 14.143 14.143 0 0 0 1.152-2.2c.864-2.555-.925-5.974.758-8.051l-.288.288a10.458 10.458 0 0 0-.758 1.145c-.758 1.236-2.017 2.221-2.418 3.631-.311 1.076-.083 2.274-.47 3.305s-1.2 1.721-1.63 2.668a6.474 6.474 0 0 0-.167 3.836 7.429 7.429 0 0 1 .174 2.737 2.229 2.229 0 0 1-1.766 1.88c.841 1.584 2.843 2.107 4.632 2.214s3.692 0 5.246.857c.25.152.546.326.819.212a.8.8 0 0 0 .387-.667 11.227 11.227 0 0 0 .106-1.122 1.092 1.092 0 0 0-.31-.259z" class="prefix__cls-9" data-name="Path 624" transform="translate(-78.443 -26.736)"/>
        <path id="prefix__Path_625" d="M351.8 171.449c-2.8 6.709-5.761 15.162-12.577 18.823a.2.2 0 0 0-.068.091 2.975 2.975 0 0 0 .417.159c6.823-3.79 9.779-12.205 12.6-18.952.103-.25-.246-.348-.372-.121z" class="prefix__cls-18" data-name="Path 625" transform="translate(-82.05 -41.472)"/>
        <path id="prefix__Path_626" d="M409.24 194.977q.5 2.593.986 5.2a2.373 2.373 0 0 0 3.427 2.236l4.549-.758c3.389-.591 6.823-1.205 9.855-2.8.538-.28 1.137-.758 1.031-1.342s-.614-.758-1.092-.91c-1.812-.523-3.79-.212-5.64-.417-2.759-.3-5.307-1.691-7.937-2.487a1.782 1.782 0 0 0-.864-.1 2.357 2.357 0 0 0-.894.531 4.548 4.548 0 0 1-3.419.872" class="prefix__cls-7" data-name="Path 626" transform="translate(-99.003 -46.858)"/>
        <path id="prefix__Path_627" d="M415.587 192.713c-.493-.667-.963-2.024-.318-2.767.948-.159 1.312.1 1.107.758a4.457 4.457 0 0 1-.144.546 3.731 3.731 0 0 1-.826 1.327.2.2 0 0 0 .137.334 7.778 7.778 0 0 0 3.874-1.016c.22-.121 0-.455-.2-.334a7.339 7.339 0 0 1-3.677.963l.136.326c.591-.637 2.115-3.646.235-3.7s-1.3 2.888-.66 3.79c.144.2.478 0 .334-.2z" class="prefix__cls-19" data-name="Path 627" transform="translate(-100.309 -45.784)"/>
        <path id="prefix__Path_628" d="M414.769 193.69a3.086 3.086 0 0 0-1.986.758 1.236 1.236 0 0 0-.19 1.516.925.925 0 0 0 1.3.273c.758-.478.622-1.562 1.251-2.145l-.311-.038a32.235 32.235 0 0 0 1.418 2.911.2.2 0 0 0 .334-.2 31.254 31.254 0 0 1-1.448-2.843c-.046-.114-.22-.114-.3-.038a4.238 4.238 0 0 0-.758 1.516c-.25.531-.212.531-.758.121-.561-.152-.644-.417-.243-.758l.265-.235a3.472 3.472 0 0 1 1.448-.417c.243 0 .25-.417 0-.387z" class="prefix__cls-19" data-name="Path 628" transform="translate(-99.771 -46.883)"/>
        <path id="prefix__Path_629" d="M419.625 195.289l-.659 1.774c-.091.235.288.334.371.1L420 195.4c.08-.24-.292-.339-.375-.111z" class="prefix__cls-19" data-name="Path 629" transform="translate(-101.352 -47.239)"/>
        <path id="prefix__Path_630" d="M422.385 196.25l-.2 1.865a.193.193 0 0 0 .387 0l.2-1.865a.193.193 0 0 0-.387 0z" class="prefix__cls-19" data-name="Path 630" transform="translate(-102.133 -47.457)"/>
        <path id="prefix__Path_631" d="M425.46 197.009a4.732 4.732 0 0 0 .2 1.3c.076.243.447.136.371-.1a4.6 4.6 0 0 1-.189-1.205.2.2 0 0 0-.387 0z" class="prefix__cls-19" data-name="Path 631" transform="translate(-102.927 -47.647)"/>
        <path id="prefix__Path_632" d="M414.1 203.667l4.549-.8c3.381-.591 6.823-1.205 9.855-2.8.516-.265 1.084-.713 1.031-1.274a11.468 11.468 0 0 0-3.328 1.107 18.559 18.559 0 0 1-3.085.758l-3.4.652a19.157 19.157 0 0 1-3.525.44 13.487 13.487 0 0 0-3.252.235c-.644.144-2.994.288-1.19 1.516a3.548 3.548 0 0 0 2.345.166z" class="prefix__cls-9" data-name="Path 632" transform="translate(-99.45 -48.119)"/>
        <path id="prefix__Path_633" d="M373.375 158.663l18.566-4.276a.478.478 0 0 0 .349-.455l1.668-21.226c.045-.606-.9-.6-.948 0l-.758 9.491c-.19 2.358-.371 4.708-.561 7.065-.1 1.228.129 3.192-.341 4.344-.258.644.675-.455 0-.083a7.938 7.938 0 0 1-1.8.409l-6.065 1.395-10.385 2.388c-.591.136-.341 1.054.258.917z" class="prefix__cls-9" data-name="Path 633" transform="translate(-90.179 -32.021)"/>
        <circle id="prefix__Ellipse_35" cx="3.533" cy="3.533" r="3.533" class="prefix__cls-8" data-name="Ellipse 35" transform="translate(270.415 9.555)"/>
        <circle id="prefix__Ellipse_36" cx="3.533" cy="3.533" r="3.533" class="prefix__cls-8" data-name="Ellipse 36" transform="translate(333.601 59.983)"/>
        <path id="prefix__Path_634" d="M417.324 23.744a1.592 1.592 0 1 1-1.592-1.584 1.592 1.592 0 0 1 1.592 1.584z" class="prefix__cls-8" data-name="Path 634" transform="translate(-100.188 -5.388)"/>
        <path id="prefix__Path_635" d="M102.305 32.805a3.533 3.533 0 1 1-3.525-3.525 3.533 3.533 0 0 1 3.525 3.525z" class="prefix__cls-8" data-name="Path 635" transform="translate(-23.042 -7.11)"/>
        <circle id="prefix__Ellipse_37" cx="3.533" cy="3.533" r="3.533" class="prefix__cls-8" data-name="Ellipse 37" transform="translate(136.355 53.812)"/>
        <circle id="prefix__Ellipse_38" cx="1.592" cy="1.592" r="1.592" class="prefix__cls-8" data-name="Ellipse 38" transform="translate(116.713 10.594)"/>
        <circle id="prefix__Ellipse_39" cx="1.592" cy="1.592" r="1.592" class="prefix__cls-8" data-name="Ellipse 39" transform="translate(28.373 42.714)"/>
        <rect id="prefix__Rectangle_113" width="47.631" height="8.536" class="prefix__cls-8" data-name="Rectangle 113" rx=".95" transform="translate(52.753 93.726)"/>
        <path id="prefix__Path_636" d="M74.989 123.67H73.17v8.536h1.819" class="prefix__cls-23" data-name="Path 636" transform="translate(-17.703 -29.944)"/>
        <path id="prefix__Path_637" d="M128.362 123.67h-1.812v8.536h1.812" class="prefix__cls-23" data-name="Path 637" transform="translate(-30.617 -29.944)"/>
        <path id="prefix__Path_638" d="M62.13 177.024a.841.841 0 0 0 .925.72h59.04a.841.841 0 0 0 .925-.72v-7.1a.841.841 0 0 0-.925-.72h-59.04a.841.841 0 0 0-.925.72z" class="prefix__cls-8" data-name="Path 638" transform="translate(-15.033 -40.959)"/>
        <path id="prefix__Path_639" d="M69.03 169.21h-2.32v8.536h2.32" class="prefix__cls-23" data-name="Path 639" transform="translate(-16.141 -40.961)"/>
        <path id="prefix__Path_640" d="M137.26 169.21h-2.32v8.536h2.32" class="prefix__cls-23" data-name="Path 640" transform="translate(-32.646 -40.961)"/>
        <path id="prefix__Path_641" d="M64.91 152.745a.819.819 0 0 0 .887.72h57.008a.819.819 0 0 0 .887-.72v-7.1a.819.819 0 0 0-.887-.72H65.8a.819.819 0 0 0-.887.72z" class="prefix__cls-15" data-name="Path 641" transform="translate(-15.705 -35.086)"/>
        <path id="prefix__Path_642" d="M71.574 144.93H69.33v8.536h2.244" class="prefix__cls-19" data-name="Path 642" transform="translate(-16.774 -35.087)"/>
        <path id="prefix__Path_643" d="M137.436 144.93H135.2v8.536h2.236" class="prefix__cls-19" data-name="Path 643" transform="translate(-32.709 -35.087)"/>
        <path id="prefix__Path_644" d="M72.57 188.277a.819.819 0 0 0 .887.758h57a.826.826 0 0 0 .895-.758v-7.088a.826.826 0 0 0-.895-.72h-57a.819.819 0 0 0-.887.72z" class="prefix__cls-15" data-name="Path 644" transform="translate(-17.558 -43.684)"/>
        <path id="prefix__Path_645" d="M79.226 180.47H76.99v8.536h2.236" class="prefix__cls-19" data-name="Path 645" transform="translate(-18.628 -43.685)"/>
        <path id="prefix__Path_646" d="M145.094 180.47h-2.244v8.536h2.244" class="prefix__cls-19" data-name="Path 646" transform="translate(-34.56 -43.685)"/>
        <path id="prefix__Rectangle_114" d="M0 0H44.818V6.459H0z" class="prefix__cls-24" data-name="Rectangle 114" transform="translate(56.551 103.05)"/>
        <path id="prefix__Rectangle_115" d="M0 0H44.818V0.136H0z" class="prefix__cls-25" data-name="Rectangle 115" transform="translate(56.551 104.021)"/>
        <path id="prefix__Rectangle_116" d="M0 0H44.818V0.136H0z" class="prefix__cls-25" data-name="Rectangle 116" transform="translate(56.551 105.112)"/>
        <path id="prefix__Rectangle_117" d="M0 0H44.818V0.136H0z" class="prefix__cls-25" data-name="Rectangle 117" transform="translate(56.551 106.204)"/>
        <path id="prefix__Rectangle_118" d="M0 0H44.818V0.136H0z" class="prefix__cls-25" data-name="Rectangle 118" transform="translate(56.551 107.303)"/>
        <path id="prefix__Rectangle_119" d="M0 0H44.818V0.136H0z" class="prefix__cls-25" data-name="Rectangle 119" transform="translate(56.551 108.395)"/>
        <path id="prefix__Path_647" d="M73.92 135.461a.334.334 0 0 0 .3.356h45.25a.326.326 0 0 0 .288-.356v-.174a.326.326 0 0 0-.288-.356H74.215a.334.334 0 0 0-.3.356z" class="prefix__cls-15" data-name="Path 647" transform="translate(-17.885 -32.668)"/>
        <path id="prefix__Path_648" d="M73.919 144.831a.334.334 0 0 0 .3.364h45.25a.334.334 0 0 0 .288-.364v-.167a.334.334 0 0 0-.288-.364H74.215a.341.341 0 0 0-.3.364z" class="prefix__cls-15" data-name="Path 648" transform="translate(-17.884 -34.935)"/>
        <path id="prefix__Path_649" d="M72.87 157.07h44.659a4.276 4.276 0 0 1 0 8.544H72.87z" class="prefix__cls-24" data-name="Path 649" transform="translate(-17.631 -38.024)"/>
        <path id="prefix__Rectangle_120" d="M0 0H47.418V0.136H0z" class="prefix__cls-25" data-name="Rectangle 120" transform="translate(55.239 119.963)"/>
        <path id="prefix__Rectangle_121" d="M0 0H48.525V0.136H0z" class="prefix__cls-25" data-name="Rectangle 121" transform="translate(55.239 120.903)"/>
        <path id="prefix__Rectangle_122" d="M0 0H48.525V0.136H0z" class="prefix__cls-25" data-name="Rectangle 122" transform="translate(55.239 121.836)"/>
        <path id="prefix__Rectangle_123" d="M0 0H48.525V0.136H0z" class="prefix__cls-25" data-name="Rectangle 123" transform="translate(55.239 122.776)"/>
        <path id="prefix__Rectangle_124" d="M0 0H48.525V0.136H0z" class="prefix__cls-25" data-name="Rectangle 124" transform="translate(55.239 123.716)"/>
        <path id="prefix__Rectangle_125" d="M0 0H48.525V0.136H0z" class="prefix__cls-25" data-name="Rectangle 125" transform="translate(55.239 124.648)"/>
        <path id="prefix__Rectangle_126" d="M0 0H48.525V0.136H0z" class="prefix__cls-25" data-name="Rectangle 126" transform="translate(55.239 125.588)"/>
        <path id="prefix__Rectangle_127" d="M0 0H47.418V0.136H0z" class="prefix__cls-25" data-name="Rectangle 127" transform="translate(55.239 126.528)"/>
        <path id="prefix__Path_650" d="M71.363 166.162h45.432a5.087 5.087 0 1 0 0-10.174H71.363a.553.553 0 1 0 0 1.1h45.432a3.988 3.988 0 1 1 0 7.975H71.363a.553.553 0 1 0 0 1.1z" class="prefix__cls-15" data-name="Path 650" transform="translate(-17.117 -37.762)"/>
        <path id="prefix__Path_651" d="M117.767 192.609H73.108a4.276 4.276 0 1 0 0 8.544h44.659z" class="prefix__cls-24" data-name="Path 651" transform="translate(-16.611 -46.62)"/>
        <path id="prefix__Rectangle_128" d="M0 0H47.418V0.136H0z" class="prefix__cls-25" data-name="Rectangle 128" transform="translate(53.731 146.913)"/>
        <path id="prefix__Rectangle_129" d="M0 0H48.525V0.136H0z" class="prefix__cls-25" data-name="Rectangle 129" transform="translate(52.631 147.853)"/>
        <path id="prefix__Rectangle_130" d="M0 0H48.525V0.136H0z" class="prefix__cls-25" data-name="Rectangle 130" transform="translate(52.631 148.786)"/>
        <path id="prefix__Rectangle_131" d="M0 0H48.525V0.136H0z" class="prefix__cls-25" data-name="Rectangle 131" transform="translate(52.631 149.726)"/>
        <path id="prefix__Rectangle_132" d="M0 0H48.525V0.136H0z" class="prefix__cls-25" data-name="Rectangle 132" transform="translate(52.631 150.666)"/>
        <path id="prefix__Rectangle_133" d="M0 0H48.525V0.136H0z" class="prefix__cls-25" data-name="Rectangle 133" transform="translate(52.631 151.598)"/>
        <path id="prefix__Rectangle_134" d="M0 0H48.525V0.136H0z" class="prefix__cls-25" data-name="Rectangle 134" transform="translate(52.631 152.538)"/>
        <path id="prefix__Rectangle_135" d="M0 0H47.418V0.136H0z" class="prefix__cls-25" data-name="Rectangle 135" transform="translate(53.731 153.471)"/>
        <path id="prefix__Path_652" d="M118.627 201.754h-45.44a5.087 5.087 0 0 1 0-10.174h45.44a.546.546 0 0 1 .546.546.553.553 0 0 1-.546.553h-45.44a3.988 3.988 0 0 0 0 7.975h45.44a.546.546 0 0 1 .546.546.553.553 0 0 1-.546.553z" class="prefix__cls-15" data-name="Path 652" transform="translate(-16.477 -46.372)"/>
    </g>
</svg>
